{"glyphs":{"0":{"ha":665,"x_min":67,"x_max":597,"o":"m 332 -17 q 135 103 204 -17 q 67 447 67 224 q 135 787 67 669 q 332 904 204 904 q 528 787 460 904 q 597 447 597 669 q 528 103 597 224 q 332 -17 460 -17 m 332 36 q 480 140 425 36 q 535 447 535 243 q 480 751 535 651 q 332 851 425 851 q 185 751 240 851 q 129 447 129 651 q 185 140 129 243 q 332 36 240 36 z "},"1":{"ha":665,"x_min":117,"x_max":581,"o":"m 117 0 l 117 54 l 325 54 l 325 790 l 167 790 l 167 832 q 263 856 221 842 q 338 888 306 869 l 388 888 l 388 54 l 581 54 l 581 0 l 117 0 z "},"2":{"ha":665,"x_min":54,"x_max":601,"o":"m 57 0 l 57 39 q 249 238 167 150 q 385 399 331 326 q 467 534 440 472 q 494 654 494 596 q 448 794 494 738 q 301 851 401 851 q 188 818 240 851 q 94 735 135 785 l 54 774 q 165 867 104 829 q 307 904 225 904 q 492 836 426 904 q 557 656 557 768 q 528 523 557 589 q 446 384 499 457 q 317 228 393 311 q 150 49 242 146 q 224 53 186 51 q 299 56 263 56 l 601 56 l 601 0 l 57 0 z "},"3":{"ha":665,"x_min":40,"x_max":593,"o":"m 322 -17 q 226 -6 269 -17 q 149 24 183 6 q 88 64 115 42 q 40 108 61 86 l 76 151 q 119 109 96 129 q 173 73 143 89 q 240 47 203 57 q 322 38 276 38 q 405 51 367 38 q 471 91 443 65 q 514 153 499 117 q 529 233 529 189 q 512 317 529 279 q 458 381 494 354 q 362 424 421 408 q 219 439 303 439 l 219 493 q 349 508 296 493 q 435 549 403 524 q 483 610 468 575 q 497 686 497 646 q 449 806 497 761 q 318 851 400 851 q 204 823 256 851 q 114 754 153 794 l 78 796 q 182 872 124 840 q 318 904 240 904 q 414 890 369 904 q 491 848 458 875 q 542 781 524 821 q 561 690 561 742 q 513 549 561 603 q 392 471 465 496 l 392 465 q 469 437 433 457 q 533 388 506 417 q 577 320 561 358 q 593 235 593 282 q 572 130 593 176 q 515 51 551 83 q 428 1 478 18 q 322 -17 379 -17 z "},"4":{"ha":665,"x_min":22,"x_max":622,"o":"m 431 0 l 431 265 l 22 265 l 22 301 l 435 888 l 490 888 l 490 318 l 622 318 l 622 265 l 490 265 l 490 0 l 431 0 m 97 318 l 431 318 l 431 643 q 432 719 431 674 q 436 796 433 765 l 431 796 q 396 742 414 768 q 358 685 378 715 l 97 318 z "},"5":{"ha":665,"x_min":36,"x_max":599,"o":"m 315 -17 q 220 -6 263 -17 q 144 22 178 4 q 83 60 110 39 q 36 103 57 82 l 71 146 q 114 106 90 125 q 167 71 138 86 q 232 47 196 56 q 314 38 268 38 q 399 55 358 38 q 469 103 439 72 q 517 178 499 135 q 535 276 535 222 q 476 445 535 385 q 318 506 418 506 q 230 490 267 506 q 153 446 193 474 l 110 472 l 142 888 l 551 888 l 551 833 l 197 833 l 169 513 q 242 547 204 533 q 328 560 279 560 q 433 543 383 560 q 519 492 483 526 q 577 405 556 458 q 599 279 599 351 q 574 153 599 208 q 510 60 550 99 q 420 3 471 22 q 315 -17 369 -17 z "},"6":{"ha":665,"x_min":72,"x_max":606,"o":"m 363 -17 q 150 92 228 -17 q 72 403 72 200 q 99 638 72 542 q 172 793 126 733 q 276 878 217 853 q 399 904 335 904 q 506 881 461 904 q 586 818 551 857 l 549 776 q 481 831 519 813 q 399 850 442 850 q 298 827 346 850 q 214 753 250 804 q 156 617 178 701 q 135 413 135 533 q 238 503 181 469 q 358 536 296 536 q 541 466 476 536 q 606 261 606 396 q 586 149 606 200 q 533 62 567 99 q 456 4 500 25 q 363 -17 413 -17 m 364 36 q 435 53 403 36 q 492 101 468 71 q 529 173 515 132 q 543 261 543 214 q 532 349 543 308 q 498 420 521 390 q 438 467 475 450 q 351 483 401 483 q 247 453 304 483 q 136 350 190 424 q 156 222 140 279 q 200 123 172 164 q 269 59 228 82 q 364 36 310 36 z "},"7":{"ha":665,"x_min":61,"x_max":607,"o":"m 261 0 q 284 247 267 135 q 333 458 301 358 q 414 648 365 557 q 529 833 463 739 l 61 833 l 61 888 l 607 888 l 607 851 q 476 649 528 746 q 392 451 424 551 q 347 240 361 350 q 328 0 333 131 l 261 0 z "},"8":{"ha":665,"x_min":56,"x_max":607,"o":"m 338 -17 q 225 2 276 -17 q 136 53 174 21 q 77 131 99 86 q 56 228 56 175 q 72 311 56 272 q 113 381 88 350 q 170 437 139 413 q 233 478 201 461 l 233 483 q 185 520 208 500 q 145 566 163 540 q 117 622 128 592 q 106 688 106 651 q 124 775 106 735 q 173 844 142 815 q 247 888 204 872 q 338 904 289 904 q 439 887 394 904 q 515 838 483 869 q 562 765 546 807 q 578 672 578 722 q 565 602 578 636 q 534 539 553 568 q 493 486 515 510 q 451 447 471 463 l 451 442 q 508 403 481 424 q 558 356 536 382 q 593 294 579 329 q 607 215 607 260 q 588 124 607 167 q 533 51 568 82 q 447 1 497 19 q 338 -17 397 -17 m 403 465 q 490 562 460 511 q 519 671 519 613 q 507 741 519 708 q 472 799 494 774 q 415 838 449 824 q 338 853 381 853 q 269 840 300 853 q 215 806 238 828 q 179 754 192 785 q 167 688 167 724 q 187 606 167 640 q 240 547 207 572 q 316 501 274 521 q 403 465 358 482 m 338 35 q 423 49 385 35 q 488 88 461 63 q 530 146 515 113 q 544 217 544 179 q 522 303 544 268 q 460 366 499 339 q 374 413 422 393 q 274 454 325 433 q 161 359 206 414 q 117 231 117 304 q 133 153 117 189 q 179 92 150 118 q 249 50 208 65 q 338 35 289 35 z "},"9":{"ha":665,"x_min":60,"x_max":592,"o":"m 314 404 q 421 436 363 404 q 529 539 479 468 q 509 667 525 610 q 465 766 493 725 q 395 829 436 807 q 300 851 354 851 q 229 834 263 851 q 172 787 196 817 q 135 716 149 757 q 121 628 121 675 q 132 538 121 579 q 167 467 143 497 q 226 421 190 438 q 314 404 263 404 m 265 -17 q 157 7 203 -17 q 78 69 111 31 l 115 111 q 183 56 144 75 q 267 38 222 38 q 367 60 319 38 q 451 135 415 83 q 509 270 488 186 q 531 475 531 354 q 426 386 485 419 q 306 353 368 353 q 124 423 189 353 q 60 628 60 493 q 79 739 60 688 q 132 826 99 790 q 209 883 165 863 q 303 904 253 904 q 514 797 436 904 q 592 486 592 689 q 565 250 592 346 q 493 95 538 154 q 389 10 449 36 q 265 -17 329 -17 z "}," ":{"ha":278,"x_min":0,"x_max":0,"o":""},"A":{"ha":731,"x_min":11,"x_max":719,"o":"m 261 539 l 203 368 l 528 368 l 469 539 q 417 696 442 621 q 368 856 392 771 l 363 856 q 314 696 339 771 q 261 539 289 621 m 11 0 l 333 915 l 397 915 l 719 0 l 653 0 l 546 314 l 183 314 l 75 0 l 11 0 z "},"B":{"ha":803,"x_min":135,"x_max":740,"o":"m 135 0 l 135 915 l 382 915 q 603 862 521 915 q 685 693 685 808 q 649 567 685 621 q 543 493 613 514 l 543 488 q 686 417 632 472 q 740 267 740 363 q 716 150 740 200 q 647 67 692 100 q 540 17 603 33 q 400 0 478 0 l 135 0 m 199 513 l 357 513 q 559 559 497 513 q 621 686 621 606 q 556 823 621 783 q 364 863 490 863 l 199 863 l 199 513 m 199 53 l 383 53 q 599 104 521 53 q 678 265 678 156 q 601 413 678 365 q 383 460 525 460 l 199 460 l 199 53 z "},"C":{"ha":783,"x_min":76,"x_max":732,"o":"m 460 -17 q 304 17 375 -17 q 183 112 233 50 q 104 262 132 174 q 76 460 76 350 q 105 656 76 568 q 185 805 133 743 q 308 899 236 867 q 467 932 379 932 q 608 899 547 932 q 706 822 669 865 l 668 779 q 581 848 631 822 q 468 874 531 874 q 333 844 393 874 q 230 762 272 815 q 165 632 188 708 q 143 460 143 556 q 165 287 143 364 q 229 156 188 210 q 330 72 271 101 q 463 42 389 42 q 589 70 533 42 q 694 154 644 99 l 732 114 q 614 18 679 53 q 460 -17 549 -17 z "},"D":{"ha":839,"x_min":135,"x_max":763,"o":"m 135 0 l 135 915 l 347 915 q 531 883 453 915 q 661 792 610 851 q 738 649 713 732 q 763 461 763 565 q 738 272 763 357 q 661 126 713 186 q 532 33 610 65 q 349 0 454 0 l 135 0 m 199 54 l 340 54 q 501 84 433 54 q 611 168 568 114 q 675 297 654 222 q 696 461 696 371 q 675 624 696 550 q 611 750 654 697 q 501 832 568 803 q 340 861 433 861 l 199 861 l 199 54 z "},"E":{"ha":715,"x_min":135,"x_max":650,"o":"m 135 0 l 135 915 l 636 915 l 636 860 l 199 860 l 199 514 l 565 514 l 565 458 l 199 458 l 199 56 l 650 56 l 650 0 l 135 0 z "},"F":{"ha":663,"x_min":135,"x_max":633,"o":"m 135 0 l 135 915 l 633 915 l 633 860 l 199 860 l 199 496 l 567 496 l 567 440 l 199 440 l 199 0 l 135 0 z "},"G":{"ha":840,"x_min":76,"x_max":740,"o":"m 469 -17 q 308 17 381 -17 q 185 112 236 50 q 105 262 133 174 q 76 460 76 350 q 106 656 76 568 q 188 805 135 743 q 315 899 240 867 q 481 932 390 932 q 565 922 526 932 q 633 897 603 913 q 688 861 664 881 q 731 822 713 842 l 693 779 q 607 846 657 818 q 482 874 557 874 q 340 844 403 874 q 234 762 278 815 q 167 632 190 708 q 143 460 143 556 q 165 287 143 364 q 230 156 188 210 q 334 72 272 101 q 474 42 396 42 q 591 60 536 42 q 679 111 646 78 l 679 396 l 460 396 l 460 450 l 740 450 l 740 88 q 628 13 697 42 q 469 -17 560 -17 z "},"H":{"ha":888,"x_min":135,"x_max":753,"o":"m 135 0 l 135 915 l 199 915 l 199 514 l 689 514 l 689 915 l 753 915 l 753 0 l 689 0 l 689 458 l 199 458 l 199 0 l 135 0 z "},"I":{"ha":333,"x_min":135,"x_max":199,"o":"m 135 0 l 135 915 l 199 915 l 199 0 l 135 0 z "},"J":{"ha":642,"x_min":57,"x_max":510,"o":"m 282 -17 q 149 18 206 -17 q 57 118 92 53 l 106 150 q 181 67 139 92 q 282 42 224 42 q 406 92 365 42 q 446 256 446 143 l 446 915 l 510 915 l 510 249 q 497 145 510 193 q 458 61 485 97 q 388 4 431 25 q 282 -17 344 -17 z "},"K":{"ha":775,"x_min":135,"x_max":761,"o":"m 135 0 l 135 915 l 199 915 l 199 407 l 201 407 l 644 915 l 721 915 l 429 576 l 761 0 l 688 0 l 385 528 l 199 315 l 199 0 l 135 0 z "},"L":{"ha":649,"x_min":135,"x_max":621,"o":"m 135 0 l 135 915 l 199 915 l 199 56 l 621 56 l 621 0 l 135 0 z "},"M":{"ha":981,"x_min":135,"x_max":846,"o":"m 135 0 l 135 915 l 225 915 l 417 378 q 453 277 435 328 q 489 175 471 226 l 494 175 q 529 277 513 226 q 564 378 546 328 l 754 915 l 846 915 l 846 0 l 783 0 l 783 601 q 786 724 783 658 q 792 849 789 790 l 786 849 l 715 644 l 518 100 l 463 100 l 264 644 l 192 849 l 186 849 q 192 724 189 790 q 194 601 194 658 l 194 0 l 135 0 z "},"N":{"ha":883,"x_min":135,"x_max":749,"o":"m 135 0 l 135 915 l 201 915 l 588 269 l 690 88 l 696 88 q 690 221 693 154 q 688 354 688 288 l 688 915 l 749 915 l 749 0 l 682 0 l 296 646 l 193 828 l 188 828 q 193 698 190 761 q 196 568 196 635 l 196 0 l 135 0 z "},"O":{"ha":906,"x_min":76,"x_max":831,"o":"m 453 -17 q 301 17 371 -17 q 182 114 232 51 q 104 265 132 176 q 76 461 76 353 q 104 656 76 569 q 182 805 132 743 q 301 899 232 867 q 453 932 371 932 q 606 899 536 932 q 725 805 675 867 q 803 656 775 743 q 831 461 831 569 q 803 265 831 353 q 725 114 775 176 q 606 17 675 51 q 453 -17 536 -17 m 453 42 q 579 72 522 42 q 677 156 636 101 q 740 288 718 211 q 763 461 763 365 q 740 632 763 556 q 677 762 718 708 q 579 844 636 815 q 453 874 522 874 q 326 844 383 874 q 228 762 268 815 q 165 632 188 708 q 143 461 143 556 q 165 288 143 365 q 228 156 188 211 q 326 72 268 101 q 453 42 383 42 z "},"P":{"ha":763,"x_min":135,"x_max":697,"o":"m 135 0 l 135 915 l 365 915 q 505 902 443 915 q 609 858 567 889 q 674 779 651 828 q 697 660 697 731 q 611 459 697 525 q 371 393 525 393 l 199 393 l 199 0 l 135 0 m 199 447 l 356 447 q 564 497 496 447 q 632 660 632 547 q 562 818 632 775 q 350 861 492 861 l 199 861 l 199 447 z "},"Q":{"ha":906,"x_min":76,"x_max":833,"o":"m 453 38 q 579 68 522 38 q 677 153 636 99 q 740 287 718 208 q 763 461 763 365 q 740 632 763 556 q 677 762 718 708 q 579 844 636 815 q 453 874 522 874 q 326 844 383 874 q 228 762 268 815 q 165 632 188 708 q 143 461 143 556 q 165 287 143 365 q 228 153 188 208 q 326 68 268 99 q 453 38 383 38 m 721 -217 q 615 -201 663 -217 q 528 -159 567 -186 q 462 -95 490 -132 q 417 -15 433 -58 q 279 28 342 -8 q 172 127 217 65 q 101 274 126 189 q 76 461 76 358 q 104 656 76 569 q 182 805 132 743 q 301 899 232 867 q 453 932 371 932 q 606 899 536 932 q 725 805 675 867 q 803 656 775 743 q 831 461 831 569 q 806 274 831 358 q 735 127 781 189 q 627 28 690 65 q 488 -15 564 -8 q 580 -121 519 -85 q 726 -157 640 -157 q 780 -153 758 -157 q 819 -146 801 -150 l 833 -200 q 785 -211 815 -206 q 721 -217 756 -217 z "},"R":{"ha":756,"x_min":135,"x_max":715,"o":"m 135 0 l 135 915 l 397 915 q 521 902 465 915 q 615 860 576 889 q 676 785 654 831 q 697 674 697 739 q 634 501 697 564 q 463 425 571 439 l 715 0 l 642 0 l 393 421 l 199 421 l 199 0 l 135 0 m 199 474 l 381 474 q 567 523 503 474 q 632 674 632 572 q 567 819 632 776 q 381 861 501 861 l 199 861 l 199 474 z "},"S":{"ha":724,"x_min":64,"x_max":667,"o":"m 374 -17 q 196 22 274 -17 q 64 121 118 60 l 106 165 q 225 75 156 108 q 374 42 294 42 q 540 92 479 42 q 601 225 601 143 q 588 298 601 268 q 553 349 575 328 q 501 386 531 371 q 438 417 471 401 l 299 479 q 236 510 269 492 q 176 555 203 528 q 131 619 149 582 q 113 707 113 656 q 133 798 113 757 q 188 869 153 839 q 273 915 224 899 q 379 932 322 932 q 527 899 463 932 q 633 822 592 867 l 597 781 q 503 848 557 822 q 379 874 449 874 q 232 829 288 874 q 176 710 176 785 q 192 642 176 669 q 231 594 207 614 q 282 559 254 574 q 335 533 310 544 l 474 472 q 547 435 513 456 q 608 386 582 414 q 651 320 635 358 q 667 229 667 282 q 646 131 667 176 q 587 53 625 86 q 494 2 549 21 q 374 -17 440 -17 z "},"T":{"ha":728,"x_min":40,"x_max":688,"o":"m 332 0 l 332 860 l 40 860 l 40 915 l 688 915 l 688 860 l 396 860 l 396 0 l 332 0 z "},"U":{"ha":881,"x_min":132,"x_max":749,"o":"m 439 -17 q 325 1 381 -17 q 226 60 269 18 q 158 174 183 103 q 132 351 132 244 l 132 915 l 196 915 l 196 358 q 216 206 196 267 q 269 109 236 146 q 347 57 303 72 q 439 42 390 42 q 534 57 489 42 q 613 109 579 72 q 668 206 647 146 q 689 358 689 267 l 689 915 l 749 915 l 749 351 q 722 174 749 244 q 653 60 696 103 q 554 1 610 18 q 439 -17 499 -17 z "},"V":{"ha":682,"x_min":6,"x_max":676,"o":"m 308 0 l 6 915 l 74 915 l 243 381 q 291 227 269 297 q 340 74 313 157 l 346 74 q 372 153 360 115 q 394 227 383 190 q 417 301 406 264 q 442 381 429 339 l 611 915 l 676 915 l 376 0 l 308 0 z "},"W":{"ha":1069,"x_min":39,"x_max":1028,"o":"m 247 0 l 39 915 l 106 915 l 221 376 q 252 227 236 301 q 283 78 268 153 l 289 78 q 323 227 306 153 q 360 376 340 301 l 503 915 l 568 915 l 711 376 q 748 227 731 301 q 785 78 765 153 l 790 78 q 820 227 806 153 q 850 376 835 301 l 965 915 l 1028 915 l 824 0 l 753 0 l 586 628 q 561 731 574 682 q 538 835 549 781 l 532 835 q 507 731 521 781 q 481 628 493 682 l 317 0 l 247 0 z "},"X":{"ha":669,"x_min":24,"x_max":646,"o":"m 24 0 l 299 474 l 43 915 l 113 915 l 263 646 q 298 586 282 614 q 338 521 314 558 l 343 521 q 377 586 363 558 q 411 646 392 614 l 561 915 l 626 915 l 371 471 l 646 0 l 576 0 l 417 281 q 377 350 397 315 q 332 426 357 385 l 326 426 q 286 350 304 385 q 249 281 268 315 l 89 0 l 24 0 z "},"Y":{"ha":621,"x_min":4,"x_max":617,"o":"m 278 0 l 278 371 l 4 915 l 72 915 l 211 629 q 258 531 235 579 q 308 432 281 482 l 314 432 q 365 531 340 482 q 413 629 390 579 l 551 915 l 617 915 l 342 371 l 342 0 l 278 0 z "},"Z":{"ha":747,"x_min":69,"x_max":681,"o":"m 69 0 l 69 38 l 596 860 l 115 860 l 115 915 l 676 915 l 676 878 l 149 56 l 681 56 l 681 0 l 69 0 z "},"a":{"ha":682,"x_min":81,"x_max":572,"o":"m 274 -17 q 199 -6 233 -17 q 138 28 164 6 q 96 85 111 50 q 81 167 81 119 q 184 335 81 278 q 511 418 288 393 q 506 494 511 456 q 482 562 500 532 q 433 610 464 592 q 353 629 403 629 q 231 603 286 629 q 140 551 175 576 l 113 597 q 156 625 131 610 q 214 653 182 640 q 283 674 246 665 q 361 683 321 683 q 460 663 419 683 q 525 608 500 643 q 561 527 550 574 q 572 426 572 481 l 572 0 l 519 0 l 514 86 l 510 86 q 399 15 458 46 q 274 -17 340 -17 m 285 36 q 396 64 343 36 q 511 144 449 92 l 511 371 q 338 340 408 358 q 224 297 267 322 q 162 240 181 272 q 143 169 143 208 q 154 108 143 133 q 185 67 165 83 q 230 44 204 51 q 285 36 256 36 z "},"b":{"ha":753,"x_min":128,"x_max":683,"o":"m 389 -17 q 288 6 340 -17 q 189 68 236 29 l 186 68 l 179 0 l 128 0 l 128 999 l 189 999 l 189 710 l 186 579 q 296 653 238 622 q 417 683 354 683 q 617 591 550 683 q 683 343 683 499 q 660 192 683 258 q 595 78 636 125 q 501 8 554 32 q 389 -17 447 -17 m 386 38 q 479 60 436 38 q 553 122 522 82 q 601 219 583 163 q 618 343 618 275 q 606 457 618 404 q 569 548 594 510 q 504 608 544 586 q 407 629 464 629 q 303 601 357 629 q 189 519 249 572 l 189 124 q 296 57 244 76 q 386 38 347 38 z "},"c":{"ha":624,"x_min":72,"x_max":588,"o":"m 375 -17 q 255 7 310 -17 q 159 75 200 31 q 95 184 118 119 q 72 332 72 249 q 97 481 72 415 q 164 592 122 547 q 260 660 206 636 q 376 683 315 683 q 492 658 446 683 q 572 601 538 633 l 536 558 q 465 609 504 589 q 378 629 426 629 q 283 608 326 629 q 206 547 239 586 q 155 453 174 507 q 136 332 136 399 q 153 213 136 267 q 202 119 171 158 q 278 59 233 81 q 378 38 324 38 q 476 60 431 38 q 556 114 521 82 l 588 71 q 492 8 544 33 q 375 -17 439 -17 z "},"d":{"ha":756,"x_min":72,"x_max":628,"o":"m 349 -17 q 147 73 222 -17 q 72 332 72 163 q 96 478 72 413 q 160 589 119 543 q 255 659 201 635 q 368 683 308 683 q 474 662 429 683 q 569 601 519 640 l 567 724 l 567 999 l 628 999 l 628 0 l 575 0 l 569 86 l 565 86 q 470 15 525 46 q 349 -17 415 -17 m 357 38 q 463 66 413 38 q 567 147 514 94 l 567 543 q 467 610 514 590 q 372 629 421 629 q 279 606 322 629 q 205 544 236 583 q 156 449 174 504 q 138 332 138 394 q 152 211 138 265 q 194 119 167 157 q 263 59 222 81 q 357 38 304 38 z "},"e":{"ha":671,"x_min":72,"x_max":618,"o":"m 381 -17 q 260 7 317 -17 q 163 76 204 31 q 97 185 121 121 q 72 332 72 250 q 97 479 72 414 q 162 590 121 544 q 255 659 203 635 q 363 683 307 683 q 550 603 482 683 q 618 375 618 522 q 618 350 618 363 q 615 325 618 338 l 135 325 q 154 209 136 263 q 205 117 172 156 q 283 58 238 79 q 386 36 329 36 q 484 52 440 36 q 565 96 528 68 l 590 49 q 502 4 550 25 q 381 -17 454 -17 m 135 375 l 560 375 q 507 567 560 504 q 364 631 454 631 q 282 613 321 631 q 212 563 243 596 q 160 482 181 529 q 135 375 140 435 z "},"f":{"ha":365,"x_min":46,"x_max":400,"o":"m 138 0 l 138 614 l 46 614 l 46 661 l 138 667 l 138 815 q 181 965 138 915 q 303 1015 224 1015 q 400 993 351 1015 l 383 943 q 342 958 363 954 q 303 963 322 963 q 224 924 250 963 q 199 811 199 885 l 199 667 l 353 667 l 353 614 l 199 614 l 199 0 l 138 0 z "},"g":{"ha":676,"x_min":72,"x_max":661,"o":"m 346 -321 q 146 -271 219 -321 q 72 -136 72 -221 q 99 -50 72 -92 q 171 25 125 -8 l 171 31 q 129 72 146 46 q 113 138 113 99 q 138 213 113 182 q 185 260 163 244 l 185 265 q 127 340 153 293 q 101 449 101 388 q 119 543 101 500 q 169 617 138 586 q 244 666 201 649 q 336 683 288 683 q 386 678 364 683 q 424 667 408 674 l 650 667 l 650 615 l 494 615 q 547 544 526 588 q 568 447 568 500 q 550 353 568 396 q 501 278 532 310 q 427 230 469 247 q 336 213 385 213 q 278 219 308 213 q 225 240 249 226 q 187 200 203 222 q 171 144 171 178 q 197 83 171 108 q 299 57 224 57 l 442 57 q 608 20 554 57 q 661 -96 661 -17 q 639 -180 661 -139 q 576 -252 617 -221 q 476 -302 535 -283 q 346 -321 418 -321 m 336 261 q 402 274 371 261 q 457 313 433 288 q 494 372 481 338 q 508 449 508 407 q 494 525 508 490 q 458 583 481 560 q 403 620 435 607 q 336 633 371 633 q 269 620 300 633 q 214 583 238 607 q 176 526 190 560 q 163 449 163 492 q 176 372 163 407 q 215 313 190 338 q 270 274 239 288 q 336 261 301 261 m 353 -271 q 454 -256 408 -271 q 532 -218 500 -242 q 581 -165 564 -194 q 599 -103 599 -135 q 559 -24 599 -47 q 444 -1 519 -1 l 301 -1 q 267 1 290 -1 q 218 10 244 3 q 151 -58 172 -22 q 131 -131 131 -94 q 188 -232 131 -193 q 353 -271 246 -271 z "},"h":{"ha":733,"x_min":128,"x_max":621,"o":"m 128 0 l 128 999 l 189 999 l 189 563 q 296 649 242 615 q 419 683 350 683 q 572 621 524 683 q 621 428 621 558 l 621 0 l 560 0 l 560 419 q 524 577 560 526 q 407 628 489 628 q 299 597 347 628 q 189 503 250 565 l 189 0 l 128 0 z "},"i":{"ha":318,"x_min":104,"x_max":215,"o":"m 128 0 l 128 667 l 189 667 l 189 0 l 128 0 m 160 828 q 120 843 136 828 q 104 882 104 858 q 120 923 104 908 q 160 938 136 938 q 199 923 183 938 q 215 882 215 908 q 199 843 215 858 q 160 828 183 828 z "},"j":{"ha":318,"x_min":-46,"x_max":217,"o":"m 40 -318 q -7 -313 17 -318 q -46 -301 -31 -308 l -31 -251 q 1 -260 -18 -256 q 39 -265 19 -265 q 111 -224 94 -265 q 128 -119 128 -183 l 128 667 l 190 667 l 190 -124 q 154 -270 190 -222 q 40 -318 118 -318 m 160 828 q 121 843 138 828 q 104 882 104 858 q 121 923 104 908 q 160 938 138 938 q 200 923 183 938 q 217 882 217 908 q 200 843 217 858 q 160 828 183 828 z "},"k":{"ha":644,"x_min":128,"x_max":628,"o":"m 128 0 l 128 999 l 189 999 l 189 263 l 192 263 l 521 667 l 592 667 l 375 403 l 628 0 l 560 0 l 339 357 l 189 182 l 189 0 l 128 0 z "},"l":{"ha":329,"x_min":128,"x_max":254,"o":"m 210 -17 q 128 89 128 -17 l 128 999 l 189 999 l 189 81 q 197 48 189 58 q 218 38 206 38 q 227 38 222 38 q 243 40 232 38 l 254 -10 q 235 -15 244 -12 q 210 -17 225 -17 z "},"m":{"ha":1128,"x_min":128,"x_max":1011,"o":"m 128 0 l 128 667 l 181 667 l 186 564 l 190 564 q 290 649 235 615 q 400 683 344 683 q 524 647 481 683 q 585 547 567 610 q 698 647 643 610 q 811 683 753 683 q 1011 428 1011 683 l 1011 0 l 949 0 l 949 419 q 913 577 949 526 q 800 628 876 628 q 600 503 710 628 l 600 0 l 539 0 l 539 419 q 503 577 539 526 q 389 628 467 628 q 189 503 299 628 l 189 0 l 128 0 z "},"n":{"ha":739,"x_min":128,"x_max":621,"o":"m 128 0 l 128 667 l 181 667 l 186 564 l 190 564 q 296 649 242 615 q 419 683 350 683 q 572 621 524 683 q 621 428 621 558 l 621 0 l 560 0 l 560 419 q 524 577 560 526 q 407 628 489 628 q 299 597 347 628 q 189 503 250 565 l 189 0 l 128 0 z "},"o":{"ha":743,"x_min":72,"x_max":671,"o":"m 371 -17 q 257 7 311 -17 q 162 75 203 31 q 97 184 121 119 q 72 332 72 249 q 97 481 72 415 q 162 592 121 547 q 257 660 203 636 q 371 683 311 683 q 485 660 431 683 q 581 592 540 636 q 647 481 622 547 q 671 332 671 415 q 647 184 671 249 q 581 75 622 119 q 485 7 540 31 q 371 -17 431 -17 m 371 38 q 465 59 421 38 q 540 119 508 81 q 589 213 571 158 q 607 332 607 267 q 589 453 607 399 q 540 547 571 507 q 465 608 508 586 q 371 629 421 629 q 278 608 321 629 q 203 547 235 586 q 154 453 172 507 q 136 332 136 399 q 154 213 136 267 q 203 119 172 158 q 278 59 235 81 q 371 38 321 38 z "},"p":{"ha":756,"x_min":128,"x_max":683,"o":"m 128 -301 l 128 667 l 181 667 l 186 583 l 190 583 q 297 653 239 622 q 417 683 354 683 q 617 591 550 683 q 683 343 683 499 q 660 192 683 258 q 595 78 636 125 q 501 8 554 32 q 389 -17 447 -17 q 292 5 342 -17 q 189 65 242 26 l 189 -301 l 128 -301 m 386 38 q 479 60 436 38 q 553 122 522 82 q 601 219 583 163 q 618 343 618 275 q 606 457 618 404 q 569 548 594 510 q 504 608 544 586 q 407 629 464 629 q 303 601 357 629 q 189 519 250 572 l 189 124 q 297 57 247 76 q 386 38 347 38 z "},"q":{"ha":756,"x_min":72,"x_max":628,"o":"m 567 -301 l 567 -44 l 569 88 q 470 14 525 44 q 349 -17 415 -17 q 147 73 222 -17 q 72 332 72 163 q 96 478 72 413 q 160 589 119 543 q 255 659 201 635 q 368 683 308 683 q 474 663 429 683 q 567 606 519 642 l 569 606 l 576 667 l 628 667 l 628 -301 l 567 -301 m 357 38 q 463 66 413 38 q 567 147 514 94 l 567 543 q 467 610 514 590 q 372 629 421 629 q 279 606 322 629 q 205 544 236 583 q 156 449 174 504 q 138 332 138 394 q 152 211 138 265 q 194 119 167 157 q 263 59 222 81 q 357 38 304 38 z "},"r":{"ha":440,"x_min":128,"x_max":446,"o":"m 128 0 l 128 667 l 181 667 l 186 543 l 190 543 q 272 644 224 606 q 379 683 319 683 q 414 681 399 683 q 446 669 429 678 l 432 614 q 403 623 415 621 q 371 625 390 625 q 277 587 326 625 q 189 454 228 549 l 189 0 l 128 0 z "},"s":{"ha":563,"x_min":44,"x_max":514,"o":"m 289 -17 q 151 10 214 -17 q 44 75 89 38 l 81 121 q 172 60 124 85 q 293 36 221 36 q 412 76 372 36 q 451 168 451 115 q 437 222 451 199 q 399 263 422 246 q 347 292 375 279 q 289 315 318 304 q 213 344 251 329 q 144 381 175 360 q 95 433 114 403 q 76 506 76 463 q 90 574 76 542 q 132 631 104 607 q 199 669 160 656 q 292 683 239 683 q 395 664 344 683 q 482 614 446 644 l 449 571 q 378 613 415 596 q 289 631 340 631 q 222 620 250 631 q 176 593 194 610 q 148 554 157 576 q 139 510 139 532 q 152 460 139 481 q 188 425 165 440 q 238 398 210 410 q 296 375 267 386 q 374 344 335 360 q 444 307 413 329 q 494 252 475 285 q 514 171 514 219 q 499 99 514 133 q 456 40 485 65 q 385 -1 426 14 q 289 -17 343 -17 z "},"t":{"ha":433,"x_min":39,"x_max":418,"o":"m 310 -17 q 229 -2 261 -17 q 178 39 197 13 q 151 103 158 65 q 143 185 143 140 l 143 614 l 39 614 l 39 661 l 144 667 l 153 860 l 206 860 l 206 667 l 399 667 l 399 614 l 206 614 l 206 179 q 210 122 206 147 q 228 77 215 96 q 262 48 240 58 q 318 38 283 38 q 360 44 338 38 q 401 58 383 50 l 418 8 q 360 -10 389 -3 q 310 -17 331 -17 z "},"u":{"ha":735,"x_min":118,"x_max":607,"o":"m 319 -17 q 167 46 215 -17 q 118 239 118 108 l 118 667 l 179 667 l 179 247 q 215 90 179 140 q 331 39 250 39 q 439 72 390 39 q 546 175 488 104 l 546 667 l 607 667 l 607 0 l 556 0 l 549 111 l 546 111 q 443 18 497 53 q 319 -17 389 -17 z "},"v":{"ha":603,"x_min":17,"x_max":586,"o":"m 267 0 l 17 667 l 83 667 l 233 249 q 267 151 249 200 q 300 57 285 103 l 306 57 q 340 151 322 103 q 374 249 357 200 l 524 667 l 586 667 l 339 0 l 267 0 z "},"w":{"ha":951,"x_min":33,"x_max":918,"o":"m 231 0 l 33 667 l 100 667 l 219 235 q 243 145 232 189 q 265 57 254 101 l 271 57 q 294 145 282 101 q 319 235 307 189 l 440 667 l 514 667 l 635 235 q 660 145 647 189 q 685 57 672 101 l 690 57 q 714 145 701 101 q 738 235 726 189 l 856 667 l 918 667 l 726 0 l 646 0 l 529 414 q 503 509 514 463 q 478 604 493 556 l 472 604 q 448 508 461 556 q 419 411 435 460 l 304 0 l 231 0 z "},"x":{"ha":565,"x_min":19,"x_max":546,"o":"m 19 0 l 246 349 l 38 667 l 106 667 l 214 497 q 248 442 231 469 q 285 388 265 415 l 290 388 q 324 442 308 415 q 358 497 340 469 l 463 667 l 526 667 l 319 343 l 546 0 l 478 0 l 360 182 q 321 244 340 214 q 281 304 301 275 l 275 304 q 237 244 256 275 q 199 182 218 214 l 85 0 l 19 0 z "},"y":{"ha":606,"x_min":17,"x_max":589,"o":"m 101 -304 q 33 -290 64 -304 l 47 -236 q 72 -244 58 -240 q 101 -247 86 -247 q 206 -197 164 -247 q 272 -71 247 -147 l 290 -12 l 17 667 l 83 667 l 244 247 q 278 156 260 206 q 317 61 297 106 l 322 61 q 353 156 338 106 q 383 247 369 206 l 526 667 l 589 667 l 325 -83 q 291 -165 311 -125 q 244 -236 271 -206 q 181 -285 217 -267 q 101 -304 146 -304 z "},"z":{"ha":561,"x_min":38,"x_max":525,"o":"m 38 0 l 38 33 l 432 614 l 81 614 l 81 667 l 511 667 l 511 635 l 118 54 l 525 54 l 525 0 l 38 0 z "},"À":{"ha":731,"x_min":11,"x_max":719,"o":"m 261 539 l 203 368 l 528 368 l 469 539 q 417 696 442 621 q 368 856 392 771 l 363 856 q 314 696 339 771 q 261 539 289 621 m 11 0 l 333 915 l 397 915 l 719 0 l 653 0 l 546 314 l 183 314 l 75 0 l 11 0 m 394 981 l 210 1138 l 249 1183 l 422 1013 l 394 981 z "},"Á":{"ha":731,"x_min":11,"x_max":719,"o":"m 261 539 l 203 368 l 528 368 l 469 539 q 417 696 442 621 q 368 856 392 771 l 363 856 q 314 696 339 771 q 261 539 289 621 m 11 0 l 333 915 l 397 915 l 719 0 l 653 0 l 546 314 l 183 314 l 75 0 l 11 0 m 336 981 l 308 1013 l 482 1183 l 521 1138 l 336 981 z "},"Â":{"ha":731,"x_min":11,"x_max":719,"o":"m 261 539 l 203 368 l 528 368 l 469 539 q 417 696 442 621 q 368 856 392 771 l 363 856 q 314 696 339 771 q 261 539 289 621 m 11 0 l 333 915 l 397 915 l 719 0 l 653 0 l 546 314 l 183 314 l 75 0 l 11 0 m 178 1008 l 335 1165 l 396 1165 l 553 1008 l 525 982 l 368 1118 l 363 1118 l 206 982 l 178 1008 z "},"Ã":{"ha":731,"x_min":11,"x_max":719,"o":"m 261 539 l 203 368 l 528 368 l 469 539 q 417 696 442 621 q 368 856 392 771 l 363 856 q 314 696 339 771 q 261 539 289 621 m 11 0 l 333 915 l 397 915 l 719 0 l 653 0 l 546 314 l 183 314 l 75 0 l 11 0 m 472 997 q 404 1015 432 997 q 353 1052 376 1032 q 309 1090 331 1072 q 258 1107 288 1107 q 207 1078 228 1107 q 182 1001 186 1050 l 136 1006 q 170 1115 139 1071 q 258 1158 201 1158 q 326 1141 299 1158 q 377 1103 354 1124 q 422 1066 400 1083 q 472 1049 443 1049 q 522 1078 503 1049 q 549 1156 542 1107 l 594 1151 q 560 1042 592 1086 q 472 997 529 997 z "},"Ä":{"ha":731,"x_min":11,"x_max":719,"o":"m 261 539 l 203 368 l 528 368 l 469 539 q 417 696 442 621 q 368 856 392 771 l 363 856 q 314 696 339 771 q 261 539 289 621 m 11 0 l 333 915 l 397 915 l 719 0 l 653 0 l 546 314 l 183 314 l 75 0 l 11 0 m 229 1007 q 193 1020 207 1007 q 179 1057 179 1033 q 193 1094 179 1081 q 229 1108 207 1108 q 266 1094 251 1108 q 281 1057 281 1081 q 266 1020 281 1033 q 229 1007 251 1007 m 501 1007 q 465 1020 479 1007 q 450 1057 450 1033 q 465 1094 450 1081 q 501 1108 479 1108 q 538 1094 524 1108 q 551 1057 551 1081 q 538 1020 551 1033 q 501 1007 524 1007 z "},"Ā":{"ha":731,"x_min":11,"x_max":719,"o":"m 261 539 l 203 368 l 528 368 l 469 539 q 417 696 442 621 q 368 856 392 771 l 363 856 q 314 696 339 771 q 261 539 289 621 m 11 0 l 333 915 l 397 915 l 719 0 l 653 0 l 546 314 l 183 314 l 75 0 l 11 0 m 193 1032 l 193 1082 l 538 1082 l 538 1032 l 193 1032 z "},"Ă":{"ha":731,"x_min":11,"x_max":719,"o":"m 261 539 l 203 368 l 528 368 l 469 539 q 417 696 442 621 q 368 856 392 771 l 363 856 q 314 696 339 771 q 261 539 289 621 m 11 0 l 333 915 l 397 915 l 719 0 l 653 0 l 546 314 l 183 314 l 75 0 l 11 0 m 365 986 q 285 1001 319 986 q 228 1042 251 1017 q 193 1097 206 1067 q 176 1158 181 1128 l 222 1165 q 236 1115 226 1139 q 264 1073 246 1092 q 307 1043 282 1054 q 365 1032 332 1032 q 424 1043 399 1032 q 467 1073 449 1054 q 494 1115 485 1092 q 508 1165 504 1139 l 554 1158 q 538 1097 550 1128 q 502 1042 525 1067 q 445 1001 479 1017 q 365 986 411 986 z "},"Å":{"ha":731,"x_min":11,"x_max":719,"o":"m 261 539 l 203 368 l 528 368 l 469 539 q 417 696 442 621 q 368 856 392 771 l 363 856 q 314 696 339 771 q 261 539 289 621 m 11 0 l 333 915 l 397 915 l 719 0 l 653 0 l 546 314 l 183 314 l 75 0 l 11 0 m 365 972 q 278 1005 313 972 q 243 1090 243 1038 q 278 1178 243 1146 q 365 1210 313 1210 q 451 1178 415 1210 q 488 1090 488 1146 q 451 1005 488 1038 q 365 972 415 972 m 365 1008 q 420 1029 397 1008 q 443 1090 443 1050 q 420 1152 443 1131 q 365 1174 397 1174 q 308 1152 332 1174 q 285 1090 285 1131 q 308 1029 285 1050 q 365 1008 332 1008 z "},"Ǎ":{"ha":731,"x_min":11,"x_max":719,"o":"m 261 539 l 203 368 l 528 368 l 469 539 q 417 696 442 621 q 368 856 392 771 l 363 856 q 314 696 339 771 q 261 539 289 621 m 11 0 l 333 915 l 397 915 l 719 0 l 653 0 l 546 314 l 183 314 l 75 0 l 11 0 m 335 985 l 178 1143 l 206 1168 l 363 1032 l 368 1032 l 525 1168 l 553 1143 l 396 985 l 335 985 z "},"Ạ":{"ha":731,"x_min":11,"x_max":719,"o":"m 261 539 l 203 368 l 528 368 l 469 539 q 417 696 442 621 q 368 856 392 771 l 363 856 q 314 696 339 771 q 261 539 289 621 m 11 0 l 333 915 l 397 915 l 719 0 l 653 0 l 546 314 l 183 314 l 75 0 l 11 0 m 365 -269 q 327 -254 342 -269 q 313 -212 313 -239 q 327 -174 313 -189 q 365 -158 342 -158 q 403 -174 389 -158 q 418 -212 418 -189 q 403 -254 418 -239 q 365 -269 389 -269 z "},"Ả":{"ha":731,"x_min":11,"x_max":719,"o":"m 261 539 l 203 368 l 528 368 l 469 539 q 417 696 442 621 q 368 856 392 771 l 363 856 q 314 696 339 771 q 261 539 289 621 m 11 0 l 333 915 l 397 915 l 719 0 l 653 0 l 546 314 l 183 314 l 75 0 l 11 0 m 331 975 l 319 1013 q 382 1041 357 1024 q 407 1088 407 1058 q 289 1154 407 1150 l 294 1199 q 360 1191 329 1197 q 413 1172 390 1185 q 449 1141 436 1160 q 463 1096 463 1122 q 451 1049 463 1068 q 422 1015 440 1029 q 379 992 403 1001 q 331 975 356 982 z "},"Ấ":{"ha":731,"x_min":11,"x_max":719,"o":"m 261 539 l 203 368 l 528 368 l 469 539 q 417 696 442 621 q 368 856 392 771 l 363 856 q 314 696 339 771 q 261 539 289 621 m 11 0 l 333 915 l 397 915 l 719 0 l 653 0 l 546 314 l 183 314 l 75 0 l 11 0 m 232 982 l 206 1008 l 338 1125 l 393 1125 l 525 1008 l 499 982 l 368 1076 l 363 1076 l 232 982 m 508 1063 l 479 1093 l 610 1228 l 647 1190 l 508 1063 z "},"Ầ":{"ha":731,"x_min":11,"x_max":719,"o":"m 261 539 l 203 368 l 528 368 l 469 539 q 417 696 442 621 q 368 856 392 771 l 363 856 q 314 696 339 771 q 261 539 289 621 m 11 0 l 333 915 l 397 915 l 719 0 l 653 0 l 546 314 l 183 314 l 75 0 l 11 0 m 232 982 l 206 1008 l 338 1125 l 393 1125 l 525 1008 l 499 982 l 368 1076 l 363 1076 l 232 982 m 251 1088 l 222 1063 l 108 1196 l 146 1228 l 251 1088 z "},"Ẩ":{"ha":731,"x_min":11,"x_max":719,"o":"m 261 539 l 203 368 l 528 368 l 469 539 q 417 696 442 621 q 368 856 392 771 l 363 856 q 314 696 339 771 q 261 539 289 621 m 11 0 l 333 915 l 397 915 l 719 0 l 653 0 l 546 314 l 183 314 l 75 0 l 11 0 m 232 982 l 206 1008 l 338 1125 l 393 1125 l 525 1008 l 499 982 l 368 1076 l 363 1076 l 232 982 m 507 1051 l 493 1089 q 543 1110 522 1096 q 564 1147 564 1124 q 538 1191 564 1179 q 463 1206 513 1203 l 469 1249 q 574 1224 532 1246 q 617 1154 617 1203 q 607 1113 617 1131 q 581 1083 597 1096 q 546 1063 565 1071 q 507 1051 526 1056 z "},"Ẫ":{"ha":731,"x_min":11,"x_max":719,"o":"m 261 539 l 203 368 l 528 368 l 469 539 q 417 696 442 621 q 368 856 392 771 l 363 856 q 314 696 339 771 q 261 539 289 621 m 11 0 l 333 915 l 397 915 l 719 0 l 653 0 l 546 314 l 183 314 l 75 0 l 11 0 m 232 982 l 206 1008 l 338 1124 l 393 1124 l 525 1008 l 499 982 l 368 1075 l 363 1075 l 232 982 m 171 1174 q 177 1213 172 1193 q 193 1248 182 1232 q 223 1274 204 1264 q 269 1285 242 1285 q 329 1273 304 1285 q 375 1248 354 1261 q 416 1223 396 1235 q 461 1211 436 1211 q 501 1231 489 1211 q 518 1282 514 1250 l 560 1278 q 553 1239 558 1258 q 538 1203 549 1219 q 508 1177 526 1188 q 461 1167 489 1167 q 401 1178 425 1167 q 356 1203 376 1190 q 315 1228 335 1217 q 269 1240 294 1240 q 229 1221 242 1240 q 213 1169 217 1201 l 171 1174 z "},"Ậ":{"ha":731,"x_min":11,"x_max":719,"o":"m 261 539 l 203 368 l 528 368 l 469 539 q 417 696 442 621 q 368 856 392 771 l 363 856 q 314 696 339 771 q 261 539 289 621 m 11 0 l 333 915 l 397 915 l 719 0 l 653 0 l 546 314 l 183 314 l 75 0 l 11 0 m 178 1008 l 335 1165 l 396 1165 l 553 1008 l 525 982 l 368 1118 l 363 1118 l 206 982 l 178 1008 m 365 -269 q 327 -254 342 -269 q 313 -212 313 -239 q 327 -174 313 -189 q 365 -158 342 -158 q 403 -174 389 -158 q 418 -212 418 -189 q 403 -254 418 -239 q 365 -269 389 -269 z "},"Ắ":{"ha":731,"x_min":11,"x_max":719,"o":"m 261 539 l 203 368 l 528 368 l 469 539 q 417 696 442 621 q 368 856 392 771 l 363 856 q 314 696 339 771 q 261 539 289 621 m 11 0 l 333 915 l 397 915 l 719 0 l 653 0 l 546 314 l 183 314 l 75 0 l 11 0 m 326 1139 l 457 1285 l 500 1250 l 358 1114 l 326 1139 m 365 986 q 285 1001 319 986 q 228 1042 251 1017 q 193 1097 206 1067 q 176 1158 181 1128 l 221 1165 q 235 1115 225 1139 q 263 1072 244 1090 q 306 1042 281 1053 q 365 1031 332 1031 q 424 1042 399 1031 q 467 1072 450 1053 q 495 1115 485 1090 q 510 1165 506 1139 l 554 1158 q 538 1097 550 1128 q 502 1042 525 1067 q 445 1001 479 1017 q 365 986 411 986 z "},"Ằ":{"ha":731,"x_min":11,"x_max":719,"o":"m 261 539 l 203 368 l 528 368 l 469 539 q 417 696 442 621 q 368 856 392 771 l 363 856 q 314 696 339 771 q 261 539 289 621 m 11 0 l 333 915 l 397 915 l 719 0 l 653 0 l 546 314 l 183 314 l 75 0 l 11 0 m 404 1139 l 372 1114 l 231 1250 l 274 1285 l 404 1139 m 365 986 q 285 1001 319 986 q 228 1042 251 1017 q 193 1097 206 1067 q 176 1158 181 1128 l 221 1165 q 235 1115 225 1139 q 263 1072 244 1090 q 306 1042 281 1053 q 365 1031 332 1031 q 424 1042 399 1031 q 467 1072 450 1053 q 495 1115 485 1090 q 510 1165 506 1139 l 554 1158 q 538 1097 550 1128 q 502 1042 525 1067 q 445 1001 479 1017 q 365 986 411 986 z "},"Ẳ":{"ha":731,"x_min":11,"x_max":719,"o":"m 261 539 l 203 368 l 528 368 l 469 539 q 417 696 442 621 q 368 856 392 771 l 363 856 q 314 696 339 771 q 261 539 289 621 m 11 0 l 333 915 l 397 915 l 719 0 l 653 0 l 546 314 l 183 314 l 75 0 l 11 0 m 342 1107 l 328 1144 q 378 1166 357 1153 q 399 1203 399 1179 q 373 1247 399 1235 q 297 1263 347 1260 l 304 1304 q 409 1281 367 1301 q 451 1210 451 1260 q 442 1169 451 1186 q 416 1140 432 1151 q 381 1120 400 1128 q 342 1107 361 1113 m 365 986 q 285 1001 319 986 q 228 1042 251 1017 q 193 1097 206 1067 q 176 1158 181 1128 l 221 1165 q 235 1115 225 1139 q 263 1072 244 1090 q 306 1042 281 1053 q 365 1031 332 1031 q 424 1042 399 1031 q 467 1072 450 1053 q 495 1115 485 1090 q 510 1165 506 1139 l 554 1158 q 538 1097 550 1128 q 502 1042 525 1067 q 445 1001 479 1017 q 365 986 411 986 z "},"Ẵ":{"ha":731,"x_min":11,"x_max":719,"o":"m 261 539 l 203 368 l 528 368 l 469 539 q 417 696 442 621 q 368 856 392 771 l 363 856 q 314 696 339 771 q 261 539 289 621 m 11 0 l 333 915 l 397 915 l 719 0 l 653 0 l 546 314 l 183 314 l 75 0 l 11 0 m 365 988 q 285 1000 319 988 q 228 1033 251 1013 q 193 1080 206 1054 q 178 1131 181 1106 l 221 1138 q 262 1063 228 1096 q 365 1031 296 1031 q 469 1063 435 1031 q 510 1138 503 1096 l 553 1131 q 538 1080 550 1106 q 502 1033 525 1054 q 445 1000 479 1013 q 365 988 411 988 m 171 1175 q 177 1214 172 1194 q 193 1249 182 1233 q 223 1276 204 1265 q 269 1286 242 1286 q 329 1274 304 1286 q 375 1249 354 1263 q 416 1224 396 1236 q 461 1213 436 1213 q 501 1232 489 1213 q 518 1283 514 1251 l 560 1279 q 553 1240 558 1260 q 538 1205 549 1221 q 508 1178 526 1189 q 461 1168 489 1168 q 401 1180 425 1168 q 356 1205 376 1192 q 315 1230 335 1218 q 269 1242 294 1242 q 229 1222 242 1242 q 213 1171 217 1203 l 171 1175 z "},"Ặ":{"ha":731,"x_min":11,"x_max":719,"o":"m 261 539 l 203 368 l 528 368 l 469 539 q 417 696 442 621 q 368 856 392 771 l 363 856 q 314 696 339 771 q 261 539 289 621 m 11 0 l 333 915 l 397 915 l 719 0 l 653 0 l 546 314 l 183 314 l 75 0 l 11 0 m 365 986 q 285 1001 319 986 q 228 1042 251 1017 q 193 1097 206 1067 q 176 1158 181 1128 l 222 1165 q 236 1115 226 1139 q 264 1073 246 1092 q 307 1043 282 1054 q 365 1032 332 1032 q 424 1043 399 1032 q 467 1073 449 1054 q 494 1115 485 1092 q 508 1165 504 1139 l 554 1158 q 538 1097 550 1128 q 502 1042 525 1067 q 445 1001 479 1017 q 365 986 411 986 m 365 -269 q 327 -254 342 -269 q 313 -212 313 -239 q 327 -174 313 -189 q 365 -158 342 -158 q 403 -174 389 -158 q 418 -212 418 -189 q 403 -254 418 -239 q 365 -269 389 -269 z "},"Ą":{"ha":731,"x_min":11,"x_max":769,"o":"m 679 -285 q 597 -257 631 -285 q 563 -171 563 -229 q 571 -119 563 -144 q 593 -72 579 -94 q 625 -31 607 -50 q 661 0 643 -12 l 653 0 l 546 314 l 183 314 l 75 0 l 11 0 l 333 915 l 397 915 l 719 0 q 647 -73 676 -28 q 617 -161 617 -118 q 638 -215 617 -197 q 688 -233 660 -233 q 747 -214 722 -233 l 769 -251 q 728 -275 754 -265 q 679 -285 703 -285 m 261 539 l 203 368 l 528 368 l 469 539 q 417 696 442 621 q 368 856 392 771 l 363 856 q 314 696 339 771 q 261 539 289 621 z "},"Æ":{"ha":1124,"x_min":29,"x_max":1058,"o":"m 393 539 l 292 354 l 571 354 l 571 860 l 565 860 q 480 702 522 782 q 393 539 438 622 m 29 0 l 536 915 l 1044 915 l 1044 860 l 635 860 l 635 514 l 975 514 l 975 458 l 635 458 l 635 56 l 1058 56 l 1058 0 l 571 0 l 571 301 l 263 301 l 97 0 l 29 0 z "},"Ǽ":{"ha":1124,"x_min":29,"x_max":1058,"o":"m 393 539 l 292 354 l 571 354 l 571 860 l 565 860 q 480 702 522 782 q 393 539 438 622 m 29 0 l 536 915 l 1044 915 l 1044 860 l 635 860 l 635 514 l 975 514 l 975 458 l 635 458 l 635 56 l 1058 56 l 1058 0 l 571 0 l 571 301 l 263 301 l 97 0 l 29 0 m 776 983 l 749 1015 l 922 1186 l 961 1140 l 776 983 z "},"Ǣ":{"ha":1124,"x_min":29,"x_max":1058,"o":"m 393 539 l 292 354 l 571 354 l 571 860 l 565 860 q 480 702 522 782 q 393 539 438 622 m 29 0 l 536 915 l 1044 915 l 1044 860 l 635 860 l 635 514 l 975 514 l 975 458 l 635 458 l 635 56 l 1058 56 l 1058 0 l 571 0 l 571 301 l 263 301 l 97 0 l 29 0 m 633 1035 l 633 1085 l 978 1085 l 978 1035 l 633 1035 z "},"Ƀ":{"ha":817,"x_min":46,"x_max":760,"o":"m 154 0 l 154 247 l 46 247 l 46 289 l 154 293 l 154 915 l 401 915 q 621 861 539 915 q 703 693 703 807 q 663 569 703 622 q 540 496 622 517 l 540 490 q 701 419 642 475 q 760 268 760 364 q 735 151 760 201 q 667 68 711 101 q 560 17 622 35 q 419 0 497 0 l 154 0 m 218 514 l 375 514 q 578 560 517 514 q 640 696 640 606 q 575 824 640 785 q 383 864 510 864 l 218 864 l 218 514 m 218 51 l 403 51 q 618 104 539 51 q 697 268 697 157 q 620 417 697 368 q 403 465 543 465 l 218 465 l 218 293 l 449 293 l 449 247 l 218 247 l 218 51 z "},"Ḇ":{"ha":803,"x_min":135,"x_max":740,"o":"m 135 0 l 135 915 l 382 915 q 603 862 521 915 q 685 693 685 808 q 649 567 685 621 q 543 493 613 514 l 543 488 q 686 417 632 472 q 740 267 740 363 q 716 150 740 200 q 647 67 692 100 q 540 17 603 33 q 400 0 478 0 l 135 0 m 199 513 l 357 513 q 559 559 497 513 q 621 686 621 606 q 556 823 621 783 q 364 863 490 863 l 199 863 l 199 513 m 199 53 l 383 53 q 599 104 521 53 q 678 265 678 156 q 601 413 678 365 q 383 460 525 460 l 199 460 l 199 53 m 233 -221 l 233 -171 l 575 -171 l 575 -221 l 233 -221 z "},"Ç":{"ha":783,"x_min":76,"x_max":732,"o":"m 460 -17 q 304 17 375 -17 q 183 112 233 50 q 104 262 132 174 q 76 460 76 350 q 105 656 76 568 q 185 805 133 743 q 308 899 236 867 q 467 932 379 932 q 608 899 547 932 q 706 822 669 865 l 668 779 q 581 848 631 822 q 468 874 531 874 q 333 844 393 874 q 230 762 272 815 q 165 632 188 708 q 143 460 143 556 q 165 287 143 364 q 229 156 188 210 q 330 72 271 101 q 463 42 389 42 q 589 70 533 42 q 694 154 644 99 l 732 114 q 614 18 679 53 q 460 -17 549 -17 m 364 -304 l 354 -262 q 478 -239 444 -257 q 511 -189 511 -221 q 486 -142 511 -158 q 403 -118 461 -126 l 460 3 l 508 3 l 467 -90 q 538 -123 511 -101 q 565 -186 565 -144 q 514 -269 565 -240 q 364 -304 463 -297 z "},"Ć":{"ha":783,"x_min":76,"x_max":732,"o":"m 460 -17 q 304 17 375 -17 q 183 112 233 50 q 104 262 132 174 q 76 460 76 350 q 105 656 76 568 q 185 805 133 743 q 308 899 236 867 q 467 932 379 932 q 608 899 547 932 q 706 822 669 865 l 668 779 q 581 848 631 822 q 468 874 531 874 q 333 844 393 874 q 230 762 272 815 q 165 632 188 708 q 143 460 143 556 q 165 287 143 364 q 229 156 188 210 q 330 72 271 101 q 463 42 389 42 q 589 70 533 42 q 694 154 644 99 l 732 114 q 614 18 679 53 q 460 -17 549 -17 m 419 981 l 392 1013 l 565 1183 l 604 1138 l 419 981 z "},"Ĉ":{"ha":783,"x_min":76,"x_max":732,"o":"m 460 -17 q 304 17 375 -17 q 183 112 233 50 q 104 262 132 174 q 76 460 76 350 q 105 656 76 568 q 185 805 133 743 q 308 899 236 867 q 467 932 379 932 q 608 899 547 932 q 706 822 669 865 l 668 779 q 581 848 631 822 q 468 874 531 874 q 333 844 393 874 q 230 762 272 815 q 165 632 188 708 q 143 460 143 556 q 165 287 143 364 q 229 156 188 210 q 330 72 271 101 q 463 42 389 42 q 589 70 533 42 q 694 154 644 99 l 732 114 q 614 18 679 53 q 460 -17 549 -17 m 261 1008 l 418 1165 l 479 1165 l 636 1008 l 608 982 l 451 1118 l 446 1118 l 289 982 l 261 1008 z "},"Č":{"ha":783,"x_min":76,"x_max":732,"o":"m 460 -17 q 304 17 375 -17 q 183 112 233 50 q 104 262 132 174 q 76 460 76 350 q 105 656 76 568 q 185 805 133 743 q 308 899 236 867 q 467 932 379 932 q 608 899 547 932 q 706 822 669 865 l 668 779 q 581 848 631 822 q 468 874 531 874 q 333 844 393 874 q 230 762 272 815 q 165 632 188 708 q 143 460 143 556 q 165 287 143 364 q 229 156 188 210 q 330 72 271 101 q 463 42 389 42 q 589 70 533 42 q 694 154 644 99 l 732 114 q 614 18 679 53 q 460 -17 549 -17 m 418 985 l 261 1143 l 289 1168 l 446 1032 l 451 1032 l 608 1168 l 636 1143 l 479 985 l 418 985 z "},"Ċ":{"ha":783,"x_min":76,"x_max":732,"o":"m 460 -17 q 304 17 375 -17 q 183 112 233 50 q 104 262 132 174 q 76 460 76 350 q 105 656 76 568 q 185 805 133 743 q 308 899 236 867 q 467 932 379 932 q 608 899 547 932 q 706 822 669 865 l 668 779 q 581 848 631 822 q 468 874 531 874 q 333 844 393 874 q 230 762 272 815 q 165 632 188 708 q 143 460 143 556 q 165 287 143 364 q 229 156 188 210 q 330 72 271 101 q 463 42 389 42 q 589 70 533 42 q 694 154 644 99 l 732 114 q 614 18 679 53 q 460 -17 549 -17 m 449 1001 q 409 1017 425 1001 q 393 1058 393 1032 q 409 1097 393 1082 q 449 1113 425 1113 q 488 1097 472 1113 q 504 1058 504 1082 q 488 1017 504 1032 q 449 1001 472 1001 z "},"Ď":{"ha":839,"x_min":135,"x_max":763,"o":"m 135 0 l 135 915 l 347 915 q 531 883 453 915 q 661 792 610 851 q 738 649 713 732 q 763 461 763 565 q 738 272 763 357 q 661 126 713 186 q 532 33 610 65 q 349 0 454 0 l 135 0 m 199 54 l 340 54 q 501 84 433 54 q 611 168 568 114 q 675 297 654 222 q 696 461 696 371 q 675 624 696 550 q 611 750 654 697 q 501 832 568 803 q 340 861 433 861 l 199 861 l 199 54 m 389 985 l 232 1143 l 260 1168 l 417 1032 l 422 1032 l 579 1168 l 607 1143 l 450 985 l 389 985 z "},"Ḍ":{"ha":839,"x_min":135,"x_max":763,"o":"m 135 0 l 135 915 l 347 915 q 531 883 453 915 q 661 792 610 851 q 738 649 713 732 q 763 461 763 565 q 738 272 763 357 q 661 126 713 186 q 532 33 610 65 q 349 0 454 0 l 135 0 m 199 54 l 340 54 q 501 84 433 54 q 611 168 568 114 q 675 297 654 222 q 696 461 696 371 q 675 624 696 550 q 611 750 654 697 q 501 832 568 803 q 340 861 433 861 l 199 861 l 199 54 m 417 -269 q 378 -254 393 -269 q 364 -212 364 -239 q 378 -174 364 -189 q 417 -158 393 -158 q 455 -174 440 -158 q 469 -212 469 -189 q 455 -254 469 -239 q 417 -269 440 -269 z "},"Ḏ":{"ha":839,"x_min":135,"x_max":763,"o":"m 135 0 l 135 915 l 347 915 q 531 883 453 915 q 661 792 610 851 q 738 649 713 732 q 763 461 763 565 q 738 272 763 357 q 661 126 713 186 q 532 33 610 65 q 349 0 454 0 l 135 0 m 199 54 l 340 54 q 501 84 433 54 q 611 168 568 114 q 675 297 654 222 q 696 461 696 371 q 675 624 696 550 q 611 750 654 697 q 501 832 568 803 q 340 861 433 861 l 199 861 l 199 54 m 246 -221 l 246 -171 l 588 -171 l 588 -221 l 246 -221 z "},"Đ":{"ha":868,"x_min":51,"x_max":792,"o":"m 51 461 l 51 504 l 164 507 l 164 915 l 376 915 q 560 883 482 915 q 690 792 639 851 q 767 649 742 732 q 792 461 792 565 q 767 272 792 357 q 690 126 742 186 q 561 33 639 65 q 378 0 483 0 l 164 0 l 164 461 l 51 461 m 228 54 l 369 54 q 530 84 463 54 q 640 168 597 114 q 704 297 683 222 q 725 461 725 371 q 704 624 725 550 q 640 750 683 697 q 530 832 597 803 q 369 861 463 861 l 228 861 l 228 507 l 454 507 l 454 461 l 228 461 l 228 54 z "},"È":{"ha":715,"x_min":135,"x_max":650,"o":"m 135 0 l 135 915 l 636 915 l 636 860 l 199 860 l 199 514 l 565 514 l 565 458 l 199 458 l 199 56 l 650 56 l 650 0 l 135 0 m 421 981 l 236 1138 l 275 1183 l 449 1013 l 421 981 z "},"É":{"ha":715,"x_min":135,"x_max":650,"o":"m 135 0 l 135 915 l 636 915 l 636 860 l 199 860 l 199 514 l 565 514 l 565 458 l 199 458 l 199 56 l 650 56 l 650 0 l 135 0 m 363 981 l 335 1013 l 508 1183 l 547 1138 l 363 981 z "},"Ê":{"ha":715,"x_min":135,"x_max":650,"o":"m 135 0 l 135 915 l 636 915 l 636 860 l 199 860 l 199 514 l 565 514 l 565 458 l 199 458 l 199 56 l 650 56 l 650 0 l 135 0 m 204 1008 l 361 1165 l 422 1165 l 579 1008 l 551 982 l 394 1118 l 389 1118 l 232 982 l 204 1008 z "},"Ě":{"ha":715,"x_min":135,"x_max":650,"o":"m 135 0 l 135 915 l 636 915 l 636 860 l 199 860 l 199 514 l 565 514 l 565 458 l 199 458 l 199 56 l 650 56 l 650 0 l 135 0 m 361 985 l 204 1143 l 232 1168 l 389 1032 l 394 1032 l 551 1168 l 579 1143 l 422 985 l 361 985 z "},"Ë":{"ha":715,"x_min":135,"x_max":650,"o":"m 135 0 l 135 915 l 636 915 l 636 860 l 199 860 l 199 514 l 565 514 l 565 458 l 199 458 l 199 56 l 650 56 l 650 0 l 135 0 m 256 1007 q 219 1020 233 1007 q 206 1057 206 1033 q 219 1094 206 1081 q 256 1108 233 1108 q 292 1094 278 1108 q 307 1057 307 1081 q 292 1020 307 1033 q 256 1007 278 1007 m 528 1007 q 491 1020 506 1007 q 476 1057 476 1033 q 491 1094 476 1081 q 528 1108 506 1108 q 564 1094 550 1108 q 578 1057 578 1081 q 564 1020 578 1033 q 528 1007 550 1007 z "},"Ē":{"ha":715,"x_min":135,"x_max":650,"o":"m 135 0 l 135 915 l 636 915 l 636 860 l 199 860 l 199 514 l 565 514 l 565 458 l 199 458 l 199 56 l 650 56 l 650 0 l 135 0 m 219 1032 l 219 1082 l 564 1082 l 564 1032 l 219 1032 z "},"Ĕ":{"ha":715,"x_min":135,"x_max":650,"o":"m 135 0 l 135 915 l 636 915 l 636 860 l 199 860 l 199 514 l 565 514 l 565 458 l 199 458 l 199 56 l 650 56 l 650 0 l 135 0 m 392 986 q 312 1001 346 986 q 255 1042 278 1017 q 219 1097 232 1067 q 203 1158 207 1128 l 249 1165 q 263 1115 253 1139 q 290 1073 272 1092 q 333 1043 308 1054 q 392 1032 358 1032 q 450 1043 425 1032 q 493 1073 475 1054 q 521 1115 511 1092 q 535 1165 531 1139 l 581 1158 q 564 1097 576 1128 q 528 1042 551 1067 q 472 1001 506 1017 q 392 986 438 986 z "},"Ė":{"ha":715,"x_min":135,"x_max":650,"o":"m 135 0 l 135 915 l 636 915 l 636 860 l 199 860 l 199 514 l 565 514 l 565 458 l 199 458 l 199 56 l 650 56 l 650 0 l 135 0 m 392 1001 q 352 1017 368 1001 q 336 1058 336 1032 q 352 1097 336 1082 q 392 1113 368 1113 q 431 1097 415 1113 q 447 1058 447 1082 q 431 1017 447 1032 q 392 1001 415 1001 z "},"Ẹ":{"ha":715,"x_min":135,"x_max":650,"o":"m 135 0 l 135 915 l 636 915 l 636 860 l 199 860 l 199 514 l 565 514 l 565 458 l 199 458 l 199 56 l 650 56 l 650 0 l 135 0 m 411 -269 q 373 -254 388 -269 q 358 -212 358 -239 q 373 -174 358 -189 q 411 -158 388 -158 q 449 -174 435 -158 q 464 -212 464 -189 q 449 -254 464 -239 q 411 -269 435 -269 z "},"Ẻ":{"ha":715,"x_min":135,"x_max":650,"o":"m 135 0 l 135 915 l 636 915 l 636 860 l 199 860 l 199 514 l 565 514 l 565 458 l 199 458 l 199 56 l 650 56 l 650 0 l 135 0 m 357 975 l 346 1013 q 408 1041 383 1024 q 433 1088 433 1058 q 315 1154 433 1150 l 321 1199 q 386 1191 356 1197 q 440 1172 417 1185 q 476 1141 463 1160 q 489 1096 489 1122 q 478 1049 489 1068 q 448 1015 467 1029 q 406 992 429 1001 q 357 975 382 982 z "},"Ẽ":{"ha":715,"x_min":135,"x_max":650,"o":"m 135 0 l 135 915 l 636 915 l 636 860 l 199 860 l 199 514 l 565 514 l 565 458 l 199 458 l 199 56 l 650 56 l 650 0 l 135 0 m 499 997 q 431 1015 458 997 q 380 1052 403 1032 q 335 1090 357 1072 q 285 1107 314 1107 q 233 1078 254 1107 q 208 1001 213 1050 l 163 1006 q 197 1115 165 1071 q 285 1158 228 1158 q 353 1141 325 1158 q 403 1103 381 1124 q 448 1066 426 1083 q 499 1049 469 1049 q 549 1078 529 1049 q 575 1156 568 1107 l 621 1151 q 587 1042 618 1086 q 499 997 556 997 z "},"Ế":{"ha":715,"x_min":135,"x_max":674,"o":"m 135 0 l 135 915 l 636 915 l 636 860 l 199 860 l 199 514 l 565 514 l 565 458 l 199 458 l 199 56 l 650 56 l 650 0 l 135 0 m 258 982 l 232 1008 l 364 1125 l 419 1125 l 551 1008 l 525 982 l 394 1076 l 389 1076 l 258 982 m 535 1063 l 506 1093 l 636 1228 l 674 1190 l 535 1063 z "},"Ề":{"ha":715,"x_min":135,"x_max":650,"o":"m 135 0 l 135 915 l 636 915 l 636 860 l 199 860 l 199 514 l 565 514 l 565 458 l 199 458 l 199 56 l 650 56 l 650 0 l 135 0 m 258 982 l 232 1008 l 364 1125 l 419 1125 l 551 1008 l 525 982 l 394 1076 l 389 1076 l 258 982 m 278 1088 l 249 1063 l 135 1196 l 172 1228 l 278 1088 z "},"Ể":{"ha":715,"x_min":135,"x_max":650,"o":"m 135 0 l 135 915 l 636 915 l 636 860 l 199 860 l 199 514 l 565 514 l 565 458 l 199 458 l 199 56 l 650 56 l 650 0 l 135 0 m 258 982 l 232 1008 l 364 1125 l 419 1125 l 551 1008 l 525 982 l 394 1076 l 389 1076 l 258 982 m 533 1051 l 519 1089 q 569 1110 549 1096 q 590 1147 590 1124 q 565 1191 590 1179 q 489 1206 539 1203 l 496 1249 q 601 1224 558 1246 q 643 1154 643 1203 q 633 1113 643 1131 q 608 1083 624 1096 q 572 1063 592 1071 q 533 1051 553 1056 z "},"Ễ":{"ha":715,"x_min":135,"x_max":650,"o":"m 135 0 l 135 915 l 636 915 l 636 860 l 199 860 l 199 514 l 565 514 l 565 458 l 199 458 l 199 56 l 650 56 l 650 0 l 135 0 m 258 982 l 232 1008 l 364 1124 l 419 1124 l 551 1008 l 525 982 l 394 1075 l 389 1075 l 258 982 m 197 1174 q 203 1213 199 1193 q 219 1248 208 1232 q 249 1274 231 1264 q 296 1285 268 1285 q 356 1273 331 1285 q 401 1248 381 1261 q 442 1223 422 1235 q 488 1211 463 1211 q 528 1231 515 1211 q 544 1282 540 1250 l 586 1278 q 580 1239 585 1258 q 564 1203 575 1219 q 534 1177 553 1188 q 488 1167 515 1167 q 427 1178 451 1167 q 382 1203 403 1190 q 341 1228 361 1217 q 296 1240 321 1240 q 256 1221 268 1240 q 239 1169 243 1201 l 197 1174 z "},"Ệ":{"ha":715,"x_min":135,"x_max":650,"o":"m 135 0 l 135 915 l 636 915 l 636 860 l 199 860 l 199 514 l 565 514 l 565 458 l 199 458 l 199 56 l 650 56 l 650 0 l 135 0 m 204 1008 l 361 1165 l 422 1165 l 579 1008 l 551 982 l 394 1118 l 389 1118 l 232 982 l 204 1008 m 411 -269 q 373 -254 388 -269 q 358 -212 358 -239 q 373 -174 358 -189 q 411 -158 388 -158 q 449 -174 435 -158 q 464 -212 464 -189 q 449 -254 464 -239 q 411 -269 435 -269 z "},"Ę":{"ha":715,"x_min":135,"x_max":668,"o":"m 576 -285 q 494 -257 528 -285 q 460 -171 460 -229 q 490 -72 460 -118 q 561 0 521 -26 l 135 0 l 135 915 l 636 915 l 636 860 l 199 860 l 199 514 l 565 514 l 565 458 l 199 458 l 199 56 l 650 56 l 650 0 l 646 0 q 599 -19 622 -4 q 558 -55 576 -33 q 527 -103 539 -76 q 515 -161 515 -131 q 537 -215 515 -197 q 585 -233 558 -233 q 644 -214 619 -233 l 668 -251 q 626 -275 651 -265 q 576 -285 600 -285 z "},"Ḗ":{"ha":715,"x_min":135,"x_max":650,"o":"m 135 0 l 135 915 l 636 915 l 636 860 l 199 860 l 199 514 l 565 514 l 565 458 l 199 458 l 199 56 l 650 56 l 650 0 l 135 0 m 372 1143 l 344 1172 l 486 1313 l 522 1274 l 372 1143 m 215 1032 l 215 1082 l 560 1082 l 560 1032 l 215 1032 z "},"Ǵ":{"ha":840,"x_min":76,"x_max":740,"o":"m 469 -17 q 308 17 381 -17 q 185 112 236 50 q 105 262 133 174 q 76 460 76 350 q 106 656 76 568 q 188 805 135 743 q 315 899 240 867 q 481 932 390 932 q 565 922 526 932 q 633 897 603 913 q 688 861 664 881 q 731 822 713 842 l 693 779 q 607 846 657 818 q 482 874 557 874 q 340 844 403 874 q 234 762 278 815 q 167 632 190 708 q 143 460 143 556 q 165 287 143 364 q 230 156 188 210 q 334 72 272 101 q 474 42 396 42 q 591 60 536 42 q 679 111 646 78 l 679 396 l 460 396 l 460 450 l 740 450 l 740 88 q 628 13 697 42 q 469 -17 560 -17 m 450 981 l 422 1013 l 596 1183 l 635 1138 l 450 981 z "},"Ĝ":{"ha":840,"x_min":76,"x_max":740,"o":"m 469 -17 q 308 17 381 -17 q 185 112 236 50 q 105 262 133 174 q 76 460 76 350 q 106 656 76 568 q 188 805 135 743 q 315 899 240 867 q 481 932 390 932 q 565 922 526 932 q 633 897 603 913 q 688 861 664 881 q 731 822 713 842 l 693 779 q 607 846 657 818 q 482 874 557 874 q 340 844 403 874 q 234 762 278 815 q 167 632 190 708 q 143 460 143 556 q 165 287 143 364 q 230 156 188 210 q 334 72 272 101 q 474 42 396 42 q 591 60 536 42 q 679 111 646 78 l 679 396 l 460 396 l 460 450 l 740 450 l 740 88 q 628 13 697 42 q 469 -17 560 -17 m 293 1008 l 450 1165 l 511 1165 l 668 1008 l 640 982 l 483 1118 l 478 1118 l 321 982 l 293 1008 z "},"Ğ":{"ha":840,"x_min":76,"x_max":740,"o":"m 469 -17 q 308 17 381 -17 q 185 112 236 50 q 105 262 133 174 q 76 460 76 350 q 106 656 76 568 q 188 805 135 743 q 315 899 240 867 q 481 932 390 932 q 565 922 526 932 q 633 897 603 913 q 688 861 664 881 q 731 822 713 842 l 693 779 q 607 846 657 818 q 482 874 557 874 q 340 844 403 874 q 234 762 278 815 q 167 632 190 708 q 143 460 143 556 q 165 287 143 364 q 230 156 188 210 q 334 72 272 101 q 474 42 396 42 q 591 60 536 42 q 679 111 646 78 l 679 396 l 460 396 l 460 450 l 740 450 l 740 88 q 628 13 697 42 q 469 -17 560 -17 m 481 986 q 401 1001 435 986 q 344 1042 367 1017 q 308 1097 321 1067 q 292 1158 296 1128 l 338 1165 q 351 1115 342 1139 q 379 1073 361 1092 q 422 1043 397 1054 q 481 1032 447 1032 q 539 1043 514 1032 q 582 1073 564 1054 q 610 1115 600 1092 q 624 1165 619 1139 l 669 1158 q 653 1097 665 1128 q 617 1042 640 1067 q 560 1001 594 1017 q 481 986 526 986 z "},"Ġ":{"ha":840,"x_min":76,"x_max":740,"o":"m 469 -17 q 308 17 381 -17 q 185 112 236 50 q 105 262 133 174 q 76 460 76 350 q 106 656 76 568 q 188 805 135 743 q 315 899 240 867 q 481 932 390 932 q 565 922 526 932 q 633 897 603 913 q 688 861 664 881 q 731 822 713 842 l 693 779 q 607 846 657 818 q 482 874 557 874 q 340 844 403 874 q 234 762 278 815 q 167 632 190 708 q 143 460 143 556 q 165 287 143 364 q 230 156 188 210 q 334 72 272 101 q 474 42 396 42 q 591 60 536 42 q 679 111 646 78 l 679 396 l 460 396 l 460 450 l 740 450 l 740 88 q 628 13 697 42 q 469 -17 560 -17 m 481 1001 q 441 1017 457 1001 q 425 1058 425 1032 q 441 1097 425 1082 q 481 1113 457 1113 q 520 1097 504 1113 q 536 1058 536 1082 q 520 1017 536 1032 q 481 1001 504 1001 z "},"Ģ":{"ha":840,"x_min":76,"x_max":740,"o":"m 469 -17 q 308 17 381 -17 q 185 112 236 50 q 105 262 133 174 q 76 460 76 350 q 106 656 76 568 q 188 805 135 743 q 315 899 240 867 q 481 932 390 932 q 565 922 526 932 q 633 897 603 913 q 688 861 664 881 q 731 822 713 842 l 693 779 q 607 846 657 818 q 482 874 557 874 q 340 844 403 874 q 234 762 278 815 q 167 632 190 708 q 143 460 143 556 q 165 287 143 364 q 230 156 188 210 q 334 72 272 101 q 474 42 396 42 q 591 60 536 42 q 679 111 646 78 l 679 396 l 460 396 l 460 450 l 740 450 l 740 88 q 628 13 697 42 q 469 -17 560 -17 m 365 -304 l 356 -262 q 479 -239 446 -257 q 513 -190 513 -221 q 484 -144 513 -158 q 406 -125 456 -129 l 424 -85 q 535 -119 503 -96 q 567 -186 567 -142 q 515 -269 567 -240 q 365 -304 464 -297 z "},"Ǧ":{"ha":840,"x_min":76,"x_max":740,"o":"m 469 -17 q 308 17 381 -17 q 185 112 236 50 q 105 262 133 174 q 76 460 76 350 q 106 656 76 568 q 188 805 135 743 q 315 899 240 867 q 481 932 390 932 q 565 922 526 932 q 633 897 603 913 q 688 861 664 881 q 731 822 713 842 l 693 779 q 607 846 657 818 q 482 874 557 874 q 340 844 403 874 q 234 762 278 815 q 167 632 190 708 q 143 460 143 556 q 165 287 143 364 q 230 156 188 210 q 334 72 272 101 q 474 42 396 42 q 591 60 536 42 q 679 111 646 78 l 679 396 l 460 396 l 460 450 l 740 450 l 740 88 q 628 13 697 42 q 469 -17 560 -17 m 450 985 l 293 1143 l 321 1168 l 478 1032 l 483 1032 l 640 1168 l 668 1143 l 511 985 l 450 985 z "},"Ḡ":{"ha":840,"x_min":76,"x_max":740,"o":"m 469 -17 q 308 17 381 -17 q 185 112 236 50 q 105 262 133 174 q 76 460 76 350 q 106 656 76 568 q 188 805 135 743 q 315 899 240 867 q 481 932 390 932 q 565 922 526 932 q 633 897 603 913 q 688 861 664 881 q 731 822 713 842 l 693 779 q 607 846 657 818 q 482 874 557 874 q 340 844 403 874 q 234 762 278 815 q 167 632 190 708 q 143 460 143 556 q 165 287 143 364 q 230 156 188 210 q 334 72 272 101 q 474 42 396 42 q 591 60 536 42 q 679 111 646 78 l 679 396 l 460 396 l 460 450 l 740 450 l 740 88 q 628 13 697 42 q 469 -17 560 -17 m 308 1032 l 308 1082 l 653 1082 l 653 1032 l 308 1032 z "},"Ɠ":{"ha":840,"x_min":76,"x_max":826,"o":"m 469 -17 q 308 17 381 -17 q 185 112 236 50 q 105 262 133 174 q 76 460 76 350 q 106 656 76 568 q 188 805 135 743 q 315 899 240 867 q 481 932 390 932 q 573 923 532 932 q 646 900 614 914 q 626 981 626 939 q 665 1072 626 1039 q 758 1104 703 1104 q 794 1099 778 1104 q 826 1088 811 1094 l 813 1038 q 789 1047 801 1042 q 761 1051 776 1051 q 703 1027 722 1051 q 683 972 683 1003 q 694 913 683 939 q 731 849 704 888 l 693 806 q 607 853 657 833 q 482 874 557 874 q 340 844 403 874 q 234 762 278 815 q 167 632 190 708 q 143 460 143 556 q 165 287 143 364 q 230 156 188 210 q 334 72 272 101 q 474 42 396 42 q 591 60 536 42 q 679 111 646 78 l 679 396 l 460 396 l 460 450 l 740 450 l 740 88 q 628 13 697 42 q 469 -17 560 -17 z "},"Ĥ":{"ha":888,"x_min":135,"x_max":753,"o":"m 135 0 l 135 915 l 199 915 l 199 514 l 689 514 l 689 915 l 753 915 l 753 0 l 689 0 l 689 458 l 199 458 l 199 0 l 135 0 m 256 1008 l 413 1165 l 474 1165 l 631 1008 l 603 982 l 446 1118 l 440 1118 l 283 982 l 256 1008 z "},"Ḥ":{"ha":888,"x_min":135,"x_max":753,"o":"m 135 0 l 135 915 l 199 915 l 199 514 l 689 514 l 689 915 l 753 915 l 753 0 l 689 0 l 689 458 l 199 458 l 199 0 l 135 0 m 443 -269 q 405 -254 419 -269 q 390 -212 390 -239 q 405 -174 390 -189 q 443 -158 419 -158 q 481 -174 467 -158 q 496 -212 496 -189 q 481 -254 496 -239 q 443 -269 467 -269 z "},"Ḫ":{"ha":888,"x_min":135,"x_max":753,"o":"m 135 0 l 135 915 l 199 915 l 199 514 l 689 514 l 689 915 l 753 915 l 753 0 l 689 0 l 689 458 l 199 458 l 199 0 l 135 0 m 443 -319 q 351 -300 389 -319 q 290 -251 314 -281 q 253 -185 265 -221 q 236 -114 240 -149 l 282 -107 q 298 -165 286 -136 q 329 -219 310 -194 q 377 -258 349 -243 q 443 -272 406 -272 q 509 -258 481 -272 q 557 -219 538 -243 q 588 -165 576 -194 q 604 -107 600 -136 l 650 -114 q 633 -185 646 -149 q 597 -251 621 -221 q 535 -300 572 -281 q 443 -319 497 -319 z "},"Ħ":{"ha":933,"x_min":50,"x_max":882,"o":"m 50 688 l 50 728 l 163 733 l 163 915 l 226 915 l 226 733 l 717 733 l 717 915 l 781 915 l 781 733 l 882 733 l 882 688 l 781 688 l 781 0 l 717 0 l 717 458 l 226 458 l 226 0 l 163 0 l 163 688 l 50 688 m 226 514 l 717 514 l 717 688 l 226 688 l 226 514 z "},"Ì":{"ha":333,"x_min":11,"x_max":224,"o":"m 135 0 l 135 915 l 199 915 l 199 0 l 135 0 m 196 981 l 11 1138 l 50 1183 l 224 1013 l 196 981 z "},"Í":{"ha":333,"x_min":110,"x_max":322,"o":"m 135 0 l 135 915 l 199 915 l 199 0 l 135 0 m 138 981 l 110 1013 l 283 1183 l 322 1138 l 138 981 z "},"Î":{"ha":333,"x_min":-21,"x_max":354,"o":"m 135 0 l 135 915 l 199 915 l 199 0 l 135 0 m -21 1008 l 136 1165 l 197 1165 l 354 1008 l 326 982 l 169 1118 l 164 1118 l 7 982 l -21 1008 z "},"Ĩ":{"ha":333,"x_min":-62,"x_max":396,"o":"m 135 0 l 135 915 l 199 915 l 199 0 l 135 0 m 274 997 q 206 1015 233 997 q 155 1052 178 1032 q 110 1090 132 1072 q 60 1107 89 1107 q 8 1078 29 1107 q -17 1001 -12 1050 l -62 1006 q -28 1115 -60 1071 q 60 1158 3 1158 q 128 1141 100 1158 q 178 1103 156 1124 q 223 1066 201 1083 q 274 1049 244 1049 q 324 1078 304 1049 q 350 1156 343 1107 l 396 1151 q 362 1042 393 1086 q 274 997 331 997 z "},"Ï":{"ha":333,"x_min":-19,"x_max":353,"o":"m 135 0 l 135 915 l 199 915 l 199 0 l 135 0 m 31 1007 q -6 1020 8 1007 q -19 1057 -19 1033 q -6 1094 -19 1081 q 31 1108 8 1108 q 67 1094 53 1108 q 82 1057 82 1081 q 67 1020 82 1033 q 31 1007 53 1007 m 303 1007 q 266 1020 281 1007 q 251 1057 251 1033 q 266 1094 251 1081 q 303 1108 281 1108 q 339 1094 325 1108 q 353 1057 353 1081 q 339 1020 353 1033 q 303 1007 325 1007 z "},"Ī":{"ha":333,"x_min":-6,"x_max":339,"o":"m 135 0 l 135 915 l 199 915 l 199 0 l 135 0 m -6 1032 l -6 1082 l 339 1082 l 339 1032 l -6 1032 z "},"İ":{"ha":333,"x_min":111,"x_max":222,"o":"m 135 0 l 135 915 l 199 915 l 199 0 l 135 0 m 167 1001 q 127 1017 143 1001 q 111 1058 111 1032 q 127 1097 111 1082 q 167 1113 143 1113 q 206 1097 190 1113 q 222 1058 222 1082 q 206 1017 222 1032 q 167 1001 190 1001 z "},"Ǐ":{"ha":333,"x_min":-21,"x_max":354,"o":"m 135 0 l 135 915 l 199 915 l 199 0 l 135 0 m 136 985 l -21 1143 l 7 1168 l 164 1032 l 169 1032 l 326 1168 l 354 1143 l 197 985 l 136 985 z "},"Ỉ":{"ha":333,"x_min":90,"x_max":264,"o":"m 135 0 l 135 915 l 199 915 l 199 0 l 135 0 m 132 975 l 121 1013 q 183 1041 158 1024 q 208 1088 208 1058 q 90 1154 208 1150 l 96 1199 q 161 1191 131 1197 q 215 1172 192 1185 q 251 1141 238 1160 q 264 1096 264 1122 q 253 1049 264 1068 q 223 1015 242 1029 q 181 992 204 1001 q 132 975 157 982 z "},"Ị":{"ha":333,"x_min":115,"x_max":221,"o":"m 135 0 l 135 915 l 199 915 l 199 0 l 135 0 m 168 -269 q 130 -254 144 -269 q 115 -212 115 -239 q 130 -174 115 -189 q 168 -158 144 -158 q 206 -174 192 -158 q 221 -212 221 -189 q 206 -254 221 -239 q 168 -269 192 -269 z "},"Į":{"ha":333,"x_min":61,"x_max":268,"o":"m 178 -285 q 95 -257 129 -285 q 61 -171 61 -229 q 86 -75 61 -114 q 147 0 111 -36 l 135 0 l 135 915 l 199 915 l 199 0 q 139 -78 163 -40 q 115 -161 115 -115 q 138 -215 115 -197 q 186 -233 160 -233 q 246 -214 221 -233 l 268 -251 q 227 -275 253 -265 q 178 -285 201 -285 z "},"Ĭ":{"ha":333,"x_min":-22,"x_max":356,"o":"m 135 0 l 135 915 l 199 915 l 199 0 l 135 0 m 167 986 q 87 1001 121 986 q 30 1042 53 1017 q -6 1097 7 1067 q -22 1158 -18 1128 l 24 1165 q 38 1115 28 1139 q 65 1073 47 1092 q 108 1043 83 1054 q 167 1032 133 1032 q 225 1043 200 1032 q 268 1073 250 1054 q 296 1115 286 1092 q 310 1165 306 1139 l 356 1158 q 339 1097 351 1128 q 303 1042 326 1067 q 247 1001 281 1017 q 167 986 213 986 z "},"Ĵ":{"ha":642,"x_min":57,"x_max":660,"o":"m 282 -17 q 149 18 206 -17 q 57 118 92 53 l 106 150 q 181 67 139 92 q 282 42 224 42 q 406 92 365 42 q 446 256 446 143 l 446 915 l 510 915 l 510 249 q 497 145 510 193 q 458 61 485 97 q 388 4 431 25 q 282 -17 344 -17 m 285 1008 l 442 1165 l 503 1165 l 660 1008 l 632 982 l 475 1118 l 469 1118 l 313 982 l 285 1008 z "},"Ķ":{"ha":775,"x_min":135,"x_max":761,"o":"m 135 0 l 135 915 l 199 915 l 199 407 l 201 407 l 644 915 l 721 915 l 429 576 l 761 0 l 688 0 l 385 528 l 199 315 l 199 0 l 135 0 m 340 -304 l 331 -262 q 454 -239 421 -257 q 488 -190 488 -221 q 459 -144 488 -158 q 381 -125 431 -129 l 399 -85 q 510 -119 478 -96 q 542 -186 542 -142 q 490 -269 542 -240 q 340 -304 439 -297 z "},"Ḳ":{"ha":775,"x_min":135,"x_max":761,"o":"m 135 0 l 135 915 l 199 915 l 199 407 l 201 407 l 644 915 l 721 915 l 429 576 l 761 0 l 688 0 l 385 528 l 199 315 l 199 0 l 135 0 m 451 -269 q 413 -254 428 -269 q 399 -212 399 -239 q 413 -174 399 -189 q 451 -158 428 -158 q 490 -174 475 -158 q 504 -212 504 -189 q 490 -254 504 -239 q 451 -269 475 -269 z "},"Ḵ":{"ha":775,"x_min":135,"x_max":761,"o":"m 135 0 l 135 915 l 199 915 l 199 407 l 201 407 l 644 915 l 721 915 l 429 576 l 761 0 l 688 0 l 385 528 l 199 315 l 199 0 l 135 0 m 276 -221 l 276 -171 l 618 -171 l 618 -221 l 276 -221 z "},"Ĺ":{"ha":649,"x_min":113,"x_max":621,"o":"m 135 0 l 135 915 l 199 915 l 199 56 l 621 56 l 621 0 l 135 0 m 140 981 l 113 1013 l 286 1183 l 325 1138 l 140 981 z "},"Ľ":{"ha":649,"x_min":135,"x_max":621,"o":"m 135 0 l 135 915 l 199 915 l 199 56 l 621 56 l 621 0 l 135 0 m 447 719 l 443 1006 l 496 1006 l 496 936 l 485 719 l 447 719 z "},"Ļ":{"ha":649,"x_min":135,"x_max":621,"o":"m 135 0 l 135 915 l 199 915 l 199 56 l 621 56 l 621 0 l 135 0 m 290 -304 l 281 -262 q 404 -239 371 -257 q 438 -190 438 -221 q 409 -144 438 -158 q 331 -125 381 -129 l 349 -85 q 460 -119 428 -96 q 492 -186 492 -142 q 440 -269 492 -240 q 290 -304 389 -297 z "},"Ŀ":{"ha":649,"x_min":135,"x_max":621,"o":"m 135 0 l 135 915 l 199 915 l 199 56 l 621 56 l 621 0 l 135 0 m 497 386 q 456 403 474 386 q 438 449 438 419 q 456 496 438 479 q 497 513 474 513 q 538 496 521 513 q 556 449 556 479 q 538 403 556 419 q 497 386 521 386 z "},"Ḷ":{"ha":649,"x_min":135,"x_max":621,"o":"m 135 0 l 135 915 l 199 915 l 199 56 l 621 56 l 621 0 l 135 0 m 397 -269 q 359 -254 374 -269 q 344 -212 344 -239 q 359 -174 344 -189 q 397 -158 374 -158 q 435 -174 421 -158 q 450 -212 450 -189 q 435 -254 450 -239 q 397 -269 421 -269 z "},"Ḹ":{"ha":649,"x_min":-3,"x_max":621,"o":"m 135 0 l 135 915 l 199 915 l 199 56 l 621 56 l 621 0 l 135 0 m -3 1032 l -3 1082 l 342 1082 l 342 1032 l -3 1032 m 397 -269 q 359 -254 374 -269 q 344 -212 344 -239 q 359 -174 344 -189 q 397 -158 374 -158 q 435 -174 421 -158 q 450 -212 450 -189 q 435 -254 450 -239 q 397 -269 421 -269 z "},"Ḻ":{"ha":649,"x_min":135,"x_max":621,"o":"m 135 0 l 135 915 l 199 915 l 199 56 l 621 56 l 621 0 l 135 0 m 226 -221 l 226 -171 l 568 -171 l 568 -221 l 226 -221 z "},"Ł":{"ha":650,"x_min":6,"x_max":626,"o":"m 32 299 l 6 342 l 140 414 l 140 915 l 204 915 l 204 442 l 464 579 l 489 535 l 204 386 l 204 56 l 626 56 l 626 0 l 140 0 l 140 357 l 32 299 z "},"Ḿ":{"ha":981,"x_min":135,"x_max":846,"o":"m 135 0 l 135 915 l 225 915 l 417 378 q 453 277 435 328 q 489 175 471 226 l 494 175 q 529 277 513 226 q 564 378 546 328 l 754 915 l 846 915 l 846 0 l 783 0 l 783 601 q 786 724 783 658 q 792 849 789 790 l 786 849 l 715 644 l 518 100 l 463 100 l 264 644 l 192 849 l 186 849 q 192 724 189 790 q 194 601 194 658 l 194 0 l 135 0 m 460 981 l 432 1013 l 606 1183 l 644 1138 l 460 981 z "},"Ṁ":{"ha":981,"x_min":135,"x_max":846,"o":"m 135 0 l 135 915 l 225 915 l 417 378 q 453 277 435 328 q 489 175 471 226 l 494 175 q 529 277 513 226 q 564 378 546 328 l 754 915 l 846 915 l 846 0 l 783 0 l 783 601 q 786 724 783 658 q 792 849 789 790 l 786 849 l 715 644 l 518 100 l 463 100 l 264 644 l 192 849 l 186 849 q 192 724 189 790 q 194 601 194 658 l 194 0 l 135 0 m 489 1001 q 449 1017 465 1001 q 433 1058 433 1032 q 449 1097 433 1082 q 489 1113 465 1113 q 528 1097 513 1113 q 544 1058 544 1082 q 528 1017 544 1032 q 489 1001 513 1001 z "},"Ṃ":{"ha":981,"x_min":135,"x_max":846,"o":"m 135 0 l 135 915 l 225 915 l 417 378 q 453 277 435 328 q 489 175 471 226 l 494 175 q 529 277 513 226 q 564 378 546 328 l 754 915 l 846 915 l 846 0 l 783 0 l 783 601 q 786 724 783 658 q 792 849 789 790 l 786 849 l 715 644 l 518 100 l 463 100 l 264 644 l 192 849 l 186 849 q 192 724 189 790 q 194 601 194 658 l 194 0 l 135 0 m 492 -269 q 453 -254 468 -269 q 439 -212 439 -239 q 453 -174 439 -189 q 492 -158 468 -158 q 530 -174 515 -158 q 544 -212 544 -189 q 530 -254 544 -239 q 492 -269 515 -269 z "},"Ń":{"ha":883,"x_min":135,"x_max":749,"o":"m 135 0 l 135 915 l 201 915 l 588 269 l 690 88 l 696 88 q 690 221 693 154 q 688 354 688 288 l 688 915 l 749 915 l 749 0 l 682 0 l 296 646 l 193 828 l 188 828 q 193 698 190 761 q 196 568 196 635 l 196 0 l 135 0 m 419 981 l 392 1013 l 565 1183 l 604 1138 l 419 981 z "},"Ǹ":{"ha":883,"x_min":135,"x_max":749,"o":"m 135 0 l 135 915 l 201 915 l 588 269 l 690 88 l 696 88 q 690 221 693 154 q 688 354 688 288 l 688 915 l 749 915 l 749 0 l 682 0 l 296 646 l 193 828 l 188 828 q 193 698 190 761 q 196 568 196 635 l 196 0 l 135 0 m 478 981 l 293 1138 l 332 1183 l 506 1013 l 478 981 z "},"Ň":{"ha":883,"x_min":135,"x_max":749,"o":"m 135 0 l 135 915 l 201 915 l 588 269 l 690 88 l 696 88 q 690 221 693 154 q 688 354 688 288 l 688 915 l 749 915 l 749 0 l 682 0 l 296 646 l 193 828 l 188 828 q 193 698 190 761 q 196 568 196 635 l 196 0 l 135 0 m 418 985 l 261 1143 l 289 1168 l 446 1032 l 451 1032 l 608 1168 l 636 1143 l 479 985 l 418 985 z "},"Ñ":{"ha":883,"x_min":135,"x_max":749,"o":"m 135 0 l 135 915 l 201 915 l 588 269 l 690 88 l 696 88 q 690 221 693 154 q 688 354 688 288 l 688 915 l 749 915 l 749 0 l 682 0 l 296 646 l 193 828 l 188 828 q 193 698 190 761 q 196 568 196 635 l 196 0 l 135 0 m 556 997 q 488 1015 515 997 q 437 1052 460 1032 q 392 1090 414 1072 q 342 1107 371 1107 q 290 1078 311 1107 q 265 1001 269 1050 l 219 1006 q 253 1115 222 1071 q 342 1158 285 1158 q 410 1141 382 1158 q 460 1103 438 1124 q 505 1066 483 1083 q 556 1049 526 1049 q 606 1078 586 1049 q 632 1156 625 1107 l 678 1151 q 644 1042 675 1086 q 556 997 613 997 z "},"Ņ":{"ha":883,"x_min":135,"x_max":749,"o":"m 135 0 l 135 915 l 201 915 l 588 269 l 690 88 l 696 88 q 690 221 693 154 q 688 354 688 288 l 688 915 l 749 915 l 749 0 l 682 0 l 296 646 l 193 828 l 188 828 q 193 698 190 761 q 196 568 196 635 l 196 0 l 135 0 m 336 -304 l 326 -262 q 450 -239 417 -257 q 483 -190 483 -221 q 455 -144 483 -158 q 376 -125 426 -129 l 394 -85 q 506 -119 474 -96 q 538 -186 538 -142 q 486 -269 538 -240 q 336 -304 435 -297 z "},"Ṅ":{"ha":883,"x_min":135,"x_max":749,"o":"m 135 0 l 135 915 l 201 915 l 588 269 l 690 88 l 696 88 q 690 221 693 154 q 688 354 688 288 l 688 915 l 749 915 l 749 0 l 682 0 l 296 646 l 193 828 l 188 828 q 193 698 190 761 q 196 568 196 635 l 196 0 l 135 0 m 449 1001 q 409 1017 425 1001 q 393 1058 393 1032 q 409 1097 393 1082 q 449 1113 425 1113 q 488 1097 472 1113 q 504 1058 504 1082 q 488 1017 504 1032 q 449 1001 472 1001 z "},"Ṇ":{"ha":883,"x_min":135,"x_max":749,"o":"m 135 0 l 135 915 l 201 915 l 588 269 l 690 88 l 696 88 q 690 221 693 154 q 688 354 688 288 l 688 915 l 749 915 l 749 0 l 682 0 l 296 646 l 193 828 l 188 828 q 193 698 190 761 q 196 568 196 635 l 196 0 l 135 0 m 443 -269 q 405 -254 419 -269 q 390 -212 390 -239 q 405 -174 390 -189 q 443 -158 419 -158 q 481 -174 467 -158 q 496 -212 496 -189 q 481 -254 496 -239 q 443 -269 467 -269 z "},"Ṉ":{"ha":883,"x_min":135,"x_max":749,"o":"m 135 0 l 135 915 l 201 915 l 588 269 l 690 88 l 696 88 q 690 221 693 154 q 688 354 688 288 l 688 915 l 749 915 l 749 0 l 682 0 l 296 646 l 193 828 l 188 828 q 193 698 190 761 q 196 568 196 635 l 196 0 l 135 0 m 272 -221 l 272 -171 l 614 -171 l 614 -221 l 272 -221 z "},"Ò":{"ha":906,"x_min":76,"x_max":831,"o":"m 453 -17 q 301 17 371 -17 q 182 114 232 51 q 104 265 132 176 q 76 461 76 353 q 104 656 76 569 q 182 805 132 743 q 301 899 232 867 q 453 932 371 932 q 606 899 536 932 q 725 805 675 867 q 803 656 775 743 q 831 461 831 569 q 803 265 831 353 q 725 114 775 176 q 606 17 675 51 q 453 -17 536 -17 m 453 42 q 579 72 522 42 q 677 156 636 101 q 740 288 718 211 q 763 461 763 365 q 740 632 763 556 q 677 762 718 708 q 579 844 636 815 q 453 874 522 874 q 326 844 383 874 q 228 762 268 815 q 165 632 188 708 q 143 461 143 556 q 165 288 143 365 q 228 156 188 211 q 326 72 268 101 q 453 42 383 42 m 482 981 l 297 1138 l 336 1183 l 510 1013 l 482 981 z "},"Ó":{"ha":906,"x_min":76,"x_max":831,"o":"m 453 -17 q 301 17 371 -17 q 182 114 232 51 q 104 265 132 176 q 76 461 76 353 q 104 656 76 569 q 182 805 132 743 q 301 899 232 867 q 453 932 371 932 q 606 899 536 932 q 725 805 675 867 q 803 656 775 743 q 831 461 831 569 q 803 265 831 353 q 725 114 775 176 q 606 17 675 51 q 453 -17 536 -17 m 453 42 q 579 72 522 42 q 677 156 636 101 q 740 288 718 211 q 763 461 763 365 q 740 632 763 556 q 677 762 718 708 q 579 844 636 815 q 453 874 522 874 q 326 844 383 874 q 228 762 268 815 q 165 632 188 708 q 143 461 143 556 q 165 288 143 365 q 228 156 188 211 q 326 72 268 101 q 453 42 383 42 m 424 981 l 396 1013 l 569 1183 l 608 1138 l 424 981 z "},"Ô":{"ha":906,"x_min":76,"x_max":831,"o":"m 453 -17 q 301 17 371 -17 q 182 114 232 51 q 104 265 132 176 q 76 461 76 353 q 104 656 76 569 q 182 805 132 743 q 301 899 232 867 q 453 932 371 932 q 606 899 536 932 q 725 805 675 867 q 803 656 775 743 q 831 461 831 569 q 803 265 831 353 q 725 114 775 176 q 606 17 675 51 q 453 -17 536 -17 m 453 42 q 579 72 522 42 q 677 156 636 101 q 740 288 718 211 q 763 461 763 365 q 740 632 763 556 q 677 762 718 708 q 579 844 636 815 q 453 874 522 874 q 326 844 383 874 q 228 762 268 815 q 165 632 188 708 q 143 461 143 556 q 165 288 143 365 q 228 156 188 211 q 326 72 268 101 q 453 42 383 42 m 265 1008 l 422 1165 l 483 1165 l 640 1008 l 613 982 l 456 1118 l 450 1118 l 293 982 l 265 1008 z "},"Õ":{"ha":906,"x_min":76,"x_max":831,"o":"m 453 -17 q 301 17 371 -17 q 182 114 232 51 q 104 265 132 176 q 76 461 76 353 q 104 656 76 569 q 182 805 132 743 q 301 899 232 867 q 453 932 371 932 q 606 899 536 932 q 725 805 675 867 q 803 656 775 743 q 831 461 831 569 q 803 265 831 353 q 725 114 775 176 q 606 17 675 51 q 453 -17 536 -17 m 453 42 q 579 72 522 42 q 677 156 636 101 q 740 288 718 211 q 763 461 763 365 q 740 632 763 556 q 677 762 718 708 q 579 844 636 815 q 453 874 522 874 q 326 844 383 874 q 228 762 268 815 q 165 632 188 708 q 143 461 143 556 q 165 288 143 365 q 228 156 188 211 q 326 72 268 101 q 453 42 383 42 m 560 997 q 492 1015 519 997 q 441 1052 464 1032 q 397 1090 418 1072 q 346 1107 375 1107 q 294 1078 315 1107 q 269 1001 274 1050 l 224 1006 q 258 1115 226 1071 q 346 1158 289 1158 q 414 1141 386 1158 q 465 1103 442 1124 q 509 1066 488 1083 q 560 1049 531 1049 q 610 1078 590 1049 q 636 1156 629 1107 l 682 1151 q 648 1042 679 1086 q 560 997 617 997 z "},"Ö":{"ha":906,"x_min":76,"x_max":831,"o":"m 453 -17 q 301 17 371 -17 q 182 114 232 51 q 104 265 132 176 q 76 461 76 353 q 104 656 76 569 q 182 805 132 743 q 301 899 232 867 q 453 932 371 932 q 606 899 536 932 q 725 805 675 867 q 803 656 775 743 q 831 461 831 569 q 803 265 831 353 q 725 114 775 176 q 606 17 675 51 q 453 -17 536 -17 m 453 42 q 579 72 522 42 q 677 156 636 101 q 740 288 718 211 q 763 461 763 365 q 740 632 763 556 q 677 762 718 708 q 579 844 636 815 q 453 874 522 874 q 326 844 383 874 q 228 762 268 815 q 165 632 188 708 q 143 461 143 556 q 165 288 143 365 q 228 156 188 211 q 326 72 268 101 q 453 42 383 42 m 317 1007 q 281 1020 294 1007 q 267 1057 267 1033 q 281 1094 267 1081 q 317 1108 294 1108 q 353 1094 339 1108 q 368 1057 368 1081 q 353 1020 368 1033 q 317 1007 339 1007 m 589 1007 q 552 1020 567 1007 q 538 1057 538 1033 q 552 1094 538 1081 q 589 1108 567 1108 q 625 1094 611 1108 q 639 1057 639 1081 q 625 1020 639 1033 q 589 1007 611 1007 z "},"Ō":{"ha":906,"x_min":76,"x_max":831,"o":"m 453 -17 q 301 17 371 -17 q 182 114 232 51 q 104 265 132 176 q 76 461 76 353 q 104 656 76 569 q 182 805 132 743 q 301 899 232 867 q 453 932 371 932 q 606 899 536 932 q 725 805 675 867 q 803 656 775 743 q 831 461 831 569 q 803 265 831 353 q 725 114 775 176 q 606 17 675 51 q 453 -17 536 -17 m 453 42 q 579 72 522 42 q 677 156 636 101 q 740 288 718 211 q 763 461 763 365 q 740 632 763 556 q 677 762 718 708 q 579 844 636 815 q 453 874 522 874 q 326 844 383 874 q 228 762 268 815 q 165 632 188 708 q 143 461 143 556 q 165 288 143 365 q 228 156 188 211 q 326 72 268 101 q 453 42 383 42 m 281 1032 l 281 1082 l 625 1082 l 625 1032 l 281 1032 z "},"Ő":{"ha":906,"x_min":76,"x_max":831,"o":"m 453 -17 q 301 17 371 -17 q 182 114 232 51 q 104 265 132 176 q 76 461 76 353 q 104 656 76 569 q 182 805 132 743 q 301 899 232 867 q 453 932 371 932 q 606 899 536 932 q 725 805 675 867 q 803 656 775 743 q 831 461 831 569 q 803 265 831 353 q 725 114 775 176 q 606 17 675 51 q 453 -17 536 -17 m 453 42 q 579 72 522 42 q 677 156 636 101 q 740 288 718 211 q 763 461 763 365 q 740 632 763 556 q 677 762 718 708 q 579 844 636 815 q 453 874 522 874 q 326 844 383 874 q 228 762 268 815 q 165 632 188 708 q 143 461 143 556 q 165 288 143 365 q 228 156 188 211 q 326 72 268 101 q 453 42 383 42 m 338 1001 l 460 1207 l 507 1178 l 374 983 l 338 1001 m 538 1001 l 660 1207 l 707 1178 l 574 983 l 538 1001 z "},"Ǒ":{"ha":906,"x_min":76,"x_max":831,"o":"m 453 -17 q 301 17 371 -17 q 182 114 232 51 q 104 265 132 176 q 76 461 76 353 q 104 656 76 569 q 182 805 132 743 q 301 899 232 867 q 453 932 371 932 q 606 899 536 932 q 725 805 675 867 q 803 656 775 743 q 831 461 831 569 q 803 265 831 353 q 725 114 775 176 q 606 17 675 51 q 453 -17 536 -17 m 453 42 q 579 72 522 42 q 677 156 636 101 q 740 288 718 211 q 763 461 763 365 q 740 632 763 556 q 677 762 718 708 q 579 844 636 815 q 453 874 522 874 q 326 844 383 874 q 228 762 268 815 q 165 632 188 708 q 143 461 143 556 q 165 288 143 365 q 228 156 188 211 q 326 72 268 101 q 453 42 383 42 m 422 985 l 265 1143 l 293 1168 l 450 1032 l 456 1032 l 613 1168 l 640 1143 l 483 985 l 422 985 z "},"Ọ":{"ha":906,"x_min":76,"x_max":831,"o":"m 453 -17 q 301 17 371 -17 q 182 114 232 51 q 104 265 132 176 q 76 461 76 353 q 104 656 76 569 q 182 805 132 743 q 301 899 232 867 q 453 932 371 932 q 606 899 536 932 q 725 805 675 867 q 803 656 775 743 q 831 461 831 569 q 803 265 831 353 q 725 114 775 176 q 606 17 675 51 q 453 -17 536 -17 m 453 42 q 579 72 522 42 q 677 156 636 101 q 740 288 718 211 q 763 461 763 365 q 740 632 763 556 q 677 762 718 708 q 579 844 636 815 q 453 874 522 874 q 326 844 383 874 q 228 762 268 815 q 165 632 188 708 q 143 461 143 556 q 165 288 143 365 q 228 156 188 211 q 326 72 268 101 q 453 42 383 42 m 453 -269 q 415 -254 429 -269 q 400 -212 400 -239 q 415 -174 400 -189 q 453 -158 429 -158 q 491 -174 476 -158 q 506 -212 506 -189 q 491 -254 506 -239 q 453 -269 476 -269 z "},"Ỏ":{"ha":906,"x_min":76,"x_max":831,"o":"m 453 -17 q 301 17 371 -17 q 182 114 232 51 q 104 265 132 176 q 76 461 76 353 q 104 656 76 569 q 182 805 132 743 q 301 899 232 867 q 453 932 371 932 q 606 899 536 932 q 725 805 675 867 q 803 656 775 743 q 831 461 831 569 q 803 265 831 353 q 725 114 775 176 q 606 17 675 51 q 453 -17 536 -17 m 453 42 q 579 72 522 42 q 677 156 636 101 q 740 288 718 211 q 763 461 763 365 q 740 632 763 556 q 677 762 718 708 q 579 844 636 815 q 453 874 522 874 q 326 844 383 874 q 228 762 268 815 q 165 632 188 708 q 143 461 143 556 q 165 288 143 365 q 228 156 188 211 q 326 72 268 101 q 453 42 383 42 m 418 975 l 407 1013 q 469 1041 444 1024 q 494 1088 494 1058 q 376 1154 494 1150 l 382 1199 q 447 1191 417 1197 q 501 1172 478 1185 q 537 1141 524 1160 q 550 1096 550 1122 q 539 1049 550 1068 q 509 1015 528 1029 q 467 992 490 1001 q 418 975 443 982 z "},"Ố":{"ha":906,"x_min":76,"x_max":831,"o":"m 453 -17 q 301 17 371 -17 q 182 114 232 51 q 104 265 132 176 q 76 461 76 353 q 104 656 76 569 q 182 805 132 743 q 301 899 232 867 q 453 932 371 932 q 606 899 536 932 q 725 805 675 867 q 803 656 775 743 q 831 461 831 569 q 803 265 831 353 q 725 114 775 176 q 606 17 675 51 q 453 -17 536 -17 m 453 42 q 579 72 522 42 q 677 156 636 101 q 740 288 718 211 q 763 461 763 365 q 740 632 763 556 q 677 762 718 708 q 579 844 636 815 q 453 874 522 874 q 326 844 383 874 q 228 762 268 815 q 165 632 188 708 q 143 461 143 556 q 165 288 143 365 q 228 156 188 211 q 326 72 268 101 q 453 42 383 42 m 319 982 l 293 1008 l 425 1125 l 481 1125 l 613 1008 l 586 982 l 456 1076 l 450 1076 l 319 982 m 596 1063 l 567 1093 l 697 1228 l 735 1190 l 596 1063 z "},"Ồ":{"ha":906,"x_min":76,"x_max":831,"o":"m 453 -17 q 301 17 371 -17 q 182 114 232 51 q 104 265 132 176 q 76 461 76 353 q 104 656 76 569 q 182 805 132 743 q 301 899 232 867 q 453 932 371 932 q 606 899 536 932 q 725 805 675 867 q 803 656 775 743 q 831 461 831 569 q 803 265 831 353 q 725 114 775 176 q 606 17 675 51 q 453 -17 536 -17 m 453 42 q 579 72 522 42 q 677 156 636 101 q 740 288 718 211 q 763 461 763 365 q 740 632 763 556 q 677 762 718 708 q 579 844 636 815 q 453 874 522 874 q 326 844 383 874 q 228 762 268 815 q 165 632 188 708 q 143 461 143 556 q 165 288 143 365 q 228 156 188 211 q 326 72 268 101 q 453 42 383 42 m 319 982 l 293 1008 l 425 1125 l 481 1125 l 613 1008 l 586 982 l 456 1076 l 450 1076 l 319 982 m 339 1088 l 310 1063 l 196 1196 l 233 1228 l 339 1088 z "},"Ổ":{"ha":906,"x_min":76,"x_max":831,"o":"m 453 -17 q 301 17 371 -17 q 182 114 232 51 q 104 265 132 176 q 76 461 76 353 q 104 656 76 569 q 182 805 132 743 q 301 899 232 867 q 453 932 371 932 q 606 899 536 932 q 725 805 675 867 q 803 656 775 743 q 831 461 831 569 q 803 265 831 353 q 725 114 775 176 q 606 17 675 51 q 453 -17 536 -17 m 453 42 q 579 72 522 42 q 677 156 636 101 q 740 288 718 211 q 763 461 763 365 q 740 632 763 556 q 677 762 718 708 q 579 844 636 815 q 453 874 522 874 q 326 844 383 874 q 228 762 268 815 q 165 632 188 708 q 143 461 143 556 q 165 288 143 365 q 228 156 188 211 q 326 72 268 101 q 453 42 383 42 m 319 982 l 293 1008 l 425 1125 l 481 1125 l 613 1008 l 586 982 l 456 1076 l 450 1076 l 319 982 m 594 1051 l 581 1089 q 631 1110 610 1096 q 651 1147 651 1124 q 626 1191 651 1179 q 550 1206 600 1203 l 557 1249 q 662 1224 619 1246 q 704 1154 704 1203 q 694 1113 704 1131 q 669 1083 685 1096 q 633 1063 653 1071 q 594 1051 614 1056 z "},"Ỗ":{"ha":906,"x_min":76,"x_max":831,"o":"m 453 -17 q 301 17 371 -17 q 182 114 232 51 q 104 265 132 176 q 76 461 76 353 q 104 656 76 569 q 182 805 132 743 q 301 899 232 867 q 453 932 371 932 q 606 899 536 932 q 725 805 675 867 q 803 656 775 743 q 831 461 831 569 q 803 265 831 353 q 725 114 775 176 q 606 17 675 51 q 453 -17 536 -17 m 453 42 q 579 72 522 42 q 677 156 636 101 q 740 288 718 211 q 763 461 763 365 q 740 632 763 556 q 677 762 718 708 q 579 844 636 815 q 453 874 522 874 q 326 844 383 874 q 228 762 268 815 q 165 632 188 708 q 143 461 143 556 q 165 288 143 365 q 228 156 188 211 q 326 72 268 101 q 453 42 383 42 m 319 982 l 293 1008 l 425 1124 l 481 1124 l 613 1008 l 586 982 l 456 1075 l 450 1075 l 319 982 m 258 1174 q 265 1213 260 1193 q 281 1248 269 1232 q 310 1274 292 1264 q 357 1285 329 1285 q 417 1273 392 1285 q 463 1248 442 1261 q 503 1223 483 1235 q 549 1211 524 1211 q 589 1231 576 1211 q 606 1282 601 1250 l 647 1278 q 641 1239 646 1258 q 625 1203 636 1219 q 595 1177 614 1188 q 549 1167 576 1167 q 488 1178 513 1167 q 443 1203 464 1190 q 402 1228 422 1217 q 357 1240 382 1240 q 317 1221 329 1240 q 300 1169 304 1201 l 258 1174 z "},"Ộ":{"ha":906,"x_min":76,"x_max":831,"o":"m 453 -17 q 301 17 371 -17 q 182 114 232 51 q 104 265 132 176 q 76 461 76 353 q 104 656 76 569 q 182 805 132 743 q 301 899 232 867 q 453 932 371 932 q 606 899 536 932 q 725 805 675 867 q 803 656 775 743 q 831 461 831 569 q 803 265 831 353 q 725 114 775 176 q 606 17 675 51 q 453 -17 536 -17 m 453 42 q 579 72 522 42 q 677 156 636 101 q 740 288 718 211 q 763 461 763 365 q 740 632 763 556 q 677 762 718 708 q 579 844 636 815 q 453 874 522 874 q 326 844 383 874 q 228 762 268 815 q 165 632 188 708 q 143 461 143 556 q 165 288 143 365 q 228 156 188 211 q 326 72 268 101 q 453 42 383 42 m 265 1008 l 422 1165 l 483 1165 l 640 1008 l 613 982 l 456 1118 l 450 1118 l 293 982 l 265 1008 m 453 -269 q 415 -254 429 -269 q 400 -212 400 -239 q 415 -174 400 -189 q 453 -158 429 -158 q 491 -174 476 -158 q 506 -212 506 -189 q 491 -254 506 -239 q 453 -269 476 -269 z "},"Ŏ":{"ha":906,"x_min":76,"x_max":831,"o":"m 453 -17 q 301 17 371 -17 q 182 114 232 51 q 104 265 132 176 q 76 461 76 353 q 104 656 76 569 q 182 805 132 743 q 301 899 232 867 q 453 932 371 932 q 606 899 536 932 q 725 805 675 867 q 803 656 775 743 q 831 461 831 569 q 803 265 831 353 q 725 114 775 176 q 606 17 675 51 q 453 -17 536 -17 m 453 42 q 579 72 522 42 q 677 156 636 101 q 740 288 718 211 q 763 461 763 365 q 740 632 763 556 q 677 762 718 708 q 579 844 636 815 q 453 874 522 874 q 326 844 383 874 q 228 762 268 815 q 165 632 188 708 q 143 461 143 556 q 165 288 143 365 q 228 156 188 211 q 326 72 268 101 q 453 42 383 42 m 453 986 q 373 1001 407 986 q 316 1042 339 1017 q 281 1097 293 1067 q 264 1158 268 1128 l 310 1165 q 324 1115 314 1139 q 351 1073 333 1092 q 394 1043 369 1054 q 453 1032 419 1032 q 511 1043 486 1032 q 554 1073 536 1054 q 582 1115 572 1092 q 596 1165 592 1139 l 642 1158 q 625 1097 638 1128 q 590 1042 613 1067 q 533 1001 567 1017 q 453 986 499 986 z "},"Ṓ":{"ha":906,"x_min":76,"x_max":831,"o":"m 453 -17 q 301 17 371 -17 q 182 114 232 51 q 104 265 132 176 q 76 461 76 353 q 104 656 76 569 q 182 805 132 743 q 301 899 232 867 q 453 932 371 932 q 606 899 536 932 q 725 805 675 867 q 803 656 775 743 q 831 461 831 569 q 803 265 831 353 q 725 114 775 176 q 606 17 675 51 q 453 -17 536 -17 m 453 42 q 579 72 522 42 q 677 156 636 101 q 740 288 718 211 q 763 461 763 365 q 740 632 763 556 q 677 762 718 708 q 579 844 636 815 q 453 874 522 874 q 326 844 383 874 q 228 762 268 815 q 165 632 188 708 q 143 461 143 556 q 165 288 143 365 q 228 156 188 211 q 326 72 268 101 q 453 42 383 42 m 438 1143 l 410 1172 l 551 1313 l 588 1274 l 438 1143 m 281 1032 l 281 1082 l 625 1082 l 625 1032 l 281 1032 z "},"Ø":{"ha":906,"x_min":78,"x_max":836,"o":"m 458 -17 q 320 11 383 -17 q 208 90 257 39 l 117 -32 l 78 -1 l 175 129 q 106 275 131 192 q 82 461 82 358 q 110 656 82 569 q 188 805 138 743 q 307 899 238 867 q 458 932 376 932 q 592 907 531 932 q 703 835 654 882 l 786 947 l 826 917 l 736 797 q 810 651 785 735 q 836 461 836 567 q 808 265 836 353 q 731 114 781 176 q 611 17 681 51 q 458 -17 542 -17 m 149 461 q 166 306 149 376 q 215 183 183 236 l 664 785 q 572 851 624 828 q 458 874 521 874 q 331 844 389 874 q 233 762 274 815 q 171 632 193 708 q 149 461 149 556 m 458 42 q 585 72 528 42 q 683 156 642 101 q 746 288 724 211 q 768 461 768 365 q 749 619 768 549 q 696 743 731 690 l 246 140 q 340 67 286 93 q 458 42 393 42 z "},"Œ":{"ha":1157,"x_min":76,"x_max":1092,"o":"m 510 0 q 320 33 401 0 q 185 126 239 65 q 103 272 131 186 q 76 461 76 357 q 103 649 76 565 q 185 792 131 732 q 322 883 240 851 q 511 915 403 915 l 1078 915 l 1078 860 l 668 860 l 668 514 l 1008 514 l 1008 458 l 668 458 l 668 56 l 1092 56 l 1092 0 l 510 0 m 517 54 l 604 54 l 604 861 l 517 861 q 351 832 421 861 q 234 751 281 803 q 165 624 188 699 q 143 461 143 550 q 165 297 143 371 q 234 168 188 222 q 351 84 281 114 q 517 54 421 54 z "},"Ơ":{"ha":906,"x_min":82,"x_max":836,"o":"m 458 -17 q 307 17 376 -17 q 188 114 238 51 q 110 265 138 176 q 82 461 82 353 q 110 656 82 569 q 188 805 138 743 q 307 899 238 867 q 458 932 376 932 q 632 888 554 932 q 763 1010 763 910 q 758 1047 763 1026 q 743 1085 754 1067 l 797 1111 q 825 1014 825 1064 q 785 908 825 947 q 682 853 744 869 q 795 694 754 793 q 836 461 836 594 q 808 265 836 353 q 731 114 781 176 q 611 17 681 51 q 458 -17 542 -17 m 458 42 q 585 72 528 42 q 683 156 642 101 q 746 288 724 211 q 768 461 768 365 q 746 632 768 556 q 683 762 724 708 q 585 844 642 815 q 458 874 528 874 q 331 844 389 874 q 233 762 274 815 q 171 632 193 708 q 149 461 149 556 q 171 288 149 365 q 233 156 193 211 q 331 72 274 101 q 458 42 389 42 z "},"Ớ":{"ha":906,"x_min":82,"x_max":836,"o":"m 458 -17 q 307 17 376 -17 q 188 114 238 51 q 110 265 138 176 q 82 461 82 353 q 110 656 82 569 q 188 805 138 743 q 307 899 238 867 q 458 932 376 932 q 632 888 554 932 q 763 1010 763 910 q 758 1047 763 1026 q 743 1085 754 1067 l 797 1111 q 825 1014 825 1064 q 785 908 825 947 q 682 853 744 869 q 795 694 754 793 q 836 461 836 594 q 808 265 836 353 q 731 114 781 176 q 611 17 681 51 q 458 -17 542 -17 m 458 42 q 585 72 528 42 q 683 156 642 101 q 746 288 724 211 q 768 461 768 365 q 746 632 768 556 q 683 762 724 708 q 585 844 642 815 q 458 874 528 874 q 331 844 389 874 q 233 762 274 815 q 171 632 193 708 q 149 461 149 556 q 171 288 149 365 q 233 156 193 211 q 331 72 274 101 q 458 42 389 42 m 424 981 l 396 1013 l 569 1183 l 608 1138 l 424 981 z "},"Ờ":{"ha":906,"x_min":82,"x_max":836,"o":"m 458 -17 q 307 17 376 -17 q 188 114 238 51 q 110 265 138 176 q 82 461 82 353 q 110 656 82 569 q 188 805 138 743 q 307 899 238 867 q 458 932 376 932 q 632 888 554 932 q 763 1010 763 910 q 758 1047 763 1026 q 743 1085 754 1067 l 797 1111 q 825 1014 825 1064 q 785 908 825 947 q 682 853 744 869 q 795 694 754 793 q 836 461 836 594 q 808 265 836 353 q 731 114 781 176 q 611 17 681 51 q 458 -17 542 -17 m 458 42 q 585 72 528 42 q 683 156 642 101 q 746 288 724 211 q 768 461 768 365 q 746 632 768 556 q 683 762 724 708 q 585 844 642 815 q 458 874 528 874 q 331 844 389 874 q 233 762 274 815 q 171 632 193 708 q 149 461 149 556 q 171 288 149 365 q 233 156 193 211 q 331 72 274 101 q 458 42 389 42 m 482 981 l 297 1138 l 336 1183 l 510 1013 l 482 981 z "},"Ở":{"ha":906,"x_min":82,"x_max":836,"o":"m 458 -17 q 307 17 376 -17 q 188 114 238 51 q 110 265 138 176 q 82 461 82 353 q 110 656 82 569 q 188 805 138 743 q 307 899 238 867 q 458 932 376 932 q 632 888 554 932 q 763 1010 763 910 q 758 1047 763 1026 q 743 1085 754 1067 l 797 1111 q 825 1014 825 1064 q 785 908 825 947 q 682 853 744 869 q 795 694 754 793 q 836 461 836 594 q 808 265 836 353 q 731 114 781 176 q 611 17 681 51 q 458 -17 542 -17 m 458 42 q 585 72 528 42 q 683 156 642 101 q 746 288 724 211 q 768 461 768 365 q 746 632 768 556 q 683 762 724 708 q 585 844 642 815 q 458 874 528 874 q 331 844 389 874 q 233 762 274 815 q 171 632 193 708 q 149 461 149 556 q 171 288 149 365 q 233 156 193 211 q 331 72 274 101 q 458 42 389 42 m 418 975 l 407 1013 q 469 1041 444 1024 q 494 1088 494 1058 q 376 1154 494 1150 l 382 1199 q 447 1191 417 1197 q 501 1172 478 1185 q 537 1141 524 1160 q 550 1096 550 1122 q 539 1049 550 1068 q 509 1015 528 1029 q 467 992 490 1001 q 418 975 443 982 z "},"Ỡ":{"ha":906,"x_min":82,"x_max":836,"o":"m 458 -17 q 307 17 376 -17 q 188 114 238 51 q 110 265 138 176 q 82 461 82 353 q 110 656 82 569 q 188 805 138 743 q 307 899 238 867 q 458 932 376 932 q 632 888 554 932 q 763 1010 763 910 q 758 1047 763 1026 q 743 1085 754 1067 l 797 1111 q 825 1014 825 1064 q 785 908 825 947 q 682 853 744 869 q 795 694 754 793 q 836 461 836 594 q 808 265 836 353 q 731 114 781 176 q 611 17 681 51 q 458 -17 542 -17 m 458 42 q 585 72 528 42 q 683 156 642 101 q 746 288 724 211 q 768 461 768 365 q 746 632 768 556 q 683 762 724 708 q 585 844 642 815 q 458 874 528 874 q 331 844 389 874 q 233 762 274 815 q 171 632 193 708 q 149 461 149 556 q 171 288 149 365 q 233 156 193 211 q 331 72 274 101 q 458 42 389 42 m 557 997 q 489 1015 517 997 q 438 1052 461 1032 q 394 1090 415 1072 q 343 1107 372 1107 q 292 1078 313 1107 q 267 1001 271 1050 l 221 1006 q 255 1115 224 1071 q 343 1158 286 1158 q 411 1141 383 1158 q 462 1103 439 1124 q 506 1066 485 1083 q 557 1049 528 1049 q 607 1078 588 1049 q 633 1156 626 1107 l 679 1151 q 645 1042 676 1086 q 557 997 614 997 z "},"Ợ":{"ha":906,"x_min":82,"x_max":836,"o":"m 458 -17 q 307 17 376 -17 q 188 114 238 51 q 110 265 138 176 q 82 461 82 353 q 110 656 82 569 q 188 805 138 743 q 307 899 238 867 q 458 932 376 932 q 632 888 554 932 q 763 1010 763 910 q 758 1047 763 1026 q 743 1085 754 1067 l 797 1111 q 825 1014 825 1064 q 785 908 825 947 q 682 853 744 869 q 795 694 754 793 q 836 461 836 594 q 808 265 836 353 q 731 114 781 176 q 611 17 681 51 q 458 -17 542 -17 m 458 42 q 585 72 528 42 q 683 156 642 101 q 746 288 724 211 q 768 461 768 365 q 746 632 768 556 q 683 762 724 708 q 585 844 642 815 q 458 874 528 874 q 331 844 389 874 q 233 762 274 815 q 171 632 193 708 q 149 461 149 556 q 171 288 149 365 q 233 156 193 211 q 331 72 274 101 q 458 42 389 42 m 453 -269 q 415 -254 429 -269 q 400 -212 400 -239 q 415 -174 400 -189 q 453 -158 429 -158 q 491 -174 476 -158 q 506 -212 506 -189 q 491 -254 506 -239 q 453 -269 476 -269 z "},"Ǫ":{"ha":906,"x_min":76,"x_max":831,"o":"m 496 -285 q 413 -257 447 -285 q 379 -171 379 -229 q 401 -89 379 -129 q 464 -17 424 -49 q 302 17 374 -17 q 181 114 231 51 q 103 265 131 176 q 76 461 76 353 q 104 656 76 569 q 182 805 132 743 q 301 899 232 867 q 453 932 371 932 q 606 899 536 932 q 725 805 675 867 q 803 656 775 743 q 831 461 831 569 q 758 165 831 278 q 549 -11 686 51 q 462 -81 489 -37 q 435 -161 435 -124 q 456 -215 435 -197 q 504 -233 478 -233 q 564 -214 539 -233 l 588 -251 q 545 -275 571 -265 q 496 -285 519 -285 m 453 42 q 579 72 522 42 q 677 156 636 101 q 740 288 718 211 q 763 461 763 365 q 740 632 763 556 q 677 762 718 708 q 579 844 636 815 q 453 874 522 874 q 326 844 383 874 q 228 762 268 815 q 165 632 188 708 q 143 461 143 556 q 165 288 143 365 q 228 156 188 211 q 326 72 268 101 q 453 42 383 42 z "},"Ŕ":{"ha":756,"x_min":135,"x_max":715,"o":"m 135 0 l 135 915 l 397 915 q 521 902 465 915 q 615 860 576 889 q 676 785 654 831 q 697 674 697 739 q 634 501 697 564 q 463 425 571 439 l 715 0 l 642 0 l 393 421 l 199 421 l 199 0 l 135 0 m 199 474 l 381 474 q 567 523 503 474 q 632 674 632 572 q 567 819 632 776 q 381 861 501 861 l 199 861 l 199 474 m 356 981 l 328 1013 l 501 1183 l 540 1138 l 356 981 z "},"Ř":{"ha":756,"x_min":135,"x_max":715,"o":"m 135 0 l 135 915 l 397 915 q 521 902 465 915 q 615 860 576 889 q 676 785 654 831 q 697 674 697 739 q 634 501 697 564 q 463 425 571 439 l 715 0 l 642 0 l 393 421 l 199 421 l 199 0 l 135 0 m 199 474 l 381 474 q 567 523 503 474 q 632 674 632 572 q 567 819 632 776 q 381 861 501 861 l 199 861 l 199 474 m 354 985 l 197 1143 l 225 1168 l 382 1032 l 388 1032 l 544 1168 l 572 1143 l 415 985 l 354 985 z "},"Ṙ":{"ha":756,"x_min":135,"x_max":715,"o":"m 135 0 l 135 915 l 397 915 q 521 902 465 915 q 615 860 576 889 q 676 785 654 831 q 697 674 697 739 q 634 501 697 564 q 463 425 571 439 l 715 0 l 642 0 l 393 421 l 199 421 l 199 0 l 135 0 m 199 474 l 381 474 q 567 523 503 474 q 632 674 632 572 q 567 819 632 776 q 381 861 501 861 l 199 861 l 199 474 m 386 1001 q 347 1017 363 1001 q 331 1058 331 1032 q 347 1097 331 1082 q 386 1113 363 1113 q 426 1097 410 1113 q 442 1058 442 1082 q 426 1017 442 1032 q 386 1001 410 1001 z "},"Ŗ":{"ha":756,"x_min":135,"x_max":715,"o":"m 135 0 l 135 915 l 397 915 q 521 902 465 915 q 615 860 576 889 q 676 785 654 831 q 697 674 697 739 q 634 501 697 564 q 463 425 571 439 l 715 0 l 642 0 l 393 421 l 199 421 l 199 0 l 135 0 m 199 474 l 381 474 q 567 523 503 474 q 632 674 632 572 q 567 819 632 776 q 381 861 501 861 l 199 861 l 199 474 m 297 -304 l 288 -262 q 411 -239 378 -257 q 444 -190 444 -221 q 416 -144 444 -158 q 338 -125 388 -129 l 356 -85 q 467 -119 435 -96 q 499 -186 499 -142 q 447 -269 499 -240 q 297 -304 396 -297 z "},"Ṛ":{"ha":756,"x_min":135,"x_max":715,"o":"m 135 0 l 135 915 l 397 915 q 521 902 465 915 q 615 860 576 889 q 676 785 654 831 q 697 674 697 739 q 634 501 697 564 q 463 425 571 439 l 715 0 l 642 0 l 393 421 l 199 421 l 199 0 l 135 0 m 199 474 l 381 474 q 567 523 503 474 q 632 674 632 572 q 567 819 632 776 q 381 861 501 861 l 199 861 l 199 474 m 404 -269 q 366 -254 381 -269 q 351 -212 351 -239 q 366 -174 351 -189 q 404 -158 381 -158 q 442 -174 428 -158 q 457 -212 457 -189 q 442 -254 457 -239 q 404 -269 428 -269 z "},"Ṝ":{"ha":756,"x_min":135,"x_max":715,"o":"m 135 0 l 135 915 l 397 915 q 521 902 465 915 q 615 860 576 889 q 676 785 654 831 q 697 674 697 739 q 634 501 697 564 q 463 425 571 439 l 715 0 l 642 0 l 393 421 l 199 421 l 199 0 l 135 0 m 199 474 l 381 474 q 567 523 503 474 q 632 674 632 572 q 567 819 632 776 q 381 861 501 861 l 199 861 l 199 474 m 213 1032 l 213 1082 l 557 1082 l 557 1032 l 213 1032 m 404 -269 q 366 -254 381 -269 q 351 -212 351 -239 q 366 -174 351 -189 q 404 -158 381 -158 q 442 -174 428 -158 q 457 -212 457 -189 q 442 -254 457 -239 q 404 -269 428 -269 z "},"Ṟ":{"ha":756,"x_min":135,"x_max":715,"o":"m 135 0 l 135 915 l 397 915 q 521 902 465 915 q 615 860 576 889 q 676 785 654 831 q 697 674 697 739 q 634 501 697 564 q 463 425 571 439 l 715 0 l 642 0 l 393 421 l 199 421 l 199 0 l 135 0 m 199 474 l 381 474 q 567 523 503 474 q 632 674 632 572 q 567 819 632 776 q 381 861 501 861 l 199 861 l 199 474 m 233 -221 l 233 -171 l 575 -171 l 575 -221 l 233 -221 z "},"Ś":{"ha":724,"x_min":64,"x_max":667,"o":"m 374 -17 q 196 22 274 -17 q 64 121 118 60 l 106 165 q 225 75 156 108 q 374 42 294 42 q 540 92 479 42 q 601 225 601 143 q 588 298 601 268 q 553 349 575 328 q 501 386 531 371 q 438 417 471 401 l 299 479 q 236 510 269 492 q 176 555 203 528 q 131 619 149 582 q 113 707 113 656 q 133 798 113 757 q 188 869 153 839 q 273 915 224 899 q 379 932 322 932 q 527 899 463 932 q 633 822 592 867 l 597 781 q 503 848 557 822 q 379 874 449 874 q 232 829 288 874 q 176 710 176 785 q 192 642 176 669 q 231 594 207 614 q 282 559 254 574 q 335 533 310 544 l 474 472 q 547 435 513 456 q 608 386 582 414 q 651 320 635 358 q 667 229 667 282 q 646 131 667 176 q 587 53 625 86 q 494 2 549 21 q 374 -17 440 -17 m 347 981 l 319 1013 l 493 1183 l 532 1138 l 347 981 z "},"Ŝ":{"ha":724,"x_min":64,"x_max":667,"o":"m 374 -17 q 196 22 274 -17 q 64 121 118 60 l 106 165 q 225 75 156 108 q 374 42 294 42 q 540 92 479 42 q 601 225 601 143 q 588 298 601 268 q 553 349 575 328 q 501 386 531 371 q 438 417 471 401 l 299 479 q 236 510 269 492 q 176 555 203 528 q 131 619 149 582 q 113 707 113 656 q 133 798 113 757 q 188 869 153 839 q 273 915 224 899 q 379 932 322 932 q 527 899 463 932 q 633 822 592 867 l 597 781 q 503 848 557 822 q 379 874 449 874 q 232 829 288 874 q 176 710 176 785 q 192 642 176 669 q 231 594 207 614 q 282 559 254 574 q 335 533 310 544 l 474 472 q 547 435 513 456 q 608 386 582 414 q 651 320 635 358 q 667 229 667 282 q 646 131 667 176 q 587 53 625 86 q 494 2 549 21 q 374 -17 440 -17 m 189 1008 l 346 1165 l 407 1165 l 564 1008 l 536 982 l 379 1118 l 374 1118 l 217 982 l 189 1008 z "},"Š":{"ha":724,"x_min":64,"x_max":667,"o":"m 374 -17 q 196 22 274 -17 q 64 121 118 60 l 106 165 q 225 75 156 108 q 374 42 294 42 q 540 92 479 42 q 601 225 601 143 q 588 298 601 268 q 553 349 575 328 q 501 386 531 371 q 438 417 471 401 l 299 479 q 236 510 269 492 q 176 555 203 528 q 131 619 149 582 q 113 707 113 656 q 133 798 113 757 q 188 869 153 839 q 273 915 224 899 q 379 932 322 932 q 527 899 463 932 q 633 822 592 867 l 597 781 q 503 848 557 822 q 379 874 449 874 q 232 829 288 874 q 176 710 176 785 q 192 642 176 669 q 231 594 207 614 q 282 559 254 574 q 335 533 310 544 l 474 472 q 547 435 513 456 q 608 386 582 414 q 651 320 635 358 q 667 229 667 282 q 646 131 667 176 q 587 53 625 86 q 494 2 549 21 q 374 -17 440 -17 m 346 985 l 189 1143 l 217 1168 l 374 1032 l 379 1032 l 536 1168 l 564 1143 l 407 985 l 346 985 z "},"Ş":{"ha":724,"x_min":64,"x_max":667,"o":"m 374 -17 q 196 22 274 -17 q 64 121 118 60 l 106 165 q 225 75 156 108 q 374 42 294 42 q 540 92 479 42 q 601 225 601 143 q 588 298 601 268 q 553 349 575 328 q 501 386 531 371 q 438 417 471 401 l 299 479 q 236 510 269 492 q 176 555 203 528 q 131 619 149 582 q 113 707 113 656 q 133 798 113 757 q 188 869 153 839 q 273 915 224 899 q 379 932 322 932 q 527 899 463 932 q 633 822 592 867 l 597 781 q 503 848 557 822 q 379 874 449 874 q 232 829 288 874 q 176 710 176 785 q 192 642 176 669 q 231 594 207 614 q 282 559 254 574 q 335 533 310 544 l 474 472 q 547 435 513 456 q 608 386 582 414 q 651 320 635 358 q 667 229 667 282 q 646 131 667 176 q 587 53 625 86 q 494 2 549 21 q 374 -17 440 -17 m 265 -304 l 256 -262 q 379 -239 346 -257 q 413 -189 413 -221 q 388 -142 413 -158 q 304 -118 363 -126 l 361 3 l 410 3 l 368 -90 q 440 -123 413 -101 q 467 -186 467 -144 q 415 -269 467 -240 q 265 -304 364 -297 z "},"Ș":{"ha":724,"x_min":64,"x_max":667,"o":"m 374 -17 q 196 22 274 -17 q 64 121 118 60 l 106 165 q 225 75 156 108 q 374 42 294 42 q 540 92 479 42 q 601 225 601 143 q 588 298 601 268 q 553 349 575 328 q 501 386 531 371 q 438 417 471 401 l 299 479 q 236 510 269 492 q 176 555 203 528 q 131 619 149 582 q 113 707 113 656 q 133 798 113 757 q 188 869 153 839 q 273 915 224 899 q 379 932 322 932 q 527 899 463 932 q 633 822 592 867 l 597 781 q 503 848 557 822 q 379 874 449 874 q 232 829 288 874 q 176 710 176 785 q 192 642 176 669 q 231 594 207 614 q 282 559 254 574 q 335 533 310 544 l 474 472 q 547 435 513 456 q 608 386 582 414 q 651 320 635 358 q 667 229 667 282 q 646 131 667 176 q 587 53 625 86 q 494 2 549 21 q 374 -17 440 -17 m 265 -304 l 256 -262 q 379 -239 346 -257 q 413 -190 413 -221 q 384 -144 413 -158 q 306 -125 356 -129 l 324 -85 q 435 -119 403 -96 q 467 -186 467 -142 q 415 -269 467 -240 q 265 -304 364 -297 z "},"Ṡ":{"ha":724,"x_min":64,"x_max":667,"o":"m 374 -17 q 196 22 274 -17 q 64 121 118 60 l 106 165 q 225 75 156 108 q 374 42 294 42 q 540 92 479 42 q 601 225 601 143 q 588 298 601 268 q 553 349 575 328 q 501 386 531 371 q 438 417 471 401 l 299 479 q 236 510 269 492 q 176 555 203 528 q 131 619 149 582 q 113 707 113 656 q 133 798 113 757 q 188 869 153 839 q 273 915 224 899 q 379 932 322 932 q 527 899 463 932 q 633 822 592 867 l 597 781 q 503 848 557 822 q 379 874 449 874 q 232 829 288 874 q 176 710 176 785 q 192 642 176 669 q 231 594 207 614 q 282 559 254 574 q 335 533 310 544 l 474 472 q 547 435 513 456 q 608 386 582 414 q 651 320 635 358 q 667 229 667 282 q 646 131 667 176 q 587 53 625 86 q 494 2 549 21 q 374 -17 440 -17 m 376 1001 q 337 1017 353 1001 q 321 1058 321 1032 q 337 1097 321 1082 q 376 1113 353 1113 q 416 1097 400 1113 q 432 1058 432 1082 q 416 1017 432 1032 q 376 1001 400 1001 z "},"Ṣ":{"ha":724,"x_min":64,"x_max":667,"o":"m 374 -17 q 196 22 274 -17 q 64 121 118 60 l 106 165 q 225 75 156 108 q 374 42 294 42 q 540 92 479 42 q 601 225 601 143 q 588 298 601 268 q 553 349 575 328 q 501 386 531 371 q 438 417 471 401 l 299 479 q 236 510 269 492 q 176 555 203 528 q 131 619 149 582 q 113 707 113 656 q 133 798 113 757 q 188 869 153 839 q 273 915 224 899 q 379 932 322 932 q 527 899 463 932 q 633 822 592 867 l 597 781 q 503 848 557 822 q 379 874 449 874 q 232 829 288 874 q 176 710 176 785 q 192 642 176 669 q 231 594 207 614 q 282 559 254 574 q 335 533 310 544 l 474 472 q 547 435 513 456 q 608 386 582 414 q 651 320 635 358 q 667 229 667 282 q 646 131 667 176 q 587 53 625 86 q 494 2 549 21 q 374 -17 440 -17 m 372 -269 q 334 -254 349 -269 q 319 -212 319 -239 q 334 -174 319 -189 q 372 -158 349 -158 q 410 -174 396 -158 q 425 -212 425 -189 q 410 -254 425 -239 q 372 -269 396 -269 z "},"ẞ":{"ha":894,"x_min":136,"x_max":832,"o":"m 578 -17 q 440 12 504 -17 q 332 93 376 40 l 375 138 q 467 64 418 88 q 578 40 515 40 q 717 94 668 40 q 765 231 765 147 q 753 305 765 269 q 708 369 742 340 q 616 421 675 399 q 464 458 557 443 l 460 507 l 674 743 q 597 837 647 799 q 468 875 547 875 q 272 801 344 875 q 200 568 200 728 l 200 0 l 136 0 l 136 586 q 160 734 136 669 q 229 842 185 799 q 335 909 274 886 q 471 932 396 932 q 641 880 575 932 q 747 740 707 828 l 531 504 q 673 465 615 490 q 766 403 731 439 q 817 324 801 368 q 832 232 832 281 q 813 133 832 179 q 760 54 794 88 q 680 2 726 21 q 578 -17 633 -17 z "},"Ť":{"ha":728,"x_min":40,"x_max":688,"o":"m 332 0 l 332 860 l 40 860 l 40 915 l 688 915 l 688 860 l 396 860 l 396 0 l 332 0 m 332 985 l 175 1143 l 203 1168 l 360 1032 l 365 1032 l 522 1168 l 550 1143 l 393 985 l 332 985 z "},"Ţ":{"ha":728,"x_min":40,"x_max":688,"o":"m 332 0 l 332 860 l 40 860 l 40 915 l 688 915 l 688 860 l 396 860 l 396 0 l 332 0 m 247 -304 l 238 -262 q 361 -239 328 -257 q 394 -189 394 -221 q 369 -142 394 -158 q 286 -118 344 -126 l 343 3 l 392 3 l 350 -90 q 422 -123 394 -101 q 449 -186 449 -144 q 397 -269 449 -240 q 247 -304 346 -297 z "},"Ț":{"ha":728,"x_min":40,"x_max":688,"o":"m 332 0 l 332 860 l 40 860 l 40 915 l 688 915 l 688 860 l 396 860 l 396 0 l 332 0 m 258 -304 l 249 -262 q 372 -239 339 -257 q 406 -190 406 -221 q 377 -144 406 -158 q 299 -125 349 -129 l 317 -85 q 428 -119 396 -96 q 460 -186 460 -142 q 408 -269 460 -240 q 258 -304 357 -297 z "},"Ṭ":{"ha":728,"x_min":40,"x_max":688,"o":"m 332 0 l 332 860 l 40 860 l 40 915 l 688 915 l 688 860 l 396 860 l 396 0 l 332 0 m 365 -269 q 327 -254 342 -269 q 313 -212 313 -239 q 327 -174 313 -189 q 365 -158 342 -158 q 403 -174 389 -158 q 418 -212 418 -189 q 403 -254 418 -239 q 365 -269 389 -269 z "},"Ṯ":{"ha":728,"x_min":40,"x_max":688,"o":"m 332 0 l 332 860 l 40 860 l 40 915 l 688 915 l 688 860 l 396 860 l 396 0 l 332 0 m 194 -221 l 194 -171 l 536 -171 l 536 -221 l 194 -221 z "},"Ŧ":{"ha":728,"x_min":40,"x_max":688,"o":"m 332 0 l 332 458 l 156 458 l 156 501 l 275 504 l 332 504 l 332 860 l 40 860 l 40 915 l 688 915 l 688 860 l 396 860 l 396 504 l 572 504 l 572 458 l 396 458 l 396 0 l 332 0 z "},"Ù":{"ha":881,"x_min":132,"x_max":749,"o":"m 439 -17 q 325 1 381 -17 q 226 60 269 18 q 158 174 183 103 q 132 351 132 244 l 132 915 l 196 915 l 196 358 q 216 206 196 267 q 269 109 236 146 q 347 57 303 72 q 439 42 390 42 q 534 57 489 42 q 613 109 579 72 q 668 206 647 146 q 689 358 689 267 l 689 915 l 749 915 l 749 351 q 722 174 749 244 q 653 60 696 103 q 554 1 610 18 q 439 -17 499 -17 m 469 981 l 285 1138 l 324 1183 l 497 1013 l 469 981 z "},"Ú":{"ha":881,"x_min":132,"x_max":749,"o":"m 439 -17 q 325 1 381 -17 q 226 60 269 18 q 158 174 183 103 q 132 351 132 244 l 132 915 l 196 915 l 196 358 q 216 206 196 267 q 269 109 236 146 q 347 57 303 72 q 439 42 390 42 q 534 57 489 42 q 613 109 579 72 q 668 206 647 146 q 689 358 689 267 l 689 915 l 749 915 l 749 351 q 722 174 749 244 q 653 60 696 103 q 554 1 610 18 q 439 -17 499 -17 m 411 981 l 383 1013 l 557 1183 l 596 1138 l 411 981 z "},"Û":{"ha":881,"x_min":132,"x_max":749,"o":"m 439 -17 q 325 1 381 -17 q 226 60 269 18 q 158 174 183 103 q 132 351 132 244 l 132 915 l 196 915 l 196 358 q 216 206 196 267 q 269 109 236 146 q 347 57 303 72 q 439 42 390 42 q 534 57 489 42 q 613 109 579 72 q 668 206 647 146 q 689 358 689 267 l 689 915 l 749 915 l 749 351 q 722 174 749 244 q 653 60 696 103 q 554 1 610 18 q 439 -17 499 -17 m 253 1008 l 410 1165 l 471 1165 l 628 1008 l 600 982 l 443 1118 l 438 1118 l 281 982 l 253 1008 z "},"Ũ":{"ha":881,"x_min":132,"x_max":749,"o":"m 439 -17 q 325 1 381 -17 q 226 60 269 18 q 158 174 183 103 q 132 351 132 244 l 132 915 l 196 915 l 196 358 q 216 206 196 267 q 269 109 236 146 q 347 57 303 72 q 439 42 390 42 q 534 57 489 42 q 613 109 579 72 q 668 206 647 146 q 689 358 689 267 l 689 915 l 749 915 l 749 351 q 722 174 749 244 q 653 60 696 103 q 554 1 610 18 q 439 -17 499 -17 m 547 997 q 479 1015 507 997 q 428 1052 451 1032 q 384 1090 406 1072 q 333 1107 363 1107 q 282 1078 303 1107 q 257 1001 261 1050 l 211 1006 q 245 1115 214 1071 q 333 1158 276 1158 q 401 1141 374 1158 q 452 1103 429 1124 q 497 1066 475 1083 q 547 1049 518 1049 q 597 1078 578 1049 q 624 1156 617 1107 l 669 1151 q 635 1042 667 1086 q 547 997 604 997 z "},"Ü":{"ha":881,"x_min":132,"x_max":749,"o":"m 439 -17 q 325 1 381 -17 q 226 60 269 18 q 158 174 183 103 q 132 351 132 244 l 132 915 l 196 915 l 196 358 q 216 206 196 267 q 269 109 236 146 q 347 57 303 72 q 439 42 390 42 q 534 57 489 42 q 613 109 579 72 q 668 206 647 146 q 689 358 689 267 l 689 915 l 749 915 l 749 351 q 722 174 749 244 q 653 60 696 103 q 554 1 610 18 q 439 -17 499 -17 m 304 1007 q 268 1020 282 1007 q 254 1057 254 1033 q 268 1094 254 1081 q 304 1108 282 1108 q 341 1094 326 1108 q 356 1057 356 1081 q 341 1020 356 1033 q 304 1007 326 1007 m 576 1007 q 540 1020 554 1007 q 525 1057 525 1033 q 540 1094 525 1081 q 576 1108 554 1108 q 613 1094 599 1108 q 626 1057 626 1081 q 613 1020 626 1033 q 576 1007 599 1007 z "},"Ū":{"ha":881,"x_min":132,"x_max":749,"o":"m 439 -17 q 325 1 381 -17 q 226 60 269 18 q 158 174 183 103 q 132 351 132 244 l 132 915 l 196 915 l 196 358 q 216 206 196 267 q 269 109 236 146 q 347 57 303 72 q 439 42 390 42 q 534 57 489 42 q 613 109 579 72 q 668 206 647 146 q 689 358 689 267 l 689 915 l 749 915 l 749 351 q 722 174 749 244 q 653 60 696 103 q 554 1 610 18 q 439 -17 499 -17 m 268 1032 l 268 1082 l 613 1082 l 613 1032 l 268 1032 z "},"Ŭ":{"ha":881,"x_min":132,"x_max":749,"o":"m 439 -17 q 325 1 381 -17 q 226 60 269 18 q 158 174 183 103 q 132 351 132 244 l 132 915 l 196 915 l 196 358 q 216 206 196 267 q 269 109 236 146 q 347 57 303 72 q 439 42 390 42 q 534 57 489 42 q 613 109 579 72 q 668 206 647 146 q 689 358 689 267 l 689 915 l 749 915 l 749 351 q 722 174 749 244 q 653 60 696 103 q 554 1 610 18 q 439 -17 499 -17 m 440 986 q 360 1001 394 986 q 303 1042 326 1017 q 268 1097 281 1067 q 251 1158 256 1128 l 297 1165 q 311 1115 301 1139 q 339 1073 321 1092 q 382 1043 357 1054 q 440 1032 407 1032 q 499 1043 474 1032 q 542 1073 524 1054 q 569 1115 560 1092 q 583 1165 579 1139 l 629 1158 q 613 1097 625 1128 q 577 1042 600 1067 q 520 1001 554 1017 q 440 986 486 986 z "},"Ů":{"ha":881,"x_min":132,"x_max":749,"o":"m 439 -17 q 325 1 381 -17 q 226 60 269 18 q 158 174 183 103 q 132 351 132 244 l 132 915 l 196 915 l 196 358 q 216 206 196 267 q 269 109 236 146 q 347 57 303 72 q 439 42 390 42 q 534 57 489 42 q 613 109 579 72 q 668 206 647 146 q 689 358 689 267 l 689 915 l 749 915 l 749 351 q 722 174 749 244 q 653 60 696 103 q 554 1 610 18 q 439 -17 499 -17 m 440 972 q 353 1005 388 972 q 318 1090 318 1038 q 353 1178 318 1146 q 440 1210 388 1210 q 526 1178 490 1210 q 563 1090 563 1146 q 526 1005 563 1038 q 440 972 490 972 m 440 1008 q 495 1029 472 1008 q 518 1090 518 1050 q 495 1152 518 1131 q 440 1174 472 1174 q 383 1152 407 1174 q 360 1090 360 1131 q 383 1029 360 1050 q 440 1008 407 1008 z "},"Ű":{"ha":881,"x_min":132,"x_max":749,"o":"m 439 -17 q 325 1 381 -17 q 226 60 269 18 q 158 174 183 103 q 132 351 132 244 l 132 915 l 196 915 l 196 358 q 216 206 196 267 q 269 109 236 146 q 347 57 303 72 q 439 42 390 42 q 534 57 489 42 q 613 109 579 72 q 668 206 647 146 q 689 358 689 267 l 689 915 l 749 915 l 749 351 q 722 174 749 244 q 653 60 696 103 q 554 1 610 18 q 439 -17 499 -17 m 325 1001 l 447 1207 l 494 1178 l 361 983 l 325 1001 m 525 1001 l 647 1207 l 694 1178 l 561 983 l 525 1001 z "},"Ǔ":{"ha":881,"x_min":132,"x_max":749,"o":"m 439 -17 q 325 1 381 -17 q 226 60 269 18 q 158 174 183 103 q 132 351 132 244 l 132 915 l 196 915 l 196 358 q 216 206 196 267 q 269 109 236 146 q 347 57 303 72 q 439 42 390 42 q 534 57 489 42 q 613 109 579 72 q 668 206 647 146 q 689 358 689 267 l 689 915 l 749 915 l 749 351 q 722 174 749 244 q 653 60 696 103 q 554 1 610 18 q 439 -17 499 -17 m 410 985 l 253 1143 l 281 1168 l 438 1032 l 443 1032 l 600 1168 l 628 1143 l 471 985 l 410 985 z "},"Ǖ":{"ha":881,"x_min":132,"x_max":749,"o":"m 439 -17 q 325 1 381 -17 q 226 60 269 18 q 158 174 183 103 q 132 351 132 244 l 132 915 l 196 915 l 196 358 q 216 206 196 267 q 269 109 236 146 q 347 57 303 72 q 439 42 390 42 q 534 57 489 42 q 613 109 579 72 q 668 206 647 146 q 689 358 689 267 l 689 915 l 749 915 l 749 351 q 722 174 749 244 q 653 60 696 103 q 554 1 610 18 q 439 -17 499 -17 m 304 1007 q 269 1019 283 1007 q 256 1056 256 1032 q 269 1092 256 1079 q 304 1106 283 1106 q 340 1092 325 1106 q 354 1056 354 1079 q 340 1019 354 1032 q 304 1007 325 1007 m 268 1186 l 268 1232 l 613 1232 l 613 1186 l 268 1186 m 576 1007 q 541 1019 556 1007 q 526 1056 526 1032 q 541 1092 526 1079 q 576 1106 556 1106 q 611 1092 597 1106 q 625 1056 625 1079 q 611 1019 625 1032 q 576 1007 597 1007 z "},"Ǘ":{"ha":881,"x_min":132,"x_max":749,"o":"m 439 -17 q 325 1 381 -17 q 226 60 269 18 q 158 174 183 103 q 132 351 132 244 l 132 915 l 196 915 l 196 358 q 216 206 196 267 q 269 109 236 146 q 347 57 303 72 q 439 42 390 42 q 534 57 489 42 q 613 109 579 72 q 668 206 647 146 q 689 358 689 267 l 689 915 l 749 915 l 749 351 q 722 174 749 244 q 653 60 696 103 q 554 1 610 18 q 439 -17 499 -17 m 304 1007 q 269 1019 283 1007 q 256 1056 256 1032 q 269 1092 256 1079 q 304 1106 283 1106 q 340 1092 325 1106 q 354 1056 354 1079 q 340 1019 354 1032 q 304 1007 325 1007 m 401 1165 l 532 1313 l 575 1278 l 432 1142 l 401 1165 m 576 1007 q 541 1019 556 1007 q 526 1056 526 1032 q 541 1092 526 1079 q 576 1106 556 1106 q 611 1092 597 1106 q 625 1056 625 1079 q 611 1019 625 1032 q 576 1007 597 1007 z "},"Ǚ":{"ha":881,"x_min":132,"x_max":749,"o":"m 439 -17 q 325 1 381 -17 q 226 60 269 18 q 158 174 183 103 q 132 351 132 244 l 132 915 l 196 915 l 196 358 q 216 206 196 267 q 269 109 236 146 q 347 57 303 72 q 439 42 390 42 q 534 57 489 42 q 613 109 579 72 q 668 206 647 146 q 689 358 689 267 l 689 915 l 749 915 l 749 351 q 722 174 749 244 q 653 60 696 103 q 554 1 610 18 q 439 -17 499 -17 m 413 1151 l 268 1282 l 294 1310 l 438 1203 l 443 1203 l 586 1310 l 613 1282 l 468 1151 l 413 1151 m 304 1007 q 269 1019 283 1007 q 256 1056 256 1032 q 269 1092 256 1079 q 304 1106 283 1106 q 340 1092 325 1106 q 354 1056 354 1079 q 340 1019 354 1032 q 304 1007 325 1007 m 576 1007 q 541 1019 556 1007 q 526 1056 526 1032 q 541 1092 526 1079 q 576 1106 556 1106 q 611 1092 597 1106 q 625 1056 625 1079 q 611 1019 625 1032 q 576 1007 597 1007 z "},"Ǜ":{"ha":881,"x_min":132,"x_max":749,"o":"m 439 -17 q 325 1 381 -17 q 226 60 269 18 q 158 174 183 103 q 132 351 132 244 l 132 915 l 196 915 l 196 358 q 216 206 196 267 q 269 109 236 146 q 347 57 303 72 q 439 42 390 42 q 534 57 489 42 q 613 109 579 72 q 668 206 647 146 q 689 358 689 267 l 689 915 l 749 915 l 749 351 q 722 174 749 244 q 653 60 696 103 q 554 1 610 18 q 439 -17 499 -17 m 479 1165 l 449 1142 l 306 1278 l 349 1313 l 479 1165 m 304 1007 q 269 1019 283 1007 q 256 1056 256 1032 q 269 1092 256 1079 q 304 1106 283 1106 q 340 1092 325 1106 q 354 1056 354 1079 q 340 1019 354 1032 q 304 1007 325 1007 m 576 1007 q 541 1019 556 1007 q 526 1056 526 1032 q 541 1092 526 1079 q 576 1106 556 1106 q 611 1092 597 1106 q 625 1056 625 1079 q 611 1019 625 1032 q 576 1007 597 1007 z "},"Ụ":{"ha":881,"x_min":132,"x_max":749,"o":"m 439 -17 q 325 1 381 -17 q 226 60 269 18 q 158 174 183 103 q 132 351 132 244 l 132 915 l 196 915 l 196 358 q 216 206 196 267 q 269 109 236 146 q 347 57 303 72 q 439 42 390 42 q 534 57 489 42 q 613 109 579 72 q 668 206 647 146 q 689 358 689 267 l 689 915 l 749 915 l 749 351 q 722 174 749 244 q 653 60 696 103 q 554 1 610 18 q 439 -17 499 -17 m 440 -269 q 402 -254 417 -269 q 388 -212 388 -239 q 402 -174 388 -189 q 440 -158 417 -158 q 478 -174 464 -158 q 493 -212 493 -189 q 478 -254 493 -239 q 440 -269 464 -269 z "},"Ủ":{"ha":881,"x_min":132,"x_max":749,"o":"m 439 -17 q 325 1 381 -17 q 226 60 269 18 q 158 174 183 103 q 132 351 132 244 l 132 915 l 196 915 l 196 358 q 216 206 196 267 q 269 109 236 146 q 347 57 303 72 q 439 42 390 42 q 534 57 489 42 q 613 109 579 72 q 668 206 647 146 q 689 358 689 267 l 689 915 l 749 915 l 749 351 q 722 174 749 244 q 653 60 696 103 q 554 1 610 18 q 439 -17 499 -17 m 406 975 l 394 1013 q 457 1041 432 1024 q 482 1088 482 1058 q 364 1154 482 1150 l 369 1199 q 435 1191 404 1197 q 488 1172 465 1185 q 524 1141 511 1160 q 538 1096 538 1122 q 526 1049 538 1068 q 497 1015 515 1029 q 454 992 478 1001 q 406 975 431 982 z "},"Ų":{"ha":881,"x_min":132,"x_max":749,"o":"m 481 -285 q 397 -257 432 -285 q 363 -171 363 -229 q 371 -122 363 -144 q 392 -82 379 -100 q 420 -48 404 -64 q 451 -17 436 -32 q 326 1 385 -17 q 225 63 268 19 q 157 176 182 106 q 132 351 132 247 l 132 915 l 196 915 l 196 358 q 216 206 196 267 q 269 109 236 146 q 347 57 303 72 q 439 42 390 42 q 534 57 489 42 q 613 109 579 72 q 668 206 647 146 q 689 358 689 267 l 689 915 l 749 915 l 749 351 q 731 201 749 261 q 684 101 714 142 q 615 35 654 61 q 535 -11 576 10 q 449 -82 479 -39 q 418 -161 418 -125 q 440 -215 418 -197 q 489 -233 461 -233 q 549 -214 521 -233 l 571 -251 q 529 -275 556 -265 q 481 -285 503 -285 z "},"Ư":{"ha":896,"x_min":132,"x_max":896,"o":"m 439 -17 q 325 1 381 -17 q 226 60 269 18 q 158 174 183 103 q 132 351 132 244 l 132 915 l 196 915 l 196 358 q 216 206 196 267 q 269 109 236 146 q 347 57 303 72 q 439 42 390 42 q 534 57 489 42 q 613 109 579 72 q 668 206 647 146 q 689 358 689 267 l 689 915 l 703 915 q 801 953 769 925 q 833 1038 833 982 q 829 1074 833 1054 q 814 1113 825 1094 l 869 1139 q 896 1042 896 1090 q 883 976 896 1004 q 850 930 871 949 q 803 899 829 911 q 749 879 776 886 l 749 351 q 722 174 749 244 q 653 60 696 103 q 554 1 610 18 q 439 -17 499 -17 z "},"Ứ":{"ha":896,"x_min":132,"x_max":896,"o":"m 439 -17 q 325 1 381 -17 q 226 60 269 18 q 158 174 183 103 q 132 351 132 244 l 132 915 l 196 915 l 196 358 q 216 206 196 267 q 269 109 236 146 q 347 57 303 72 q 439 42 390 42 q 534 57 489 42 q 613 109 579 72 q 668 206 647 146 q 689 358 689 267 l 689 915 l 703 915 q 801 953 769 925 q 833 1038 833 982 q 829 1074 833 1054 q 814 1113 825 1094 l 869 1139 q 896 1042 896 1090 q 883 976 896 1004 q 850 930 871 949 q 803 899 829 911 q 749 879 776 886 l 749 351 q 722 174 749 244 q 653 60 696 103 q 554 1 610 18 q 439 -17 499 -17 m 410 981 l 382 1013 l 556 1183 l 594 1138 l 410 981 z "},"Ừ":{"ha":896,"x_min":132,"x_max":896,"o":"m 439 -17 q 325 1 381 -17 q 226 60 269 18 q 158 174 183 103 q 132 351 132 244 l 132 915 l 196 915 l 196 358 q 216 206 196 267 q 269 109 236 146 q 347 57 303 72 q 439 42 390 42 q 534 57 489 42 q 613 109 579 72 q 668 206 647 146 q 689 358 689 267 l 689 915 l 703 915 q 801 953 769 925 q 833 1038 833 982 q 829 1074 833 1054 q 814 1113 825 1094 l 869 1139 q 896 1042 896 1090 q 883 976 896 1004 q 850 930 871 949 q 803 899 829 911 q 749 879 776 886 l 749 351 q 722 174 749 244 q 653 60 696 103 q 554 1 610 18 q 439 -17 499 -17 m 468 981 l 283 1138 l 322 1183 l 496 1013 l 468 981 z "},"Ử":{"ha":896,"x_min":132,"x_max":896,"o":"m 439 -17 q 325 1 381 -17 q 226 60 269 18 q 158 174 183 103 q 132 351 132 244 l 132 915 l 196 915 l 196 358 q 216 206 196 267 q 269 109 236 146 q 347 57 303 72 q 439 42 390 42 q 534 57 489 42 q 613 109 579 72 q 668 206 647 146 q 689 358 689 267 l 689 915 l 703 915 q 801 953 769 925 q 833 1038 833 982 q 829 1074 833 1054 q 814 1113 825 1094 l 869 1139 q 896 1042 896 1090 q 883 976 896 1004 q 850 930 871 949 q 803 899 829 911 q 749 879 776 886 l 749 351 q 722 174 749 244 q 653 60 696 103 q 554 1 610 18 q 439 -17 499 -17 m 404 975 l 393 1013 q 456 1041 431 1024 q 481 1088 481 1058 q 363 1154 481 1150 l 368 1199 q 433 1191 403 1197 q 487 1172 464 1185 q 523 1141 510 1160 q 536 1096 536 1122 q 525 1049 536 1068 q 495 1015 514 1029 q 453 992 476 1001 q 404 975 429 982 z "},"Ữ":{"ha":896,"x_min":132,"x_max":896,"o":"m 439 -17 q 325 1 381 -17 q 226 60 269 18 q 158 174 183 103 q 132 351 132 244 l 132 915 l 196 915 l 196 358 q 216 206 196 267 q 269 109 236 146 q 347 57 303 72 q 439 42 390 42 q 534 57 489 42 q 613 109 579 72 q 668 206 647 146 q 689 358 689 267 l 689 915 l 703 915 q 801 953 769 925 q 833 1038 833 982 q 829 1074 833 1054 q 814 1113 825 1094 l 869 1139 q 896 1042 896 1090 q 883 976 896 1004 q 850 930 871 949 q 803 899 829 911 q 749 879 776 886 l 749 351 q 722 174 749 244 q 653 60 696 103 q 554 1 610 18 q 439 -17 499 -17 m 546 997 q 478 1015 506 997 q 427 1052 450 1032 q 383 1090 404 1072 q 332 1107 361 1107 q 281 1078 301 1107 q 256 1001 260 1050 l 210 1006 q 244 1115 213 1071 q 332 1158 275 1158 q 400 1141 372 1158 q 451 1103 428 1124 q 495 1066 474 1083 q 546 1049 517 1049 q 596 1078 576 1049 q 622 1156 615 1107 l 668 1151 q 634 1042 665 1086 q 546 997 603 997 z "},"Ự":{"ha":896,"x_min":132,"x_max":896,"o":"m 439 -17 q 325 1 381 -17 q 226 60 269 18 q 158 174 183 103 q 132 351 132 244 l 132 915 l 196 915 l 196 358 q 216 206 196 267 q 269 109 236 146 q 347 57 303 72 q 439 42 390 42 q 534 57 489 42 q 613 109 579 72 q 668 206 647 146 q 689 358 689 267 l 689 915 l 703 915 q 801 953 769 925 q 833 1038 833 982 q 829 1074 833 1054 q 814 1113 825 1094 l 869 1139 q 896 1042 896 1090 q 883 976 896 1004 q 850 930 871 949 q 803 899 829 911 q 749 879 776 886 l 749 351 q 722 174 749 244 q 653 60 696 103 q 554 1 610 18 q 439 -17 499 -17 m 439 -269 q 401 -254 415 -269 q 386 -212 386 -239 q 401 -174 386 -189 q 439 -158 415 -158 q 477 -174 463 -158 q 492 -212 492 -189 q 477 -254 492 -239 q 439 -269 463 -269 z "},"Ẁ":{"ha":1069,"x_min":39,"x_max":1028,"o":"m 247 0 l 39 915 l 106 915 l 221 376 q 252 227 236 301 q 283 78 268 153 l 289 78 q 323 227 306 153 q 360 376 340 301 l 503 915 l 568 915 l 711 376 q 748 227 731 301 q 785 78 765 153 l 790 78 q 820 227 806 153 q 850 376 835 301 l 965 915 l 1028 915 l 824 0 l 753 0 l 586 628 q 561 731 574 682 q 538 835 549 781 l 532 835 q 507 731 521 781 q 481 628 493 682 l 317 0 l 247 0 m 564 981 l 379 1138 l 418 1183 l 592 1013 l 564 981 z "},"Ẃ":{"ha":1069,"x_min":39,"x_max":1028,"o":"m 247 0 l 39 915 l 106 915 l 221 376 q 252 227 236 301 q 283 78 268 153 l 289 78 q 323 227 306 153 q 360 376 340 301 l 503 915 l 568 915 l 711 376 q 748 227 731 301 q 785 78 765 153 l 790 78 q 820 227 806 153 q 850 376 835 301 l 965 915 l 1028 915 l 824 0 l 753 0 l 586 628 q 561 731 574 682 q 538 835 549 781 l 532 835 q 507 731 521 781 q 481 628 493 682 l 317 0 l 247 0 m 506 981 l 478 1013 l 651 1183 l 690 1138 l 506 981 z "},"Ŵ":{"ha":1069,"x_min":39,"x_max":1028,"o":"m 247 0 l 39 915 l 106 915 l 221 376 q 252 227 236 301 q 283 78 268 153 l 289 78 q 323 227 306 153 q 360 376 340 301 l 503 915 l 568 915 l 711 376 q 748 227 731 301 q 785 78 765 153 l 790 78 q 820 227 806 153 q 850 376 835 301 l 965 915 l 1028 915 l 824 0 l 753 0 l 586 628 q 561 731 574 682 q 538 835 549 781 l 532 835 q 507 731 521 781 q 481 628 493 682 l 317 0 l 247 0 m 347 1008 l 504 1165 l 565 1165 l 722 1008 l 694 982 l 538 1118 l 532 1118 l 375 982 l 347 1008 z "},"Ẅ":{"ha":1069,"x_min":39,"x_max":1028,"o":"m 247 0 l 39 915 l 106 915 l 221 376 q 252 227 236 301 q 283 78 268 153 l 289 78 q 323 227 306 153 q 360 376 340 301 l 503 915 l 568 915 l 711 376 q 748 227 731 301 q 785 78 765 153 l 790 78 q 820 227 806 153 q 850 376 835 301 l 965 915 l 1028 915 l 824 0 l 753 0 l 586 628 q 561 731 574 682 q 538 835 549 781 l 532 835 q 507 731 521 781 q 481 628 493 682 l 317 0 l 247 0 m 399 1007 q 363 1020 376 1007 q 349 1057 349 1033 q 363 1094 349 1081 q 399 1108 376 1108 q 435 1094 421 1108 q 450 1057 450 1081 q 435 1020 450 1033 q 399 1007 421 1007 m 671 1007 q 634 1020 649 1007 q 619 1057 619 1033 q 634 1094 619 1081 q 671 1108 649 1108 q 707 1094 693 1108 q 721 1057 721 1081 q 707 1020 721 1033 q 671 1007 693 1007 z "},"Ỳ":{"ha":621,"x_min":4,"x_max":617,"o":"m 278 0 l 278 371 l 4 915 l 72 915 l 211 629 q 258 531 235 579 q 308 432 281 482 l 314 432 q 365 531 340 482 q 413 629 390 579 l 551 915 l 617 915 l 342 371 l 342 0 l 278 0 m 339 981 l 154 1138 l 193 1183 l 367 1013 l 339 981 z "},"Ý":{"ha":621,"x_min":4,"x_max":617,"o":"m 278 0 l 278 371 l 4 915 l 72 915 l 211 629 q 258 531 235 579 q 308 432 281 482 l 314 432 q 365 531 340 482 q 413 629 390 579 l 551 915 l 617 915 l 342 371 l 342 0 l 278 0 m 281 981 l 253 1013 l 426 1183 l 465 1138 l 281 981 z "},"Ŷ":{"ha":621,"x_min":4,"x_max":617,"o":"m 278 0 l 278 371 l 4 915 l 72 915 l 211 629 q 258 531 235 579 q 308 432 281 482 l 314 432 q 365 531 340 482 q 413 629 390 579 l 551 915 l 617 915 l 342 371 l 342 0 l 278 0 m 122 1008 l 279 1165 l 340 1165 l 497 1008 l 469 982 l 313 1118 l 307 1118 l 150 982 l 122 1008 z "},"Ÿ":{"ha":621,"x_min":4,"x_max":617,"o":"m 278 0 l 278 371 l 4 915 l 72 915 l 211 629 q 258 531 235 579 q 308 432 281 482 l 314 432 q 365 531 340 482 q 413 629 390 579 l 551 915 l 617 915 l 342 371 l 342 0 l 278 0 m 174 1007 q 138 1020 151 1007 q 124 1057 124 1033 q 138 1094 124 1081 q 174 1108 151 1108 q 210 1094 196 1108 q 225 1057 225 1081 q 210 1020 225 1033 q 174 1007 196 1007 m 446 1007 q 409 1020 424 1007 q 394 1057 394 1033 q 409 1094 394 1081 q 446 1108 424 1108 q 482 1094 468 1108 q 496 1057 496 1081 q 482 1020 496 1033 q 446 1007 468 1007 z "},"Ẏ":{"ha":621,"x_min":4,"x_max":617,"o":"m 278 0 l 278 371 l 4 915 l 72 915 l 211 629 q 258 531 235 579 q 308 432 281 482 l 314 432 q 365 531 340 482 q 413 629 390 579 l 551 915 l 617 915 l 342 371 l 342 0 l 278 0 m 310 1001 q 270 1017 286 1001 q 254 1058 254 1032 q 270 1097 254 1082 q 310 1113 286 1113 q 349 1097 333 1113 q 365 1058 365 1082 q 349 1017 365 1032 q 310 1001 333 1001 z "},"Ỵ":{"ha":621,"x_min":4,"x_max":617,"o":"m 278 0 l 278 371 l 4 915 l 72 915 l 211 629 q 258 531 235 579 q 308 432 281 482 l 314 432 q 365 531 340 482 q 413 629 390 579 l 551 915 l 617 915 l 342 371 l 342 0 l 278 0 m 313 -269 q 274 -254 289 -269 q 260 -212 260 -239 q 274 -174 260 -189 q 313 -158 289 -158 q 351 -174 336 -158 q 365 -212 365 -189 q 351 -254 365 -239 q 313 -269 336 -269 z "},"Ỷ":{"ha":621,"x_min":4,"x_max":617,"o":"m 278 0 l 278 371 l 4 915 l 72 915 l 211 629 q 258 531 235 579 q 308 432 281 482 l 314 432 q 365 531 340 482 q 413 629 390 579 l 551 915 l 617 915 l 342 371 l 342 0 l 278 0 m 275 975 l 264 1013 q 326 1041 301 1024 q 351 1088 351 1058 q 233 1154 351 1150 l 239 1199 q 304 1191 274 1197 q 358 1172 335 1185 q 394 1141 381 1160 q 407 1096 407 1122 q 396 1049 407 1068 q 366 1015 385 1029 q 324 992 347 1001 q 275 975 300 982 z "},"Ỹ":{"ha":621,"x_min":4,"x_max":617,"o":"m 278 0 l 278 371 l 4 915 l 72 915 l 211 629 q 258 531 235 579 q 308 432 281 482 l 314 432 q 365 531 340 482 q 413 629 390 579 l 551 915 l 617 915 l 342 371 l 342 0 l 278 0 m 417 997 q 349 1015 376 997 q 298 1052 321 1032 q 253 1090 275 1072 q 203 1107 232 1107 q 151 1078 172 1107 q 126 1001 131 1050 l 81 1006 q 115 1115 83 1071 q 203 1158 146 1158 q 271 1141 243 1158 q 322 1103 299 1124 q 366 1066 344 1083 q 417 1049 388 1049 q 467 1078 447 1049 q 493 1156 486 1107 l 539 1151 q 505 1042 536 1086 q 417 997 474 997 z "},"Ź":{"ha":747,"x_min":69,"x_max":681,"o":"m 69 0 l 69 38 l 596 860 l 115 860 l 115 915 l 676 915 l 676 878 l 149 56 l 681 56 l 681 0 l 69 0 m 358 981 l 331 1013 l 504 1183 l 543 1138 l 358 981 z "},"Ž":{"ha":747,"x_min":69,"x_max":681,"o":"m 69 0 l 69 38 l 596 860 l 115 860 l 115 915 l 676 915 l 676 878 l 149 56 l 681 56 l 681 0 l 69 0 m 357 985 l 200 1143 l 228 1168 l 385 1032 l 390 1032 l 547 1168 l 575 1143 l 418 985 l 357 985 z "},"Ż":{"ha":747,"x_min":69,"x_max":681,"o":"m 69 0 l 69 38 l 596 860 l 115 860 l 115 915 l 676 915 l 676 878 l 149 56 l 681 56 l 681 0 l 69 0 m 388 1001 q 348 1017 364 1001 q 332 1058 332 1032 q 348 1097 332 1082 q 388 1113 364 1113 q 427 1097 411 1113 q 443 1058 443 1082 q 427 1017 443 1032 q 388 1001 411 1001 z "},"Ẓ":{"ha":747,"x_min":69,"x_max":681,"o":"m 69 0 l 69 38 l 596 860 l 115 860 l 115 915 l 676 915 l 676 878 l 149 56 l 681 56 l 681 0 l 69 0 m 390 -269 q 352 -254 367 -269 q 338 -212 338 -239 q 352 -174 338 -189 q 390 -158 367 -158 q 428 -174 414 -158 q 443 -212 443 -189 q 428 -254 443 -239 q 390 -269 414 -269 z "},"Ẕ":{"ha":747,"x_min":69,"x_max":681,"o":"m 69 0 l 69 38 l 596 860 l 115 860 l 115 915 l 676 915 l 676 878 l 149 56 l 681 56 l 681 0 l 69 0 m 221 -221 l 221 -171 l 563 -171 l 563 -221 l 221 -221 z "},"Ð":{"ha":868,"x_min":51,"x_max":792,"o":"m 51 461 l 51 504 l 164 507 l 164 915 l 376 915 q 560 883 482 915 q 690 792 639 851 q 767 649 742 732 q 792 461 792 565 q 767 272 792 357 q 690 126 742 186 q 561 33 639 65 q 378 0 483 0 l 164 0 l 164 461 l 51 461 m 228 54 l 369 54 q 530 84 463 54 q 640 168 597 114 q 704 297 683 222 q 725 461 725 371 q 704 624 725 550 q 640 750 683 697 q 530 832 597 803 q 369 861 463 861 l 228 861 l 228 507 l 454 507 l 454 461 l 228 461 l 228 54 z "},"Þ":{"ha":782,"x_min":135,"x_max":711,"o":"m 135 0 l 135 915 l 199 915 l 199 753 l 385 753 q 522 739 461 753 q 624 695 582 725 q 689 617 667 665 q 711 497 711 568 q 625 297 711 363 q 385 231 539 231 l 199 231 l 199 0 l 135 0 m 199 285 l 369 285 q 578 335 510 285 q 646 497 646 385 q 577 655 646 611 q 369 699 508 699 l 199 699 l 199 285 z "},"Ə":{"ha":900,"x_min":86,"x_max":824,"o":"m 447 -17 q 294 18 361 -17 q 181 115 226 53 q 110 263 135 176 q 86 453 86 349 q 87 460 86 456 q 88 468 88 464 l 760 468 q 679 771 757 664 q 453 878 601 878 q 321 852 382 878 q 215 785 260 826 l 182 828 q 297 902 228 872 q 453 932 365 932 q 727 810 631 932 q 824 460 824 688 q 797 259 824 347 q 722 109 771 171 q 603 15 672 47 q 447 -17 533 -17 m 447 38 q 667 137 586 38 q 758 415 749 236 l 151 415 q 176 259 153 329 q 237 140 199 189 q 328 64 275 90 q 447 38 382 38 z "},"Ŋ":{"ha":857,"x_min":135,"x_max":781,"o":"m 560 -17 q 507 -12 535 -17 q 460 1 479 -8 l 479 61 q 513 50 496 54 q 554 46 531 46 q 615 67 586 46 q 666 137 644 88 q 701 267 688 186 q 714 468 714 347 q 694 664 714 586 q 640 788 675 742 q 558 854 606 835 q 453 874 510 874 q 386 862 421 874 q 317 830 351 850 q 252 783 283 810 q 199 726 221 756 l 199 0 l 135 0 l 135 915 l 199 915 l 199 793 q 253 846 222 821 q 317 890 283 871 q 388 921 351 910 q 463 932 425 932 q 589 908 531 932 q 690 828 647 883 q 756 685 732 774 q 781 468 781 596 q 763 238 781 331 q 715 89 746 146 q 645 8 685 32 q 560 -17 606 -17 z "},"Ĳ":{"ha":668,"x_min":135,"x_max":533,"o":"m 135 0 l 135 915 l 199 915 l 199 0 l 135 0 m 381 -217 q 334 -211 357 -217 q 296 -199 311 -206 l 310 -144 q 341 -153 322 -149 q 379 -157 360 -157 q 452 -117 435 -157 q 469 -12 469 -76 l 469 915 l 533 915 l 533 -21 q 381 -217 533 -217 z "},"à":{"ha":682,"x_min":81,"x_max":572,"o":"m 274 -17 q 199 -6 233 -17 q 138 28 164 6 q 96 85 111 50 q 81 167 81 119 q 184 335 81 278 q 511 418 288 393 q 506 494 511 456 q 482 562 500 532 q 433 610 464 592 q 353 629 403 629 q 231 603 286 629 q 140 551 175 576 l 113 597 q 156 625 131 610 q 214 653 182 640 q 283 674 246 665 q 361 683 321 683 q 460 663 419 683 q 525 608 500 643 q 561 527 550 574 q 572 426 572 481 l 572 0 l 519 0 l 514 86 l 510 86 q 399 15 458 46 q 274 -17 340 -17 m 285 36 q 396 64 343 36 q 511 144 449 92 l 511 371 q 338 340 408 358 q 224 297 267 322 q 162 240 181 272 q 143 169 143 208 q 154 108 143 133 q 185 67 165 83 q 230 44 204 51 q 285 36 256 36 m 393 797 l 193 1007 l 240 1047 l 426 829 l 393 797 z "},"á":{"ha":682,"x_min":81,"x_max":572,"o":"m 274 -17 q 199 -6 233 -17 q 138 28 164 6 q 96 85 111 50 q 81 167 81 119 q 184 335 81 278 q 511 418 288 393 q 506 494 511 456 q 482 562 500 532 q 433 610 464 592 q 353 629 403 629 q 231 603 286 629 q 140 551 175 576 l 113 597 q 156 625 131 610 q 214 653 182 640 q 283 674 246 665 q 361 683 321 683 q 460 663 419 683 q 525 608 500 643 q 561 527 550 574 q 572 426 572 481 l 572 0 l 519 0 l 514 86 l 510 86 q 399 15 458 46 q 274 -17 340 -17 m 285 36 q 396 64 343 36 q 511 144 449 92 l 511 371 q 338 340 408 358 q 224 297 267 322 q 162 240 181 272 q 143 169 143 208 q 154 108 143 133 q 185 67 165 83 q 230 44 204 51 q 285 36 256 36 m 313 797 l 279 829 l 465 1047 l 513 1007 l 313 797 z "},"â":{"ha":682,"x_min":81,"x_max":572,"o":"m 274 -17 q 199 -6 233 -17 q 138 28 164 6 q 96 85 111 50 q 81 167 81 119 q 184 335 81 278 q 511 418 288 393 q 506 494 511 456 q 482 562 500 532 q 433 610 464 592 q 353 629 403 629 q 231 603 286 629 q 140 551 175 576 l 113 597 q 156 625 131 610 q 214 653 182 640 q 283 674 246 665 q 361 683 321 683 q 460 663 419 683 q 525 608 500 643 q 561 527 550 574 q 572 426 572 481 l 572 0 l 519 0 l 514 86 l 510 86 q 399 15 458 46 q 274 -17 340 -17 m 285 36 q 396 64 343 36 q 511 144 449 92 l 511 371 q 338 340 408 358 q 224 297 267 322 q 162 240 181 272 q 143 169 143 208 q 154 108 143 133 q 185 67 165 83 q 230 44 204 51 q 285 36 256 36 m 161 824 l 324 1024 l 382 1024 l 544 824 l 514 794 l 356 969 l 350 969 l 192 794 l 161 824 z "},"ã":{"ha":682,"x_min":81,"x_max":581,"o":"m 274 -17 q 199 -6 233 -17 q 138 28 164 6 q 96 85 111 50 q 81 167 81 119 q 184 335 81 278 q 511 418 288 393 q 506 494 511 456 q 482 562 500 532 q 433 610 464 592 q 353 629 403 629 q 231 603 286 629 q 140 551 175 576 l 113 597 q 156 625 131 610 q 214 653 182 640 q 283 674 246 665 q 361 683 321 683 q 460 663 419 683 q 525 608 500 643 q 561 527 550 574 q 572 426 572 481 l 572 0 l 519 0 l 514 86 l 510 86 q 399 15 458 46 q 274 -17 340 -17 m 285 36 q 396 64 343 36 q 511 144 449 92 l 511 371 q 338 340 408 358 q 224 297 267 322 q 162 240 181 272 q 143 169 143 208 q 154 108 143 133 q 185 67 165 83 q 230 44 204 51 q 285 36 256 36 m 458 804 q 391 825 418 804 q 342 871 364 846 q 298 917 319 896 q 247 938 276 938 q 192 900 210 938 q 172 808 175 863 l 125 811 q 133 876 126 844 q 155 931 140 907 q 192 971 169 956 q 249 986 215 986 q 315 965 288 986 q 364 919 342 944 q 408 874 386 894 q 460 853 431 853 q 513 891 496 853 q 533 982 531 929 l 581 979 q 572 916 578 947 q 551 860 565 885 q 514 819 536 835 q 458 804 492 804 z "},"ä":{"ha":682,"x_min":81,"x_max":572,"o":"m 274 -17 q 199 -6 233 -17 q 138 28 164 6 q 96 85 111 50 q 81 167 81 119 q 184 335 81 278 q 511 418 288 393 q 506 494 511 456 q 482 562 500 532 q 433 610 464 592 q 353 629 403 629 q 231 603 286 629 q 140 551 175 576 l 113 597 q 156 625 131 610 q 214 653 182 640 q 283 674 246 665 q 361 683 321 683 q 460 663 419 683 q 525 608 500 643 q 561 527 550 574 q 572 426 572 481 l 572 0 l 519 0 l 514 86 l 510 86 q 399 15 458 46 q 274 -17 340 -17 m 285 36 q 396 64 343 36 q 511 144 449 92 l 511 371 q 338 340 408 358 q 224 297 267 322 q 162 240 181 272 q 143 169 143 208 q 154 108 143 133 q 185 67 165 83 q 230 44 204 51 q 285 36 256 36 m 229 831 q 192 845 207 831 q 178 882 178 860 q 192 919 178 904 q 229 933 207 933 q 266 919 251 933 q 281 882 281 904 q 266 845 281 860 q 229 831 251 831 m 476 831 q 440 845 454 831 q 425 882 425 860 q 440 919 425 904 q 476 933 454 933 q 513 919 499 933 q 528 882 528 904 q 513 845 528 860 q 476 831 499 831 z "},"ā":{"ha":682,"x_min":81,"x_max":572,"o":"m 274 -17 q 199 -6 233 -17 q 138 28 164 6 q 96 85 111 50 q 81 167 81 119 q 184 335 81 278 q 511 418 288 393 q 506 494 511 456 q 482 562 500 532 q 433 610 464 592 q 353 629 403 629 q 231 603 286 629 q 140 551 175 576 l 113 597 q 156 625 131 610 q 214 653 182 640 q 283 674 246 665 q 361 683 321 683 q 460 663 419 683 q 525 608 500 643 q 561 527 550 574 q 572 426 572 481 l 572 0 l 519 0 l 514 86 l 510 86 q 399 15 458 46 q 274 -17 340 -17 m 285 36 q 396 64 343 36 q 511 144 449 92 l 511 371 q 338 340 408 358 q 224 297 267 322 q 162 240 181 272 q 143 169 143 208 q 154 108 143 133 q 185 67 165 83 q 230 44 204 51 q 285 36 256 36 m 182 842 l 182 892 l 524 892 l 524 842 l 182 842 z "},"ă":{"ha":682,"x_min":81,"x_max":572,"o":"m 274 -17 q 199 -6 233 -17 q 138 28 164 6 q 96 85 111 50 q 81 167 81 119 q 184 335 81 278 q 511 418 288 393 q 506 494 511 456 q 482 562 500 532 q 433 610 464 592 q 353 629 403 629 q 231 603 286 629 q 140 551 175 576 l 113 597 q 156 625 131 610 q 214 653 182 640 q 283 674 246 665 q 361 683 321 683 q 460 663 419 683 q 525 608 500 643 q 561 527 550 574 q 572 426 572 481 l 572 0 l 519 0 l 514 86 l 510 86 q 399 15 458 46 q 274 -17 340 -17 m 285 36 q 396 64 343 36 q 511 144 449 92 l 511 371 q 338 340 408 358 q 224 297 267 322 q 162 240 181 272 q 143 169 143 208 q 154 108 143 133 q 185 67 165 83 q 230 44 204 51 q 285 36 256 36 m 353 792 q 261 811 299 792 q 199 860 224 831 q 163 926 175 890 q 146 997 150 963 l 192 1004 q 208 946 196 975 q 239 892 219 917 q 287 853 258 868 q 353 839 315 839 q 419 853 390 839 q 467 892 447 868 q 498 946 486 917 q 514 1004 510 975 l 560 997 q 543 926 556 963 q 506 860 531 890 q 444 811 482 831 q 353 792 407 792 z "},"å":{"ha":682,"x_min":81,"x_max":572,"o":"m 274 -17 q 199 -6 233 -17 q 138 28 164 6 q 96 85 111 50 q 81 167 81 119 q 184 335 81 278 q 511 418 288 393 q 506 494 511 456 q 482 562 500 532 q 433 610 464 592 q 353 629 403 629 q 231 603 286 629 q 140 551 175 576 l 113 597 q 156 625 131 610 q 214 653 182 640 q 283 674 246 665 q 361 683 321 683 q 460 663 419 683 q 525 608 500 643 q 561 527 550 574 q 572 426 572 481 l 572 0 l 519 0 l 514 86 l 510 86 q 399 15 458 46 q 274 -17 340 -17 m 285 36 q 396 64 343 36 q 511 144 449 92 l 511 371 q 338 340 408 358 q 224 297 267 322 q 162 240 181 272 q 143 169 143 208 q 154 108 143 133 q 185 67 165 83 q 230 44 204 51 q 285 36 256 36 m 353 761 q 256 798 294 761 q 218 893 218 835 q 256 990 218 953 q 353 1026 294 1026 q 449 990 411 1026 q 488 893 488 953 q 449 798 488 835 q 353 761 411 761 m 353 797 q 417 823 390 797 q 443 893 443 849 q 417 964 443 938 q 353 990 390 990 q 289 964 315 990 q 263 893 263 938 q 289 823 263 849 q 353 797 315 797 z "},"ǎ":{"ha":682,"x_min":81,"x_max":572,"o":"m 274 -17 q 199 -6 233 -17 q 138 28 164 6 q 96 85 111 50 q 81 167 81 119 q 184 335 81 278 q 511 418 288 393 q 506 494 511 456 q 482 562 500 532 q 433 610 464 592 q 353 629 403 629 q 231 603 286 629 q 140 551 175 576 l 113 597 q 156 625 131 610 q 214 653 182 640 q 283 674 246 665 q 361 683 321 683 q 460 663 419 683 q 525 608 500 643 q 561 527 550 574 q 572 426 572 481 l 572 0 l 519 0 l 514 86 l 510 86 q 399 15 458 46 q 274 -17 340 -17 m 285 36 q 396 64 343 36 q 511 144 449 92 l 511 371 q 338 340 408 358 q 224 297 267 322 q 162 240 181 272 q 143 169 143 208 q 154 108 143 133 q 185 67 165 83 q 230 44 204 51 q 285 36 256 36 m 324 796 l 161 996 l 192 1024 l 350 850 l 356 850 l 514 1024 l 544 996 l 382 796 l 324 796 z "},"ạ":{"ha":682,"x_min":81,"x_max":572,"o":"m 274 -17 q 199 -6 233 -17 q 138 28 164 6 q 96 85 111 50 q 81 167 81 119 q 184 335 81 278 q 511 418 288 393 q 506 494 511 456 q 482 562 500 532 q 433 610 464 592 q 353 629 403 629 q 231 603 286 629 q 140 551 175 576 l 113 597 q 156 625 131 610 q 214 653 182 640 q 283 674 246 665 q 361 683 321 683 q 460 663 419 683 q 525 608 500 643 q 561 527 550 574 q 572 426 572 481 l 572 0 l 519 0 l 514 86 l 510 86 q 399 15 458 46 q 274 -17 340 -17 m 285 36 q 396 64 343 36 q 511 144 449 92 l 511 371 q 338 340 408 358 q 224 297 267 322 q 162 240 181 272 q 143 169 143 208 q 154 108 143 133 q 185 67 165 83 q 230 44 204 51 q 285 36 256 36 m 331 -269 q 292 -254 307 -269 q 278 -212 278 -239 q 292 -174 278 -189 q 331 -158 307 -158 q 369 -174 354 -158 q 383 -212 383 -189 q 369 -254 383 -239 q 331 -269 354 -269 z "},"ả":{"ha":682,"x_min":81,"x_max":572,"o":"m 274 -17 q 199 -6 233 -17 q 138 28 164 6 q 96 85 111 50 q 81 167 81 119 q 184 335 81 278 q 511 418 288 393 q 506 494 511 456 q 482 562 500 532 q 433 610 464 592 q 353 629 403 629 q 231 603 286 629 q 140 551 175 576 l 113 597 q 156 625 131 610 q 214 653 182 640 q 283 674 246 665 q 361 683 321 683 q 460 663 419 683 q 525 608 500 643 q 561 527 550 574 q 572 426 572 481 l 572 0 l 519 0 l 514 86 l 510 86 q 399 15 458 46 q 274 -17 340 -17 m 285 36 q 396 64 343 36 q 511 144 449 92 l 511 371 q 338 340 408 358 q 224 297 267 322 q 162 240 181 272 q 143 169 143 208 q 154 108 143 133 q 185 67 165 83 q 230 44 204 51 q 285 36 256 36 m 318 799 l 307 838 q 369 866 344 849 q 394 914 394 883 q 276 982 394 978 l 281 1029 q 347 1022 315 1028 q 401 1002 378 1015 q 437 969 424 989 q 450 921 450 949 q 439 874 450 893 q 409 840 428 854 q 367 815 390 825 q 318 799 343 806 z "},"ấ":{"ha":682,"x_min":81,"x_max":643,"o":"m 274 -17 q 199 -6 233 -17 q 138 28 164 6 q 96 85 111 50 q 81 167 81 119 q 184 335 81 278 q 511 418 288 393 q 506 494 511 456 q 482 562 500 532 q 433 610 464 592 q 353 629 403 629 q 231 603 286 629 q 140 551 175 576 l 113 597 q 156 625 131 610 q 214 653 182 640 q 283 674 246 665 q 361 683 321 683 q 460 663 419 683 q 525 608 500 643 q 561 527 550 574 q 572 426 572 481 l 572 0 l 519 0 l 514 86 l 510 86 q 399 15 458 46 q 274 -17 340 -17 m 285 36 q 396 64 343 36 q 511 144 449 92 l 511 371 q 338 340 408 358 q 224 297 267 322 q 162 240 181 272 q 143 169 143 208 q 154 108 143 133 q 185 67 165 83 q 230 44 204 51 q 285 36 256 36 m 206 796 l 181 826 l 326 954 l 379 954 l 525 826 l 500 796 l 356 901 l 350 901 l 206 796 m 474 911 l 601 1071 l 643 1038 l 504 883 l 474 911 z "},"ầ":{"ha":682,"x_min":38,"x_max":572,"o":"m 274 -17 q 199 -6 233 -17 q 138 28 164 6 q 96 85 111 50 q 81 167 81 119 q 184 335 81 278 q 511 418 288 393 q 506 494 511 456 q 482 562 500 532 q 433 610 464 592 q 353 629 403 629 q 231 603 286 629 q 140 551 175 576 l 113 597 q 156 625 131 610 q 214 653 182 640 q 283 674 246 665 q 361 683 321 683 q 460 663 419 683 q 525 608 500 643 q 561 527 550 574 q 572 426 572 481 l 572 0 l 519 0 l 514 86 l 510 86 q 399 15 458 46 q 274 -17 340 -17 m 285 36 q 396 64 343 36 q 511 144 449 92 l 511 371 q 338 340 408 358 q 224 297 267 322 q 162 240 181 272 q 143 169 143 208 q 154 108 143 133 q 185 67 165 83 q 230 44 204 51 q 285 36 256 36 m 206 796 l 181 826 l 326 954 l 379 954 l 525 826 l 500 796 l 356 901 l 350 901 l 206 796 m 232 915 l 201 883 l 38 1033 l 79 1071 l 232 915 z "},"ẩ":{"ha":682,"x_min":81,"x_max":606,"o":"m 274 -17 q 199 -6 233 -17 q 138 28 164 6 q 96 85 111 50 q 81 167 81 119 q 184 335 81 278 q 511 418 288 393 q 506 494 511 456 q 482 562 500 532 q 433 610 464 592 q 353 629 403 629 q 231 603 286 629 q 140 551 175 576 l 113 597 q 156 625 131 610 q 214 653 182 640 q 283 674 246 665 q 361 683 321 683 q 460 663 419 683 q 525 608 500 643 q 561 527 550 574 q 572 426 572 481 l 572 0 l 519 0 l 514 86 l 510 86 q 399 15 458 46 q 274 -17 340 -17 m 285 36 q 396 64 343 36 q 511 144 449 92 l 511 371 q 338 340 408 358 q 224 297 267 322 q 162 240 181 272 q 143 169 143 208 q 154 108 143 133 q 185 67 165 83 q 230 44 204 51 q 285 36 256 36 m 206 796 l 181 826 l 326 954 l 379 954 l 525 826 l 500 796 l 356 901 l 350 901 l 206 796 m 496 875 l 485 910 q 533 935 514 921 q 553 974 553 950 q 454 1038 553 1033 l 458 1078 q 563 1053 521 1075 q 606 981 606 1031 q 596 940 606 957 q 570 910 586 922 q 535 889 554 897 q 496 875 515 881 z "},"ẫ":{"ha":682,"x_min":81,"x_max":572,"o":"m 274 -17 q 199 -6 233 -17 q 138 28 164 6 q 96 85 111 50 q 81 167 81 119 q 184 335 81 278 q 511 418 288 393 q 506 494 511 456 q 482 562 500 532 q 433 610 464 592 q 353 629 403 629 q 231 603 286 629 q 140 551 175 576 l 113 597 q 156 625 131 610 q 214 653 182 640 q 283 674 246 665 q 361 683 321 683 q 460 663 419 683 q 525 608 500 643 q 561 527 550 574 q 572 426 572 481 l 572 0 l 519 0 l 514 86 l 510 86 q 399 15 458 46 q 274 -17 340 -17 m 285 36 q 396 64 343 36 q 511 144 449 92 l 511 371 q 338 340 408 358 q 224 297 267 322 q 162 240 181 272 q 143 169 143 208 q 154 108 143 133 q 185 67 165 83 q 230 44 204 51 q 285 36 256 36 m 206 796 l 181 826 l 326 953 l 379 953 l 525 826 l 500 796 l 356 900 l 350 900 l 206 796 m 172 982 q 178 1019 174 1000 q 193 1053 183 1038 q 218 1077 203 1068 q 257 1086 233 1086 q 314 1077 289 1086 q 361 1057 339 1068 q 403 1037 383 1046 q 447 1028 424 1028 q 480 1043 471 1028 q 493 1090 489 1058 l 533 1086 q 527 1049 532 1067 q 513 1015 522 1031 q 487 991 503 1000 q 449 982 471 982 q 392 991 417 982 q 344 1011 367 1000 q 301 1031 322 1022 q 258 1040 281 1040 q 226 1025 235 1040 q 213 978 217 1010 l 172 982 z "},"ậ":{"ha":682,"x_min":81,"x_max":572,"o":"m 274 -17 q 199 -6 233 -17 q 138 28 164 6 q 96 85 111 50 q 81 167 81 119 q 184 335 81 278 q 511 418 288 393 q 506 494 511 456 q 482 562 500 532 q 433 610 464 592 q 353 629 403 629 q 231 603 286 629 q 140 551 175 576 l 113 597 q 156 625 131 610 q 214 653 182 640 q 283 674 246 665 q 361 683 321 683 q 460 663 419 683 q 525 608 500 643 q 561 527 550 574 q 572 426 572 481 l 572 0 l 519 0 l 514 86 l 510 86 q 399 15 458 46 q 274 -17 340 -17 m 285 36 q 396 64 343 36 q 511 144 449 92 l 511 371 q 338 340 408 358 q 224 297 267 322 q 162 240 181 272 q 143 169 143 208 q 154 108 143 133 q 185 67 165 83 q 230 44 204 51 q 285 36 256 36 m 161 824 l 324 1024 l 382 1024 l 544 824 l 514 794 l 356 969 l 350 969 l 192 794 l 161 824 m 331 -269 q 292 -254 307 -269 q 278 -212 278 -239 q 292 -174 278 -189 q 331 -158 307 -158 q 369 -174 354 -158 q 383 -212 383 -189 q 369 -254 383 -239 q 331 -269 354 -269 z "},"ắ":{"ha":682,"x_min":81,"x_max":572,"o":"m 274 -17 q 199 -6 233 -17 q 138 28 164 6 q 96 85 111 50 q 81 167 81 119 q 184 335 81 278 q 511 418 288 393 q 506 494 511 456 q 482 562 500 532 q 433 610 464 592 q 353 629 403 629 q 231 603 286 629 q 140 551 175 576 l 113 597 q 156 625 131 610 q 214 653 182 640 q 283 674 246 665 q 361 683 321 683 q 460 663 419 683 q 525 608 500 643 q 561 527 550 574 q 572 426 572 481 l 572 0 l 519 0 l 514 86 l 510 86 q 399 15 458 46 q 274 -17 340 -17 m 285 36 q 396 64 343 36 q 511 144 449 92 l 511 371 q 338 340 408 358 q 224 297 267 322 q 162 240 181 272 q 143 169 143 208 q 154 108 143 133 q 185 67 165 83 q 230 44 204 51 q 285 36 256 36 m 335 928 l 301 956 l 418 1113 l 461 1078 l 335 928 m 353 792 q 261 811 299 792 q 199 860 224 831 q 163 926 175 890 q 146 997 150 963 l 190 1004 q 206 945 194 975 q 238 891 218 915 q 286 852 257 867 q 353 838 315 838 q 419 852 390 838 q 468 891 449 867 q 499 945 488 915 q 515 1004 511 975 l 560 997 q 543 926 556 963 q 506 860 531 890 q 444 811 482 831 q 353 792 407 792 z "},"ằ":{"ha":682,"x_min":81,"x_max":572,"o":"m 274 -17 q 199 -6 233 -17 q 138 28 164 6 q 96 85 111 50 q 81 167 81 119 q 184 335 81 278 q 511 418 288 393 q 506 494 511 456 q 482 562 500 532 q 433 610 464 592 q 353 629 403 629 q 231 603 286 629 q 140 551 175 576 l 113 597 q 156 625 131 610 q 214 653 182 640 q 283 674 246 665 q 361 683 321 683 q 460 663 419 683 q 525 608 500 643 q 561 527 550 574 q 572 426 572 481 l 572 0 l 519 0 l 514 86 l 510 86 q 399 15 458 46 q 274 -17 340 -17 m 285 36 q 396 64 343 36 q 511 144 449 92 l 511 371 q 338 340 408 358 q 224 297 267 322 q 162 240 181 272 q 143 169 143 208 q 154 108 143 133 q 185 67 165 83 q 230 44 204 51 q 285 36 256 36 m 371 928 l 244 1078 l 288 1113 l 404 956 l 371 928 m 353 792 q 261 811 299 792 q 199 860 224 831 q 163 926 175 890 q 146 997 150 963 l 190 1004 q 206 945 194 975 q 238 891 218 915 q 286 852 257 867 q 353 838 315 838 q 419 852 390 838 q 468 891 449 867 q 499 945 488 915 q 515 1004 511 975 l 560 997 q 543 926 556 963 q 506 860 531 890 q 444 811 482 831 q 353 792 407 792 z "},"ẳ":{"ha":682,"x_min":81,"x_max":572,"o":"m 274 -17 q 199 -6 233 -17 q 138 28 164 6 q 96 85 111 50 q 81 167 81 119 q 184 335 81 278 q 511 418 288 393 q 506 494 511 456 q 482 562 500 532 q 433 610 464 592 q 353 629 403 629 q 231 603 286 629 q 140 551 175 576 l 113 597 q 156 625 131 610 q 214 653 182 640 q 283 674 246 665 q 361 683 321 683 q 460 663 419 683 q 525 608 500 643 q 561 527 550 574 q 572 426 572 481 l 572 0 l 519 0 l 514 86 l 510 86 q 399 15 458 46 q 274 -17 340 -17 m 285 36 q 396 64 343 36 q 511 144 449 92 l 511 371 q 338 340 408 358 q 224 297 267 322 q 162 240 181 272 q 143 169 143 208 q 154 108 143 133 q 185 67 165 83 q 230 44 204 51 q 285 36 256 36 m 322 935 l 311 974 q 369 997 346 981 q 392 1036 392 1013 q 364 1083 392 1068 q 278 1100 336 1097 l 283 1146 q 397 1119 350 1143 q 444 1044 444 1096 q 433 1001 444 1019 q 405 969 422 982 q 365 947 388 956 q 322 935 343 939 m 353 792 q 261 811 299 792 q 199 860 224 831 q 163 926 175 890 q 146 997 150 963 l 190 1004 q 206 945 194 975 q 238 891 218 915 q 286 852 257 867 q 353 838 315 838 q 419 852 390 838 q 468 891 449 867 q 499 945 488 915 q 515 1004 511 975 l 560 997 q 543 926 556 963 q 506 860 531 890 q 444 811 482 831 q 353 792 407 792 z "},"ẵ":{"ha":682,"x_min":81,"x_max":572,"o":"m 274 -17 q 199 -6 233 -17 q 138 28 164 6 q 96 85 111 50 q 81 167 81 119 q 184 335 81 278 q 511 418 288 393 q 506 494 511 456 q 482 562 500 532 q 433 610 464 592 q 353 629 403 629 q 231 603 286 629 q 140 551 175 576 l 113 597 q 156 625 131 610 q 214 653 182 640 q 283 674 246 665 q 361 683 321 683 q 460 663 419 683 q 525 608 500 643 q 561 527 550 574 q 572 426 572 481 l 572 0 l 519 0 l 514 86 l 510 86 q 399 15 458 46 q 274 -17 340 -17 m 285 36 q 396 64 343 36 q 511 144 449 92 l 511 371 q 338 340 408 358 q 224 297 267 322 q 162 240 181 272 q 143 169 143 208 q 154 108 143 133 q 185 67 165 83 q 230 44 204 51 q 285 36 256 36 m 353 792 q 268 806 303 792 q 210 840 233 819 q 176 887 188 861 q 161 936 164 913 l 204 943 q 247 870 210 904 q 353 836 283 836 q 414 846 388 836 q 459 871 440 856 q 488 905 478 886 q 501 943 499 924 l 544 936 q 530 887 542 913 q 495 840 518 861 q 438 806 472 819 q 353 792 403 792 m 171 982 q 177 1019 172 1000 q 192 1053 182 1038 q 217 1077 201 1068 q 257 1086 233 1086 q 314 1077 289 1086 q 361 1057 339 1068 q 403 1037 383 1046 q 447 1028 424 1028 q 480 1043 471 1028 q 493 1090 489 1058 l 535 1086 q 528 1049 533 1067 q 514 1015 524 1031 q 488 991 504 1000 q 449 982 472 982 q 392 991 417 982 q 344 1011 367 1000 q 301 1031 322 1022 q 258 1040 281 1040 q 226 1025 235 1040 q 213 978 217 1010 l 171 982 z "},"ặ":{"ha":682,"x_min":81,"x_max":572,"o":"m 274 -17 q 199 -6 233 -17 q 138 28 164 6 q 96 85 111 50 q 81 167 81 119 q 184 335 81 278 q 511 418 288 393 q 506 494 511 456 q 482 562 500 532 q 433 610 464 592 q 353 629 403 629 q 231 603 286 629 q 140 551 175 576 l 113 597 q 156 625 131 610 q 214 653 182 640 q 283 674 246 665 q 361 683 321 683 q 460 663 419 683 q 525 608 500 643 q 561 527 550 574 q 572 426 572 481 l 572 0 l 519 0 l 514 86 l 510 86 q 399 15 458 46 q 274 -17 340 -17 m 285 36 q 396 64 343 36 q 511 144 449 92 l 511 371 q 338 340 408 358 q 224 297 267 322 q 162 240 181 272 q 143 169 143 208 q 154 108 143 133 q 185 67 165 83 q 230 44 204 51 q 285 36 256 36 m 353 792 q 261 811 299 792 q 199 860 224 831 q 163 926 175 890 q 146 997 150 963 l 192 1004 q 208 946 196 975 q 239 892 219 917 q 287 853 258 868 q 353 839 315 839 q 419 853 390 839 q 467 892 447 868 q 498 946 486 917 q 514 1004 510 975 l 560 997 q 543 926 556 963 q 506 860 531 890 q 444 811 482 831 q 353 792 407 792 m 331 -269 q 292 -254 307 -269 q 278 -212 278 -239 q 292 -174 278 -189 q 331 -158 307 -158 q 369 -174 354 -158 q 383 -212 383 -189 q 369 -254 383 -239 q 331 -269 354 -269 z "},"ą":{"ha":682,"x_min":81,"x_max":603,"o":"m 513 -282 q 431 -254 464 -282 q 399 -169 399 -226 q 435 -69 399 -117 q 521 10 472 -21 l 514 86 l 510 86 q 399 15 458 46 q 274 -17 340 -17 q 199 -6 233 -17 q 138 28 164 6 q 96 84 111 50 q 81 165 81 118 q 106 263 81 221 q 185 335 132 304 q 319 385 238 365 q 511 418 400 406 q 506 494 511 456 q 482 562 500 532 q 433 610 464 592 q 353 629 403 629 q 231 603 286 629 q 140 551 175 576 l 113 597 q 156 625 131 610 q 214 653 182 640 q 283 674 246 665 q 361 683 321 683 q 460 663 419 683 q 525 608 500 643 q 561 527 550 574 q 572 426 572 481 l 572 0 q 486 -72 519 -26 q 453 -161 453 -117 q 473 -215 453 -197 q 521 -233 493 -233 q 581 -214 553 -233 l 603 -250 q 560 -273 586 -264 q 513 -282 535 -282 m 285 36 q 396 64 343 36 q 511 144 449 92 l 511 371 q 338 340 408 358 q 224 297 267 322 q 162 240 181 272 q 143 169 143 208 q 154 108 143 133 q 185 67 165 83 q 230 44 204 51 q 285 36 256 36 z "},"æ":{"ha":1089,"x_min":90,"x_max":1036,"o":"m 285 -17 q 210 -6 244 -17 q 148 28 175 6 q 106 84 121 50 q 90 165 90 118 q 194 335 90 276 q 514 418 299 393 q 508 494 514 456 q 485 562 503 532 q 437 610 468 592 q 357 629 406 629 q 240 603 294 629 q 151 551 185 576 l 124 597 q 167 625 142 610 q 223 653 192 640 q 290 674 254 665 q 363 683 325 683 q 492 638 444 683 q 557 517 540 593 q 653 638 593 593 q 789 683 714 683 q 972 603 907 683 q 1036 375 1036 522 q 1036 350 1036 363 q 1033 325 1036 338 l 572 325 q 590 210 572 263 q 640 119 608 157 q 716 59 672 81 q 810 38 760 38 q 905 53 864 38 q 983 97 946 69 l 1010 49 q 969 25 990 36 q 924 4 949 14 q 869 -11 899 -6 q 804 -17 840 -17 q 724 -5 760 -17 q 658 26 688 7 q 606 71 629 46 q 565 121 583 96 q 423 20 499 57 q 285 -17 347 -17 m 294 36 q 353 44 321 36 q 417 69 385 53 q 482 110 450 86 q 543 165 514 135 q 521 241 528 196 q 514 333 514 286 l 513 371 q 347 341 415 358 q 236 299 279 324 q 174 242 193 274 q 154 169 154 210 q 196 67 154 97 q 294 36 238 36 m 572 372 l 979 372 q 928 566 979 501 q 788 631 878 631 q 709 612 746 631 q 644 559 672 593 q 597 477 615 525 q 572 372 578 429 z "},"ǽ":{"ha":1089,"x_min":90,"x_max":1036,"o":"m 285 -17 q 210 -6 244 -17 q 148 28 175 6 q 106 84 121 50 q 90 165 90 118 q 194 335 90 276 q 514 418 299 393 q 508 494 514 456 q 485 562 503 532 q 437 610 468 592 q 357 629 406 629 q 240 603 294 629 q 151 551 185 576 l 124 597 q 167 625 142 610 q 223 653 192 640 q 290 674 254 665 q 363 683 325 683 q 492 638 444 683 q 557 517 540 593 q 653 638 593 593 q 789 683 714 683 q 972 603 907 683 q 1036 375 1036 522 q 1036 350 1036 363 q 1033 325 1036 338 l 572 325 q 590 210 572 263 q 640 119 608 157 q 716 59 672 81 q 810 38 760 38 q 905 53 864 38 q 983 97 946 69 l 1010 49 q 969 25 990 36 q 924 4 949 14 q 869 -11 899 -6 q 804 -17 840 -17 q 724 -5 760 -17 q 658 26 688 7 q 606 71 629 46 q 565 121 583 96 q 423 20 499 57 q 285 -17 347 -17 m 294 36 q 353 44 321 36 q 417 69 385 53 q 482 110 450 86 q 543 165 514 135 q 521 241 528 196 q 514 333 514 286 l 513 371 q 347 341 415 358 q 236 299 279 324 q 174 242 193 274 q 154 169 154 210 q 196 67 154 97 q 294 36 238 36 m 572 372 l 979 372 q 928 566 979 501 q 788 631 878 631 q 709 612 746 631 q 644 559 672 593 q 597 477 615 525 q 572 372 578 429 m 535 797 l 501 829 l 688 1047 l 735 1007 l 535 797 z "},"ǣ":{"ha":1089,"x_min":90,"x_max":1036,"o":"m 285 -17 q 210 -6 244 -17 q 148 28 175 6 q 106 84 121 50 q 90 165 90 118 q 194 335 90 276 q 514 418 299 393 q 508 494 514 456 q 485 562 503 532 q 437 610 468 592 q 357 629 406 629 q 240 603 294 629 q 151 551 185 576 l 124 597 q 167 625 142 610 q 223 653 192 640 q 290 674 254 665 q 363 683 325 683 q 492 638 444 683 q 557 517 540 593 q 653 638 593 593 q 789 683 714 683 q 972 603 907 683 q 1036 375 1036 522 q 1036 350 1036 363 q 1033 325 1036 338 l 572 325 q 590 210 572 263 q 640 119 608 157 q 716 59 672 81 q 810 38 760 38 q 905 53 864 38 q 983 97 946 69 l 1010 49 q 969 25 990 36 q 924 4 949 14 q 869 -11 899 -6 q 804 -17 840 -17 q 724 -5 760 -17 q 658 26 688 7 q 606 71 629 46 q 565 121 583 96 q 423 20 499 57 q 285 -17 347 -17 m 294 36 q 353 44 321 36 q 417 69 385 53 q 482 110 450 86 q 543 165 514 135 q 521 241 528 196 q 514 333 514 286 l 513 371 q 347 341 415 358 q 236 299 279 324 q 174 242 193 274 q 154 169 154 210 q 196 67 154 97 q 294 36 238 36 m 572 372 l 979 372 q 928 566 979 501 q 788 631 878 631 q 709 612 746 631 q 644 559 672 593 q 597 477 615 525 q 572 372 578 429 m 404 842 l 404 892 l 746 892 l 746 842 l 404 842 z "},"ƀ":{"ha":733,"x_min":21,"x_max":683,"o":"m 389 -17 q 288 6 340 -17 q 189 68 236 29 l 186 68 l 179 0 l 128 0 l 128 807 l 21 807 l 21 847 l 128 853 l 128 999 l 189 999 l 189 853 l 453 853 l 453 807 l 189 807 l 189 663 l 186 532 q 296 606 238 575 q 417 636 354 636 q 617 550 550 636 q 683 321 683 464 q 660 178 683 242 q 595 72 636 115 q 501 6 554 29 q 389 -17 447 -17 m 386 38 q 479 58 436 38 q 553 117 522 79 q 601 206 583 154 q 618 319 618 257 q 606 423 618 375 q 569 506 594 471 q 504 562 544 542 q 407 582 464 582 q 303 553 357 582 q 189 472 249 525 l 189 124 q 296 57 244 76 q 386 38 347 38 z "},"ḇ":{"ha":753,"x_min":128,"x_max":683,"o":"m 389 -17 q 288 6 340 -17 q 189 68 236 29 l 186 68 l 179 0 l 128 0 l 128 999 l 189 999 l 189 710 l 186 579 q 296 653 238 622 q 417 683 354 683 q 617 591 550 683 q 683 343 683 499 q 660 192 683 258 q 595 78 636 125 q 501 8 554 32 q 389 -17 447 -17 m 386 38 q 479 60 436 38 q 553 122 522 82 q 601 219 583 163 q 618 343 618 275 q 606 457 618 404 q 569 548 594 510 q 504 608 544 586 q 407 629 464 629 q 303 601 357 629 q 189 519 249 572 l 189 124 q 296 57 244 76 q 386 38 347 38 m 215 -221 l 215 -171 l 557 -171 l 557 -221 l 215 -221 z "},"ç":{"ha":624,"x_min":72,"x_max":588,"o":"m 375 -17 q 255 7 310 -17 q 159 75 200 31 q 95 184 118 119 q 72 332 72 249 q 97 481 72 415 q 164 592 122 547 q 260 660 206 636 q 376 683 315 683 q 492 658 446 683 q 572 601 538 633 l 536 558 q 465 609 504 589 q 378 629 426 629 q 283 608 326 629 q 206 547 239 586 q 155 453 174 507 q 136 332 136 399 q 153 213 136 267 q 202 119 171 158 q 278 59 233 81 q 378 38 324 38 q 476 60 431 38 q 556 114 521 82 l 588 71 q 492 8 544 33 q 375 -17 439 -17 m 261 -304 l 251 -262 q 375 -239 342 -257 q 408 -189 408 -221 q 383 -142 408 -158 q 300 -118 358 -126 l 357 3 l 406 3 l 364 -90 q 435 -123 408 -101 q 463 -186 463 -144 q 411 -269 463 -240 q 261 -304 360 -297 z "},"ć":{"ha":624,"x_min":72,"x_max":588,"o":"m 375 -17 q 255 7 310 -17 q 159 75 200 31 q 95 184 118 119 q 72 332 72 249 q 97 481 72 415 q 164 592 122 547 q 260 660 206 636 q 376 683 315 683 q 492 658 446 683 q 572 601 538 633 l 536 558 q 465 609 504 589 q 378 629 426 629 q 283 608 326 629 q 206 547 239 586 q 155 453 174 507 q 136 332 136 399 q 153 213 136 267 q 202 119 171 158 q 278 59 233 81 q 378 38 324 38 q 476 60 431 38 q 556 114 521 82 l 588 71 q 492 8 544 33 q 375 -17 439 -17 m 336 797 l 303 829 l 489 1047 l 536 1007 l 336 797 z "},"ĉ":{"ha":624,"x_min":72,"x_max":588,"o":"m 375 -17 q 255 7 310 -17 q 159 75 200 31 q 95 184 118 119 q 72 332 72 249 q 97 481 72 415 q 164 592 122 547 q 260 660 206 636 q 376 683 315 683 q 492 658 446 683 q 572 601 538 633 l 536 558 q 465 609 504 589 q 378 629 426 629 q 283 608 326 629 q 206 547 239 586 q 155 453 174 507 q 136 332 136 399 q 153 213 136 267 q 202 119 171 158 q 278 59 233 81 q 378 38 324 38 q 476 60 431 38 q 556 114 521 82 l 588 71 q 492 8 544 33 q 375 -17 439 -17 m 185 824 l 347 1024 l 406 1024 l 568 824 l 538 794 l 379 969 l 374 969 l 215 794 l 185 824 z "},"č":{"ha":624,"x_min":72,"x_max":588,"o":"m 375 -17 q 255 7 310 -17 q 159 75 200 31 q 95 184 118 119 q 72 332 72 249 q 97 481 72 415 q 164 592 122 547 q 260 660 206 636 q 376 683 315 683 q 492 658 446 683 q 572 601 538 633 l 536 558 q 465 609 504 589 q 378 629 426 629 q 283 608 326 629 q 206 547 239 586 q 155 453 174 507 q 136 332 136 399 q 153 213 136 267 q 202 119 171 158 q 278 59 233 81 q 378 38 324 38 q 476 60 431 38 q 556 114 521 82 l 588 71 q 492 8 544 33 q 375 -17 439 -17 m 347 796 l 185 996 l 215 1024 l 374 850 l 379 850 l 538 1024 l 568 996 l 406 796 l 347 796 z "},"ċ":{"ha":624,"x_min":72,"x_max":588,"o":"m 375 -17 q 255 7 310 -17 q 159 75 200 31 q 95 184 118 119 q 72 332 72 249 q 97 481 72 415 q 164 592 122 547 q 260 660 206 636 q 376 683 315 683 q 492 658 446 683 q 572 601 538 633 l 536 558 q 465 609 504 589 q 378 629 426 629 q 283 608 326 629 q 206 547 239 586 q 155 453 174 507 q 136 332 136 399 q 153 213 136 267 q 202 119 171 158 q 278 59 233 81 q 378 38 324 38 q 476 60 431 38 q 556 114 521 82 l 588 71 q 492 8 544 33 q 375 -17 439 -17 m 376 828 q 338 843 353 828 q 324 885 324 858 q 338 924 324 908 q 376 939 353 939 q 415 924 400 939 q 429 885 429 908 q 415 843 429 858 q 376 828 400 828 z "},"ď":{"ha":763,"x_min":72,"x_max":767,"o":"m 349 -17 q 147 73 222 -17 q 72 332 72 163 q 96 478 72 413 q 160 589 119 543 q 255 659 201 635 q 368 683 308 683 q 474 662 429 683 q 569 601 519 640 l 567 724 l 567 999 l 628 999 l 628 0 l 575 0 l 569 86 l 565 86 q 470 15 525 46 q 349 -17 415 -17 m 357 38 q 463 66 413 38 q 567 147 514 94 l 567 543 q 467 610 514 590 q 372 629 421 629 q 279 606 322 629 q 205 544 236 583 q 156 449 174 504 q 138 332 138 394 q 152 211 138 265 q 194 119 167 157 q 263 59 222 81 q 357 38 304 38 m 718 761 l 714 1047 l 767 1047 l 767 978 l 756 761 l 718 761 z "},"ḍ":{"ha":756,"x_min":72,"x_max":628,"o":"m 349 -17 q 147 73 222 -17 q 72 332 72 163 q 96 478 72 413 q 160 589 119 543 q 255 659 201 635 q 368 683 308 683 q 474 662 429 683 q 569 601 519 640 l 567 724 l 567 999 l 628 999 l 628 0 l 575 0 l 569 86 l 565 86 q 470 15 525 46 q 349 -17 415 -17 m 357 38 q 463 66 413 38 q 567 147 514 94 l 567 543 q 467 610 514 590 q 372 629 421 629 q 279 606 322 629 q 205 544 236 583 q 156 449 174 504 q 138 332 138 394 q 152 211 138 265 q 194 119 167 157 q 263 59 222 81 q 357 38 304 38 m 411 -269 q 373 -254 388 -269 q 358 -212 358 -239 q 373 -174 358 -189 q 411 -158 388 -158 q 449 -174 435 -158 q 464 -212 464 -189 q 449 -254 464 -239 q 411 -269 435 -269 z "},"ḏ":{"ha":756,"x_min":72,"x_max":628,"o":"m 349 -17 q 147 73 222 -17 q 72 332 72 163 q 96 478 72 413 q 160 589 119 543 q 255 659 201 635 q 368 683 308 683 q 474 662 429 683 q 569 601 519 640 l 567 724 l 567 999 l 628 999 l 628 0 l 575 0 l 569 86 l 565 86 q 470 15 525 46 q 349 -17 415 -17 m 357 38 q 463 66 413 38 q 567 147 514 94 l 567 543 q 467 610 514 590 q 372 629 421 629 q 279 606 322 629 q 205 544 236 583 q 156 449 174 504 q 138 332 138 394 q 152 211 138 265 q 194 119 167 157 q 263 59 222 81 q 357 38 304 38 m 239 -221 l 239 -171 l 581 -171 l 581 -221 l 239 -221 z "},"đ":{"ha":756,"x_min":72,"x_max":732,"o":"m 349 -17 q 147 67 222 -17 q 72 308 72 150 q 96 444 72 383 q 160 547 119 504 q 255 613 201 590 q 368 636 308 636 q 474 615 429 636 q 569 554 519 593 l 567 676 l 567 807 l 331 807 l 331 853 l 567 853 l 567 999 l 628 999 l 628 853 l 732 853 l 732 813 l 628 807 l 628 0 l 575 0 l 568 86 l 565 86 q 470 14 525 44 q 349 -17 415 -17 m 357 38 q 463 66 413 38 q 567 147 514 94 l 567 496 q 467 563 514 543 q 372 582 421 582 q 279 560 322 582 q 205 502 236 539 q 156 416 174 465 q 138 310 138 367 q 194 113 138 188 q 357 38 250 38 z "},"è":{"ha":671,"x_min":72,"x_max":618,"o":"m 381 -17 q 260 7 317 -17 q 163 76 204 31 q 97 185 121 121 q 72 332 72 250 q 97 479 72 414 q 162 590 121 544 q 255 659 203 635 q 363 683 307 683 q 550 603 482 683 q 618 375 618 522 q 618 350 618 363 q 615 325 618 338 l 135 325 q 154 209 136 263 q 205 117 172 156 q 283 58 238 79 q 386 36 329 36 q 484 52 440 36 q 565 96 528 68 l 590 49 q 502 4 550 25 q 381 -17 454 -17 m 135 375 l 560 375 q 507 567 560 504 q 364 631 454 631 q 282 613 321 631 q 212 563 243 596 q 160 482 181 529 q 135 375 140 435 m 403 797 l 203 1007 l 250 1047 l 436 829 l 403 797 z "},"é":{"ha":671,"x_min":72,"x_max":618,"o":"m 381 -17 q 260 7 317 -17 q 163 76 204 31 q 97 185 121 121 q 72 332 72 250 q 97 479 72 414 q 162 590 121 544 q 255 659 203 635 q 363 683 307 683 q 550 603 482 683 q 618 375 618 522 q 618 350 618 363 q 615 325 618 338 l 135 325 q 154 209 136 263 q 205 117 172 156 q 283 58 238 79 q 386 36 329 36 q 484 52 440 36 q 565 96 528 68 l 590 49 q 502 4 550 25 q 381 -17 454 -17 m 135 375 l 560 375 q 507 567 560 504 q 364 631 454 631 q 282 613 321 631 q 212 563 243 596 q 160 482 181 529 q 135 375 140 435 m 322 797 l 289 829 l 475 1047 l 522 1007 l 322 797 z "},"ê":{"ha":671,"x_min":72,"x_max":618,"o":"m 381 -17 q 260 7 317 -17 q 163 76 204 31 q 97 185 121 121 q 72 332 72 250 q 97 479 72 414 q 162 590 121 544 q 255 659 203 635 q 363 683 307 683 q 550 603 482 683 q 618 375 618 522 q 618 350 618 363 q 615 325 618 338 l 135 325 q 154 209 136 263 q 205 117 172 156 q 283 58 238 79 q 386 36 329 36 q 484 52 440 36 q 565 96 528 68 l 590 49 q 502 4 550 25 q 381 -17 454 -17 m 135 375 l 560 375 q 507 567 560 504 q 364 631 454 631 q 282 613 321 631 q 212 563 243 596 q 160 482 181 529 q 135 375 140 435 m 171 824 l 333 1024 l 392 1024 l 554 824 l 524 794 l 365 969 l 360 969 l 201 794 l 171 824 z "},"ě":{"ha":671,"x_min":72,"x_max":618,"o":"m 381 -17 q 260 7 317 -17 q 163 76 204 31 q 97 185 121 121 q 72 332 72 250 q 97 479 72 414 q 162 590 121 544 q 255 659 203 635 q 363 683 307 683 q 550 603 482 683 q 618 375 618 522 q 618 350 618 363 q 615 325 618 338 l 135 325 q 154 209 136 263 q 205 117 172 156 q 283 58 238 79 q 386 36 329 36 q 484 52 440 36 q 565 96 528 68 l 590 49 q 502 4 550 25 q 381 -17 454 -17 m 135 375 l 560 375 q 507 567 560 504 q 364 631 454 631 q 282 613 321 631 q 212 563 243 596 q 160 482 181 529 q 135 375 140 435 m 333 796 l 171 996 l 201 1024 l 360 850 l 365 850 l 524 1024 l 554 996 l 392 796 l 333 796 z "},"ë":{"ha":671,"x_min":72,"x_max":618,"o":"m 381 -17 q 260 7 317 -17 q 163 76 204 31 q 97 185 121 121 q 72 332 72 250 q 97 479 72 414 q 162 590 121 544 q 255 659 203 635 q 363 683 307 683 q 550 603 482 683 q 618 375 618 522 q 618 350 618 363 q 615 325 618 338 l 135 325 q 154 209 136 263 q 205 117 172 156 q 283 58 238 79 q 386 36 329 36 q 484 52 440 36 q 565 96 528 68 l 590 49 q 502 4 550 25 q 381 -17 454 -17 m 135 375 l 560 375 q 507 567 560 504 q 364 631 454 631 q 282 613 321 631 q 212 563 243 596 q 160 482 181 529 q 135 375 140 435 m 239 831 q 202 845 217 831 q 188 882 188 860 q 202 919 188 904 q 239 933 217 933 q 276 919 261 933 q 290 882 290 904 q 276 845 290 860 q 239 831 261 831 m 486 831 q 449 845 464 831 q 435 882 435 860 q 449 919 435 904 q 486 933 464 933 q 523 919 508 933 q 538 882 538 904 q 523 845 538 860 q 486 831 508 831 z "},"ē":{"ha":671,"x_min":72,"x_max":618,"o":"m 381 -17 q 260 7 317 -17 q 163 76 204 31 q 97 185 121 121 q 72 332 72 250 q 97 479 72 414 q 162 590 121 544 q 255 659 203 635 q 363 683 307 683 q 550 603 482 683 q 618 375 618 522 q 618 350 618 363 q 615 325 618 338 l 135 325 q 154 209 136 263 q 205 117 172 156 q 283 58 238 79 q 386 36 329 36 q 484 52 440 36 q 565 96 528 68 l 590 49 q 502 4 550 25 q 381 -17 454 -17 m 135 375 l 560 375 q 507 567 560 504 q 364 631 454 631 q 282 613 321 631 q 212 563 243 596 q 160 482 181 529 q 135 375 140 435 m 192 842 l 192 892 l 533 892 l 533 842 l 192 842 z "},"ĕ":{"ha":671,"x_min":72,"x_max":618,"o":"m 381 -17 q 260 7 317 -17 q 163 76 204 31 q 97 185 121 121 q 72 332 72 250 q 97 479 72 414 q 162 590 121 544 q 255 659 203 635 q 363 683 307 683 q 550 603 482 683 q 618 375 618 522 q 618 350 618 363 q 615 325 618 338 l 135 325 q 154 209 136 263 q 205 117 172 156 q 283 58 238 79 q 386 36 329 36 q 484 52 440 36 q 565 96 528 68 l 590 49 q 502 4 550 25 q 381 -17 454 -17 m 135 375 l 560 375 q 507 567 560 504 q 364 631 454 631 q 282 613 321 631 q 212 563 243 596 q 160 482 181 529 q 135 375 140 435 m 363 792 q 271 811 308 792 q 209 860 233 831 q 172 926 185 890 q 156 997 160 963 l 201 1004 q 217 946 206 975 q 249 892 229 917 q 297 853 268 868 q 363 839 325 839 q 428 853 400 839 q 476 892 457 868 q 508 946 496 917 q 524 1004 519 975 l 569 997 q 553 926 565 963 q 516 860 540 890 q 454 811 492 831 q 363 792 417 792 z "},"ė":{"ha":671,"x_min":72,"x_max":618,"o":"m 381 -17 q 260 7 317 -17 q 163 76 204 31 q 97 185 121 121 q 72 332 72 250 q 97 479 72 414 q 162 590 121 544 q 255 659 203 635 q 363 683 307 683 q 550 603 482 683 q 618 375 618 522 q 618 350 618 363 q 615 325 618 338 l 135 325 q 154 209 136 263 q 205 117 172 156 q 283 58 238 79 q 386 36 329 36 q 484 52 440 36 q 565 96 528 68 l 590 49 q 502 4 550 25 q 381 -17 454 -17 m 135 375 l 560 375 q 507 567 560 504 q 364 631 454 631 q 282 613 321 631 q 212 563 243 596 q 160 482 181 529 q 135 375 140 435 m 363 828 q 324 843 339 828 q 310 885 310 858 q 324 924 310 908 q 363 939 339 939 q 401 924 386 939 q 415 885 415 908 q 401 843 415 858 q 363 828 386 828 z "},"ẹ":{"ha":671,"x_min":72,"x_max":618,"o":"m 381 -17 q 260 7 317 -17 q 163 76 204 31 q 97 185 121 121 q 72 332 72 250 q 97 479 72 414 q 162 590 121 544 q 255 659 203 635 q 363 683 307 683 q 550 603 482 683 q 618 375 618 522 q 618 350 618 363 q 615 325 618 338 l 135 325 q 154 209 136 263 q 205 117 172 156 q 283 58 238 79 q 386 36 329 36 q 484 52 440 36 q 565 96 528 68 l 590 49 q 502 4 550 25 q 381 -17 454 -17 m 135 375 l 560 375 q 507 567 560 504 q 364 631 454 631 q 282 613 321 631 q 212 563 243 596 q 160 482 181 529 q 135 375 140 435 m 358 -269 q 320 -254 335 -269 q 306 -212 306 -239 q 320 -174 306 -189 q 358 -158 335 -158 q 397 -174 382 -158 q 411 -212 411 -189 q 397 -254 411 -239 q 358 -269 382 -269 z "},"ẻ":{"ha":671,"x_min":72,"x_max":618,"o":"m 381 -17 q 260 7 317 -17 q 163 76 204 31 q 97 185 121 121 q 72 332 72 250 q 97 479 72 414 q 162 590 121 544 q 255 659 203 635 q 363 683 307 683 q 550 603 482 683 q 618 375 618 522 q 618 350 618 363 q 615 325 618 338 l 135 325 q 154 209 136 263 q 205 117 172 156 q 283 58 238 79 q 386 36 329 36 q 484 52 440 36 q 565 96 528 68 l 590 49 q 502 4 550 25 q 381 -17 454 -17 m 135 375 l 560 375 q 507 567 560 504 q 364 631 454 631 q 282 613 321 631 q 212 563 243 596 q 160 482 181 529 q 135 375 140 435 m 328 799 l 317 838 q 379 866 354 849 q 404 914 404 883 q 286 982 404 978 l 290 1029 q 356 1022 325 1028 q 410 1002 388 1015 q 447 969 433 989 q 460 921 460 949 q 449 874 460 893 q 419 840 438 854 q 376 815 400 825 q 328 799 353 806 z "},"ẽ":{"ha":671,"x_min":72,"x_max":618,"o":"m 381 -17 q 260 7 317 -17 q 163 76 204 31 q 97 185 121 121 q 72 332 72 250 q 97 479 72 414 q 162 590 121 544 q 255 659 203 635 q 363 683 307 683 q 550 603 482 683 q 618 375 618 522 q 618 350 618 363 q 615 325 618 338 l 135 325 q 154 209 136 263 q 205 117 172 156 q 283 58 238 79 q 386 36 329 36 q 484 52 440 36 q 565 96 528 68 l 590 49 q 502 4 550 25 q 381 -17 454 -17 m 135 375 l 560 375 q 507 567 560 504 q 364 631 454 631 q 282 613 321 631 q 212 563 243 596 q 160 482 181 529 q 135 375 140 435 m 468 804 q 401 825 428 804 q 351 871 374 846 q 308 917 329 896 q 257 938 286 938 q 202 900 219 938 q 182 808 185 863 l 135 811 q 143 876 136 844 q 165 931 150 907 q 202 971 179 956 q 258 986 225 986 q 324 965 297 986 q 374 919 351 944 q 418 874 396 894 q 469 853 440 853 q 523 891 506 853 q 543 982 540 929 l 590 979 q 581 916 588 947 q 560 860 575 885 q 524 819 546 835 q 468 804 501 804 z "},"ế":{"ha":671,"x_min":72,"x_max":653,"o":"m 381 -17 q 260 7 317 -17 q 163 76 204 31 q 97 185 121 121 q 72 332 72 250 q 97 479 72 414 q 162 590 121 544 q 255 659 203 635 q 363 683 307 683 q 550 603 482 683 q 618 375 618 522 q 618 350 618 363 q 615 325 618 338 l 135 325 q 154 209 136 263 q 205 117 172 156 q 283 58 238 79 q 386 36 329 36 q 484 52 440 36 q 565 96 528 68 l 590 49 q 502 4 550 25 q 381 -17 454 -17 m 135 375 l 560 375 q 507 567 560 504 q 364 631 454 631 q 282 613 321 631 q 212 563 243 596 q 160 482 181 529 q 135 375 140 435 m 215 796 l 190 826 l 336 954 l 389 954 l 535 826 l 510 796 l 365 901 l 360 901 l 215 796 m 483 911 l 611 1071 l 653 1038 l 514 883 l 483 911 z "},"ề":{"ha":671,"x_min":47,"x_max":618,"o":"m 381 -17 q 260 7 317 -17 q 163 76 204 31 q 97 185 121 121 q 72 332 72 250 q 97 479 72 414 q 162 590 121 544 q 255 659 203 635 q 363 683 307 683 q 550 603 482 683 q 618 375 618 522 q 618 350 618 363 q 615 325 618 338 l 135 325 q 154 209 136 263 q 205 117 172 156 q 283 58 238 79 q 386 36 329 36 q 484 52 440 36 q 565 96 528 68 l 590 49 q 502 4 550 25 q 381 -17 454 -17 m 135 375 l 560 375 q 507 567 560 504 q 364 631 454 631 q 282 613 321 631 q 212 563 243 596 q 160 482 181 529 q 135 375 140 435 m 215 796 l 190 826 l 336 954 l 389 954 l 535 826 l 510 796 l 365 901 l 360 901 l 215 796 m 242 915 l 211 883 l 47 1033 l 89 1071 l 242 915 z "},"ể":{"ha":671,"x_min":72,"x_max":618,"o":"m 381 -17 q 260 7 317 -17 q 163 76 204 31 q 97 185 121 121 q 72 332 72 250 q 97 479 72 414 q 162 590 121 544 q 255 659 203 635 q 363 683 307 683 q 550 603 482 683 q 618 375 618 522 q 618 350 618 363 q 615 325 618 338 l 135 325 q 154 209 136 263 q 205 117 172 156 q 283 58 238 79 q 386 36 329 36 q 484 52 440 36 q 565 96 528 68 l 590 49 q 502 4 550 25 q 381 -17 454 -17 m 135 375 l 560 375 q 507 567 560 504 q 364 631 454 631 q 282 613 321 631 q 212 563 243 596 q 160 482 181 529 q 135 375 140 435 m 215 796 l 190 826 l 336 954 l 389 954 l 535 826 l 510 796 l 365 901 l 360 901 l 215 796 m 506 875 l 494 910 q 543 935 524 921 q 563 974 563 950 q 464 1038 563 1033 l 468 1078 q 573 1053 531 1075 q 615 981 615 1031 q 606 940 615 957 q 580 910 596 922 q 544 889 564 897 q 506 875 525 881 z "},"ễ":{"ha":671,"x_min":72,"x_max":618,"o":"m 381 -17 q 260 7 317 -17 q 163 76 204 31 q 97 185 121 121 q 72 332 72 250 q 97 479 72 414 q 162 590 121 544 q 255 659 203 635 q 363 683 307 683 q 550 603 482 683 q 618 375 618 522 q 618 350 618 363 q 615 325 618 338 l 135 325 q 154 209 136 263 q 205 117 172 156 q 283 58 238 79 q 386 36 329 36 q 484 52 440 36 q 565 96 528 68 l 590 49 q 502 4 550 25 q 381 -17 454 -17 m 135 375 l 560 375 q 507 567 560 504 q 364 631 454 631 q 282 613 321 631 q 212 563 243 596 q 160 482 181 529 q 135 375 140 435 m 215 796 l 190 826 l 336 953 l 389 953 l 535 826 l 510 796 l 365 900 l 360 900 l 215 796 m 182 982 q 188 1019 183 1000 q 203 1053 193 1038 q 228 1077 213 1068 q 267 1086 243 1086 q 324 1077 299 1086 q 371 1057 349 1068 q 413 1037 393 1046 q 457 1028 433 1028 q 490 1043 481 1028 q 503 1090 499 1058 l 543 1086 q 537 1049 542 1067 q 522 1015 532 1031 q 497 991 513 1000 q 458 982 481 982 q 401 991 426 982 q 354 1011 376 1000 q 311 1031 332 1022 q 268 1040 290 1040 q 235 1025 244 1040 q 222 978 226 1010 l 182 982 z "},"ệ":{"ha":671,"x_min":72,"x_max":618,"o":"m 381 -17 q 260 7 317 -17 q 163 76 204 31 q 97 185 121 121 q 72 332 72 250 q 97 479 72 414 q 162 590 121 544 q 255 659 203 635 q 363 683 307 683 q 550 603 482 683 q 618 375 618 522 q 618 350 618 363 q 615 325 618 338 l 135 325 q 154 209 136 263 q 205 117 172 156 q 283 58 238 79 q 386 36 329 36 q 484 52 440 36 q 565 96 528 68 l 590 49 q 502 4 550 25 q 381 -17 454 -17 m 135 375 l 560 375 q 507 567 560 504 q 364 631 454 631 q 282 613 321 631 q 212 563 243 596 q 160 482 181 529 q 135 375 140 435 m 171 824 l 333 1024 l 392 1024 l 554 824 l 524 794 l 365 969 l 360 969 l 201 794 l 171 824 m 357 -269 q 319 -254 333 -269 q 304 -212 304 -239 q 319 -174 304 -189 q 357 -158 333 -158 q 395 -174 381 -158 q 410 -212 410 -189 q 395 -254 410 -239 q 357 -269 381 -269 z "},"ę":{"ha":671,"x_min":72,"x_max":618,"o":"m 493 -282 q 413 -254 444 -282 q 381 -169 381 -226 q 389 -119 381 -143 q 410 -73 397 -94 q 438 -34 422 -51 q 468 -4 453 -17 q 425 -14 446 -11 q 381 -17 404 -17 q 260 7 317 -17 q 163 76 204 31 q 97 185 121 121 q 72 332 72 250 q 97 479 72 414 q 162 590 121 544 q 255 659 203 635 q 363 683 307 683 q 550 603 482 683 q 618 375 618 522 q 618 350 618 363 q 615 325 618 338 l 135 325 q 154 209 136 263 q 205 117 172 156 q 283 58 238 79 q 386 36 329 36 q 484 52 440 36 q 565 96 528 68 l 590 49 q 515 -12 546 15 q 467 -66 485 -40 q 441 -115 449 -92 q 433 -161 433 -139 q 453 -215 433 -197 q 501 -233 474 -233 q 561 -214 536 -233 l 583 -250 q 542 -273 568 -264 q 493 -282 515 -282 m 135 375 l 560 375 q 507 567 560 504 q 364 631 454 631 q 282 613 321 631 q 212 563 243 596 q 160 482 181 529 q 135 375 140 435 z "},"ḗ":{"ha":671,"x_min":72,"x_max":618,"o":"m 381 -17 q 260 7 317 -17 q 163 76 204 31 q 97 185 121 121 q 72 332 72 250 q 97 479 72 414 q 162 590 121 544 q 255 659 203 635 q 363 683 307 683 q 550 603 482 683 q 618 375 618 522 q 618 350 618 363 q 615 325 618 338 l 135 325 q 154 209 136 263 q 205 117 172 156 q 283 58 238 79 q 386 36 329 36 q 484 52 440 36 q 565 96 528 68 l 590 49 q 502 4 550 25 q 381 -17 454 -17 m 135 375 l 560 375 q 507 567 560 504 q 364 631 454 631 q 282 613 321 631 q 212 563 243 596 q 160 482 181 529 q 135 375 140 435 m 311 972 l 281 1008 l 460 1142 l 496 1094 l 311 972 m 192 842 l 192 892 l 533 892 l 533 842 l 192 842 z "},"ǵ":{"ha":676,"x_min":72,"x_max":661,"o":"m 346 -321 q 146 -271 219 -321 q 72 -136 72 -221 q 99 -50 72 -92 q 171 25 125 -8 l 171 31 q 129 72 146 46 q 113 138 113 99 q 138 213 113 182 q 185 260 163 244 l 185 265 q 127 340 153 293 q 101 449 101 388 q 119 543 101 500 q 169 617 138 586 q 244 666 201 649 q 336 683 288 683 q 386 678 364 683 q 424 667 408 674 l 650 667 l 650 615 l 494 615 q 547 544 526 588 q 568 447 568 500 q 550 353 568 396 q 501 278 532 310 q 427 230 469 247 q 336 213 385 213 q 278 219 308 213 q 225 240 249 226 q 187 200 203 222 q 171 144 171 178 q 197 83 171 108 q 299 57 224 57 l 442 57 q 608 20 554 57 q 661 -96 661 -17 q 639 -180 661 -139 q 576 -252 617 -221 q 476 -302 535 -283 q 346 -321 418 -321 m 336 261 q 402 274 371 261 q 457 313 433 288 q 494 372 481 338 q 508 449 508 407 q 494 525 508 490 q 458 583 481 560 q 403 620 435 607 q 336 633 371 633 q 269 620 300 633 q 214 583 238 607 q 176 526 190 560 q 163 449 163 492 q 176 372 163 407 q 215 313 190 338 q 270 274 239 288 q 336 261 301 261 m 353 -271 q 454 -256 408 -271 q 532 -218 500 -242 q 581 -165 564 -194 q 599 -103 599 -135 q 559 -24 599 -47 q 444 -1 519 -1 l 301 -1 q 267 1 290 -1 q 218 10 244 3 q 151 -58 172 -22 q 131 -131 131 -94 q 188 -232 131 -193 q 353 -271 246 -271 m 321 797 l 288 829 l 474 1047 l 521 1007 l 321 797 z "},"ĝ":{"ha":676,"x_min":72,"x_max":661,"o":"m 346 -321 q 146 -271 219 -321 q 72 -136 72 -221 q 99 -50 72 -92 q 171 25 125 -8 l 171 31 q 129 72 146 46 q 113 138 113 99 q 138 213 113 182 q 185 260 163 244 l 185 265 q 127 340 153 293 q 101 449 101 388 q 119 543 101 500 q 169 617 138 586 q 244 666 201 649 q 336 683 288 683 q 386 678 364 683 q 424 667 408 674 l 650 667 l 650 615 l 494 615 q 547 544 526 588 q 568 447 568 500 q 550 353 568 396 q 501 278 532 310 q 427 230 469 247 q 336 213 385 213 q 278 219 308 213 q 225 240 249 226 q 187 200 203 222 q 171 144 171 178 q 197 83 171 108 q 299 57 224 57 l 442 57 q 608 20 554 57 q 661 -96 661 -17 q 639 -180 661 -139 q 576 -252 617 -221 q 476 -302 535 -283 q 346 -321 418 -321 m 336 261 q 402 274 371 261 q 457 313 433 288 q 494 372 481 338 q 508 449 508 407 q 494 525 508 490 q 458 583 481 560 q 403 620 435 607 q 336 633 371 633 q 269 620 300 633 q 214 583 238 607 q 176 526 190 560 q 163 449 163 492 q 176 372 163 407 q 215 313 190 338 q 270 274 239 288 q 336 261 301 261 m 353 -271 q 454 -256 408 -271 q 532 -218 500 -242 q 581 -165 564 -194 q 599 -103 599 -135 q 559 -24 599 -47 q 444 -1 519 -1 l 301 -1 q 267 1 290 -1 q 218 10 244 3 q 151 -58 172 -22 q 131 -131 131 -94 q 188 -232 131 -193 q 353 -271 246 -271 m 169 824 l 332 1024 l 390 1024 l 553 824 l 522 794 l 364 969 l 358 969 l 200 794 l 169 824 z "},"ğ":{"ha":676,"x_min":72,"x_max":661,"o":"m 346 -321 q 146 -271 219 -321 q 72 -136 72 -221 q 99 -50 72 -92 q 171 25 125 -8 l 171 31 q 129 72 146 46 q 113 138 113 99 q 138 213 113 182 q 185 260 163 244 l 185 265 q 127 340 153 293 q 101 449 101 388 q 119 543 101 500 q 169 617 138 586 q 244 666 201 649 q 336 683 288 683 q 386 678 364 683 q 424 667 408 674 l 650 667 l 650 615 l 494 615 q 547 544 526 588 q 568 447 568 500 q 550 353 568 396 q 501 278 532 310 q 427 230 469 247 q 336 213 385 213 q 278 219 308 213 q 225 240 249 226 q 187 200 203 222 q 171 144 171 178 q 197 83 171 108 q 299 57 224 57 l 442 57 q 608 20 554 57 q 661 -96 661 -17 q 639 -180 661 -139 q 576 -252 617 -221 q 476 -302 535 -283 q 346 -321 418 -321 m 336 261 q 402 274 371 261 q 457 313 433 288 q 494 372 481 338 q 508 449 508 407 q 494 525 508 490 q 458 583 481 560 q 403 620 435 607 q 336 633 371 633 q 269 620 300 633 q 214 583 238 607 q 176 526 190 560 q 163 449 163 492 q 176 372 163 407 q 215 313 190 338 q 270 274 239 288 q 336 261 301 261 m 353 -271 q 454 -256 408 -271 q 532 -218 500 -242 q 581 -165 564 -194 q 599 -103 599 -135 q 559 -24 599 -47 q 444 -1 519 -1 l 301 -1 q 267 1 290 -1 q 218 10 244 3 q 151 -58 172 -22 q 131 -131 131 -94 q 188 -232 131 -193 q 353 -271 246 -271 m 361 792 q 269 811 307 792 q 208 860 232 831 q 171 926 183 890 q 154 997 158 963 l 200 1004 q 216 946 204 975 q 247 892 228 917 q 295 853 267 868 q 361 839 324 839 q 427 853 399 839 q 475 892 456 868 q 506 946 494 917 q 522 1004 518 975 l 568 997 q 551 926 564 963 q 515 860 539 890 q 453 811 490 831 q 361 792 415 792 z "},"ġ":{"ha":676,"x_min":72,"x_max":661,"o":"m 346 -321 q 146 -271 219 -321 q 72 -136 72 -221 q 99 -50 72 -92 q 171 25 125 -8 l 171 31 q 129 72 146 46 q 113 138 113 99 q 138 213 113 182 q 185 260 163 244 l 185 265 q 127 340 153 293 q 101 449 101 388 q 119 543 101 500 q 169 617 138 586 q 244 666 201 649 q 336 683 288 683 q 386 678 364 683 q 424 667 408 674 l 650 667 l 650 615 l 494 615 q 547 544 526 588 q 568 447 568 500 q 550 353 568 396 q 501 278 532 310 q 427 230 469 247 q 336 213 385 213 q 278 219 308 213 q 225 240 249 226 q 187 200 203 222 q 171 144 171 178 q 197 83 171 108 q 299 57 224 57 l 442 57 q 608 20 554 57 q 661 -96 661 -17 q 639 -180 661 -139 q 576 -252 617 -221 q 476 -302 535 -283 q 346 -321 418 -321 m 336 261 q 402 274 371 261 q 457 313 433 288 q 494 372 481 338 q 508 449 508 407 q 494 525 508 490 q 458 583 481 560 q 403 620 435 607 q 336 633 371 633 q 269 620 300 633 q 214 583 238 607 q 176 526 190 560 q 163 449 163 492 q 176 372 163 407 q 215 313 190 338 q 270 274 239 288 q 336 261 301 261 m 353 -271 q 454 -256 408 -271 q 532 -218 500 -242 q 581 -165 564 -194 q 599 -103 599 -135 q 559 -24 599 -47 q 444 -1 519 -1 l 301 -1 q 267 1 290 -1 q 218 10 244 3 q 151 -58 172 -22 q 131 -131 131 -94 q 188 -232 131 -193 q 353 -271 246 -271 m 361 828 q 323 843 338 828 q 308 885 308 858 q 323 924 308 908 q 361 939 338 939 q 399 924 385 939 q 414 885 414 908 q 399 843 414 858 q 361 828 385 828 z "},"ģ":{"ha":676,"x_min":72,"x_max":661,"o":"m 346 -321 q 146 -271 219 -321 q 72 -136 72 -221 q 99 -50 72 -92 q 171 25 125 -8 l 171 31 q 129 72 146 46 q 113 138 113 99 q 138 213 113 182 q 185 260 163 244 l 185 265 q 127 340 153 293 q 101 449 101 388 q 119 543 101 500 q 169 617 138 586 q 244 666 201 649 q 336 683 288 683 q 386 678 364 683 q 424 667 408 674 l 650 667 l 650 615 l 494 615 q 547 544 526 588 q 568 447 568 500 q 550 353 568 396 q 501 278 532 310 q 427 230 469 247 q 336 213 385 213 q 278 219 308 213 q 225 240 249 226 q 187 200 203 222 q 171 144 171 178 q 197 83 171 108 q 299 57 224 57 l 442 57 q 608 20 554 57 q 661 -96 661 -17 q 639 -180 661 -139 q 576 -252 617 -221 q 476 -302 535 -283 q 346 -321 418 -321 m 336 261 q 402 274 371 261 q 457 313 433 288 q 494 372 481 338 q 508 449 508 407 q 494 525 508 490 q 458 583 481 560 q 403 620 435 607 q 336 633 371 633 q 269 620 300 633 q 214 583 238 607 q 176 526 190 560 q 163 449 163 492 q 176 372 163 407 q 215 313 190 338 q 270 274 239 288 q 336 261 301 261 m 353 -271 q 454 -256 408 -271 q 532 -218 500 -242 q 581 -165 564 -194 q 599 -103 599 -135 q 559 -24 599 -47 q 444 -1 519 -1 l 301 -1 q 267 1 290 -1 q 218 10 244 3 q 151 -58 172 -22 q 131 -131 131 -94 q 188 -232 131 -193 q 353 -271 246 -271 m 410 804 q 299 838 331 815 q 267 906 267 861 q 318 988 267 960 q 468 1024 369 1017 l 478 982 q 354 957 388 975 q 321 908 321 939 q 349 863 321 876 q 428 844 378 849 l 410 804 z "},"ǧ":{"ha":676,"x_min":72,"x_max":661,"o":"m 346 -321 q 146 -271 219 -321 q 72 -136 72 -221 q 99 -50 72 -92 q 171 25 125 -8 l 171 31 q 129 72 146 46 q 113 138 113 99 q 138 213 113 182 q 185 260 163 244 l 185 265 q 127 340 153 293 q 101 449 101 388 q 119 543 101 500 q 169 617 138 586 q 244 666 201 649 q 336 683 288 683 q 386 678 364 683 q 424 667 408 674 l 650 667 l 650 615 l 494 615 q 547 544 526 588 q 568 447 568 500 q 550 353 568 396 q 501 278 532 310 q 427 230 469 247 q 336 213 385 213 q 278 219 308 213 q 225 240 249 226 q 187 200 203 222 q 171 144 171 178 q 197 83 171 108 q 299 57 224 57 l 442 57 q 608 20 554 57 q 661 -96 661 -17 q 639 -180 661 -139 q 576 -252 617 -221 q 476 -302 535 -283 q 346 -321 418 -321 m 336 261 q 402 274 371 261 q 457 313 433 288 q 494 372 481 338 q 508 449 508 407 q 494 525 508 490 q 458 583 481 560 q 403 620 435 607 q 336 633 371 633 q 269 620 300 633 q 214 583 238 607 q 176 526 190 560 q 163 449 163 492 q 176 372 163 407 q 215 313 190 338 q 270 274 239 288 q 336 261 301 261 m 353 -271 q 454 -256 408 -271 q 532 -218 500 -242 q 581 -165 564 -194 q 599 -103 599 -135 q 559 -24 599 -47 q 444 -1 519 -1 l 301 -1 q 267 1 290 -1 q 218 10 244 3 q 151 -58 172 -22 q 131 -131 131 -94 q 188 -232 131 -193 q 353 -271 246 -271 m 332 796 l 169 996 l 200 1024 l 358 850 l 364 850 l 522 1024 l 553 996 l 390 796 l 332 796 z "},"ḡ":{"ha":676,"x_min":72,"x_max":661,"o":"m 346 -321 q 146 -271 219 -321 q 72 -136 72 -221 q 99 -50 72 -92 q 171 25 125 -8 l 171 31 q 129 72 146 46 q 113 138 113 99 q 138 213 113 182 q 185 260 163 244 l 185 265 q 127 340 153 293 q 101 449 101 388 q 119 543 101 500 q 169 617 138 586 q 244 666 201 649 q 336 683 288 683 q 386 678 364 683 q 424 667 408 674 l 650 667 l 650 615 l 494 615 q 547 544 526 588 q 568 447 568 500 q 550 353 568 396 q 501 278 532 310 q 427 230 469 247 q 336 213 385 213 q 278 219 308 213 q 225 240 249 226 q 187 200 203 222 q 171 144 171 178 q 197 83 171 108 q 299 57 224 57 l 442 57 q 608 20 554 57 q 661 -96 661 -17 q 639 -180 661 -139 q 576 -252 617 -221 q 476 -302 535 -283 q 346 -321 418 -321 m 336 261 q 402 274 371 261 q 457 313 433 288 q 494 372 481 338 q 508 449 508 407 q 494 525 508 490 q 458 583 481 560 q 403 620 435 607 q 336 633 371 633 q 269 620 300 633 q 214 583 238 607 q 176 526 190 560 q 163 449 163 492 q 176 372 163 407 q 215 313 190 338 q 270 274 239 288 q 336 261 301 261 m 353 -271 q 454 -256 408 -271 q 532 -218 500 -242 q 581 -165 564 -194 q 599 -103 599 -135 q 559 -24 599 -47 q 444 -1 519 -1 l 301 -1 q 267 1 290 -1 q 218 10 244 3 q 151 -58 172 -22 q 131 -131 131 -94 q 188 -232 131 -193 q 353 -271 246 -271 m 190 842 l 190 892 l 532 892 l 532 842 l 190 842 z "},"ĥ":{"ha":733,"x_min":-26,"x_max":621,"o":"m 128 0 l 128 999 l 189 999 l 189 563 q 296 649 242 615 q 419 683 350 683 q 572 621 524 683 q 621 428 621 558 l 621 0 l 560 0 l 560 419 q 524 577 560 526 q 407 628 489 628 q 299 597 347 628 q 189 503 250 565 l 189 0 l 128 0 m -26 1063 l 131 1219 l 192 1219 l 349 1063 l 321 1036 l 164 1172 l 158 1172 l 1 1036 l -26 1063 z "},"ḥ":{"ha":733,"x_min":128,"x_max":621,"o":"m 128 0 l 128 999 l 189 999 l 189 563 q 296 649 242 615 q 419 683 350 683 q 572 621 524 683 q 621 428 621 558 l 621 0 l 560 0 l 560 419 q 524 577 560 526 q 407 628 489 628 q 299 597 347 628 q 189 503 250 565 l 189 0 l 128 0 m 392 -269 q 353 -254 368 -269 q 339 -212 339 -239 q 353 -174 339 -189 q 392 -158 368 -158 q 430 -174 415 -158 q 444 -212 444 -189 q 430 -254 444 -239 q 392 -269 415 -269 z "},"ẖ":{"ha":733,"x_min":128,"x_max":621,"o":"m 128 0 l 128 999 l 189 999 l 189 563 q 296 649 242 615 q 419 683 350 683 q 572 621 524 683 q 621 428 621 558 l 621 0 l 560 0 l 560 419 q 524 577 560 526 q 407 628 489 628 q 299 597 347 628 q 189 503 250 565 l 189 0 l 128 0 m 221 -221 l 221 -171 l 563 -171 l 563 -221 l 221 -221 z "},"ḫ":{"ha":733,"x_min":128,"x_max":621,"o":"m 128 0 l 128 999 l 189 999 l 189 563 q 296 649 242 615 q 419 683 350 683 q 572 621 524 683 q 621 428 621 558 l 621 0 l 560 0 l 560 419 q 524 577 560 526 q 407 628 489 628 q 299 597 347 628 q 189 503 250 565 l 189 0 l 128 0 m 390 -319 q 299 -300 336 -319 q 237 -251 261 -281 q 200 -185 213 -221 q 183 -114 188 -149 l 229 -107 q 245 -165 233 -136 q 276 -219 257 -194 q 324 -258 296 -243 q 390 -272 353 -272 q 456 -258 428 -272 q 504 -219 485 -243 q 535 -165 524 -194 q 551 -107 547 -136 l 597 -114 q 581 -185 593 -149 q 544 -251 568 -221 q 482 -300 519 -281 q 390 -319 444 -319 z "},"ħ":{"ha":733,"x_min":21,"x_max":621,"o":"m 128 0 l 128 807 l 21 807 l 21 847 l 128 853 l 128 999 l 189 999 l 189 853 l 453 853 l 453 807 l 189 807 l 189 515 q 296 602 242 568 q 419 636 350 636 q 572 574 524 636 q 621 381 621 511 l 621 0 l 560 0 l 560 372 q 524 530 560 479 q 407 581 489 581 q 299 549 347 581 q 189 456 250 518 l 189 0 l 128 0 z "},"ì":{"ha":318,"x_min":-1,"x_max":232,"o":"m 128 0 l 128 667 l 189 667 l 189 0 l 128 0 m 199 797 l -1 1007 l 46 1047 l 232 829 l 199 797 z "},"í":{"ha":318,"x_min":85,"x_max":318,"o":"m 128 0 l 128 667 l 189 667 l 189 0 l 128 0 m 118 797 l 85 829 l 271 1047 l 318 1007 l 118 797 z "},"î":{"ha":318,"x_min":-33,"x_max":350,"o":"m 128 0 l 128 667 l 189 667 l 189 0 l 128 0 m -33 824 l 129 1024 l 188 1024 l 350 824 l 319 794 l 161 969 l 156 969 l -3 794 l -33 824 z "},"ĩ":{"ha":318,"x_min":-69,"x_max":386,"o":"m 128 0 l 128 667 l 189 667 l 189 0 l 128 0 m 264 804 q 197 825 224 804 q 147 871 169 846 q 103 917 125 896 q 53 938 82 938 q -2 900 15 938 q -22 808 -19 863 l -69 811 q -61 876 -68 844 q -40 931 -54 907 q -2 971 -25 956 q 54 986 21 986 q 120 965 93 986 q 169 919 147 944 q 214 874 192 894 q 265 853 236 853 q 319 891 301 853 q 339 982 336 929 l 386 979 q 377 916 383 947 q 356 860 371 885 q 319 819 342 835 q 264 804 297 804 z "},"ï":{"ha":318,"x_min":-17,"x_max":333,"o":"m 128 0 l 128 667 l 189 667 l 189 0 l 128 0 m 35 831 q -2 845 13 831 q -17 882 -17 860 q -2 919 -17 904 q 35 933 13 933 q 72 919 57 933 q 86 882 86 904 q 72 845 86 860 q 35 831 57 831 m 282 831 q 245 845 260 831 q 231 882 231 860 q 245 919 231 904 q 282 933 260 933 q 319 919 304 933 q 333 882 333 904 q 319 845 333 860 q 282 831 304 831 z "},"ī":{"ha":318,"x_min":-12,"x_max":329,"o":"m 128 0 l 128 667 l 189 667 l 189 0 l 128 0 m -12 842 l -12 892 l 329 892 l 329 842 l -12 842 z "},"ǐ":{"ha":318,"x_min":-33,"x_max":350,"o":"m 128 0 l 128 667 l 189 667 l 189 0 l 128 0 m 129 796 l -33 996 l -3 1024 l 156 850 l 161 850 l 319 1024 l 350 996 l 188 796 l 129 796 z "},"ỉ":{"ha":318,"x_min":82,"x_max":256,"o":"m 128 0 l 128 667 l 189 667 l 189 0 l 128 0 m 124 799 l 113 838 q 175 866 150 849 q 200 914 200 883 q 82 982 200 978 l 86 1029 q 152 1022 121 1028 q 206 1002 183 1015 q 242 969 229 989 q 256 921 256 949 q 244 874 256 893 q 215 840 233 854 q 172 815 196 825 q 124 799 149 806 z "},"ị":{"ha":318,"x_min":104,"x_max":215,"o":"m 128 0 l 128 667 l 189 667 l 189 0 l 128 0 m 160 828 q 120 843 136 828 q 104 882 104 858 q 120 923 104 908 q 160 938 136 938 q 199 923 183 938 q 215 882 215 908 q 199 843 215 858 q 160 828 183 828 m 160 -269 q 122 -254 136 -269 q 107 -212 107 -239 q 122 -174 107 -189 q 160 -158 136 -158 q 198 -174 183 -158 q 213 -212 213 -189 q 198 -254 213 -239 q 160 -269 183 -269 z "},"į":{"ha":318,"x_min":51,"x_max":254,"o":"m 164 -282 q 83 -254 115 -282 q 51 -169 51 -226 q 79 -75 51 -117 q 138 0 107 -33 l 128 0 l 128 667 l 189 667 l 189 0 q 130 -76 156 -36 q 104 -161 104 -117 q 125 -215 104 -197 q 172 -233 146 -233 q 232 -214 204 -233 l 254 -250 q 213 -273 239 -264 q 164 -282 186 -282 m 157 828 q 118 843 135 828 q 101 882 101 858 q 118 923 101 908 q 157 938 135 938 q 197 923 181 938 q 214 882 214 908 q 197 843 214 858 q 157 828 181 828 z "},"ĭ":{"ha":318,"x_min":-47,"x_max":367,"o":"m 128 0 l 128 667 l 189 667 l 189 0 l 128 0 m 160 792 q 68 811 106 792 q 6 860 31 831 q -31 926 -18 890 q -47 997 -43 963 l -1 1004 q 15 946 3 975 q 46 892 26 917 q 94 853 65 868 q 160 839 122 839 q 226 853 197 839 q 274 892 254 868 q 305 946 293 917 q 321 1004 317 975 l 367 997 q 350 926 363 963 q 313 860 338 890 q 251 811 289 831 q 160 792 214 792 z "},"ı":{"ha":318,"x_min":128,"x_max":189,"o":"m 128 0 l 128 667 l 189 667 l 189 0 l 128 0 z "},"ĵ":{"ha":318,"x_min":-46,"x_max":350,"o":"m 40 -318 q -7 -313 17 -318 q -46 -301 -31 -308 l -31 -251 q 1 -260 -18 -256 q 39 -265 19 -265 q 111 -224 94 -265 q 128 -119 128 -183 l 128 667 l 190 667 l 190 -124 q 154 -270 190 -222 q 40 -318 118 -318 m -33 824 l 129 1024 l 188 1024 l 350 824 l 319 794 l 161 969 l 156 969 l -3 794 l -33 824 z "},"ķ":{"ha":644,"x_min":128,"x_max":628,"o":"m 128 0 l 128 999 l 189 999 l 189 263 l 192 263 l 521 667 l 592 667 l 375 403 l 628 0 l 560 0 l 339 357 l 189 182 l 189 0 l 128 0 m 250 -304 l 240 -262 q 364 -239 331 -257 q 397 -190 397 -221 q 369 -144 397 -158 q 290 -125 340 -129 l 308 -85 q 419 -119 388 -96 q 451 -186 451 -142 q 400 -269 451 -240 q 250 -304 349 -297 z "},"ḳ":{"ha":644,"x_min":128,"x_max":628,"o":"m 128 0 l 128 999 l 189 999 l 189 263 l 192 263 l 521 667 l 592 667 l 375 403 l 628 0 l 560 0 l 339 357 l 189 182 l 189 0 l 128 0 m 357 -269 q 319 -254 333 -269 q 304 -212 304 -239 q 319 -174 304 -189 q 357 -158 333 -158 q 395 -174 381 -158 q 410 -212 410 -189 q 395 -254 410 -239 q 357 -269 381 -269 z "},"ḵ":{"ha":644,"x_min":128,"x_max":628,"o":"m 128 0 l 128 999 l 189 999 l 189 263 l 192 263 l 521 667 l 592 667 l 375 403 l 628 0 l 560 0 l 339 357 l 189 182 l 189 0 l 128 0 m 186 -221 l 186 -171 l 528 -171 l 528 -221 l 186 -221 z "},"ĸ":{"ha":644,"x_min":128,"x_max":628,"o":"m 128 0 l 128 667 l 189 667 l 189 263 l 193 263 l 521 667 l 592 667 l 375 403 l 628 0 l 560 0 l 339 357 l 189 181 l 189 0 l 128 0 z "},"ĺ":{"ha":329,"x_min":90,"x_max":303,"o":"m 210 -17 q 128 89 128 -17 l 128 999 l 189 999 l 189 81 q 197 48 189 58 q 218 38 206 38 q 227 38 222 38 q 243 40 232 38 l 254 -10 q 235 -15 244 -12 q 210 -17 225 -17 m 118 1051 l 90 1083 l 264 1254 l 303 1208 l 118 1051 z "},"ľ":{"ha":335,"x_min":128,"x_max":329,"o":"m 210 -17 q 128 89 128 -17 l 128 999 l 189 999 l 189 81 q 197 48 189 58 q 218 38 206 38 q 227 38 222 38 q 243 40 232 38 l 254 -10 q 235 -15 244 -12 q 210 -17 225 -17 m 281 761 l 276 1047 l 329 1047 l 329 978 l 318 761 l 281 761 z "},"ŀ":{"ha":428,"x_min":128,"x_max":431,"o":"m 210 -17 q 128 89 128 -17 l 128 999 l 189 999 l 189 81 q 197 48 189 58 q 218 38 206 38 q 227 38 222 38 q 243 40 232 38 l 254 -10 q 235 -15 244 -12 q 210 -17 225 -17 m 372 386 q 331 403 349 386 q 313 449 313 419 q 331 496 313 479 q 372 513 349 513 q 413 496 396 513 q 431 449 431 479 q 413 403 431 419 q 372 386 396 386 z "},"ļ":{"ha":329,"x_min":78,"x_max":289,"o":"m 210 -17 q 128 89 128 -17 l 128 999 l 189 999 l 189 81 q 197 48 189 58 q 218 38 206 38 q 227 38 222 38 q 243 40 232 38 l 254 -10 q 235 -15 244 -12 q 210 -17 225 -17 m 88 -304 l 78 -262 q 201 -239 168 -257 q 235 -190 235 -221 q 206 -144 235 -158 q 128 -125 178 -129 l 146 -85 q 257 -119 225 -96 q 289 -186 289 -142 q 238 -269 289 -240 q 88 -304 186 -297 z "},"ḷ":{"ha":329,"x_min":128,"x_max":254,"o":"m 210 -17 q 128 89 128 -17 l 128 999 l 189 999 l 189 81 q 197 48 189 58 q 218 38 206 38 q 227 38 222 38 q 243 40 232 38 l 254 -10 q 235 -15 244 -12 q 210 -17 225 -17 m 194 -269 q 156 -254 171 -269 q 142 -212 142 -239 q 156 -174 142 -189 q 194 -158 171 -158 q 233 -174 218 -158 q 247 -212 247 -189 q 233 -254 247 -239 q 194 -269 218 -269 z "},"ḹ":{"ha":329,"x_min":-14,"x_max":328,"o":"m 210 -17 q 128 89 128 -17 l 128 999 l 189 999 l 189 81 q 197 48 189 58 q 218 38 206 38 q 227 38 222 38 q 243 40 232 38 l 254 -10 q 235 -15 244 -12 q 210 -17 225 -17 m -14 1156 l -14 1206 l 328 1206 l 328 1156 l -14 1156 m 194 -269 q 156 -254 171 -269 q 142 -212 142 -239 q 156 -174 142 -189 q 194 -158 171 -158 q 233 -174 218 -158 q 247 -212 247 -189 q 233 -254 247 -239 q 194 -269 218 -269 z "},"ḻ":{"ha":329,"x_min":24,"x_max":365,"o":"m 210 -17 q 128 89 128 -17 l 128 999 l 189 999 l 189 81 q 197 48 189 58 q 218 38 206 38 q 227 38 222 38 q 243 40 232 38 l 254 -10 q 235 -15 244 -12 q 210 -17 225 -17 m 24 -221 l 24 -171 l 365 -171 l 365 -221 l 24 -221 z "},"ł":{"ha":332,"x_min":14,"x_max":296,"o":"m 211 -17 q 129 89 129 -17 l 129 506 l 39 447 l 14 489 l 129 564 l 129 999 l 190 999 l 190 599 l 269 651 l 296 610 l 190 539 l 190 81 q 199 48 190 58 q 219 38 207 38 q 228 38 224 38 q 244 40 233 38 l 256 -10 q 236 -15 246 -12 q 211 -17 226 -17 z "},"ḿ":{"ha":1128,"x_min":128,"x_max":1011,"o":"m 128 0 l 128 667 l 181 667 l 186 564 l 190 564 q 290 649 235 615 q 400 683 344 683 q 524 647 481 683 q 585 547 567 610 q 698 647 643 610 q 811 683 753 683 q 1011 428 1011 683 l 1011 0 l 949 0 l 949 419 q 913 577 949 526 q 800 628 876 628 q 600 503 710 628 l 600 0 l 539 0 l 539 419 q 503 577 539 526 q 389 628 467 628 q 189 503 299 628 l 189 0 l 128 0 m 526 797 l 493 829 l 679 1047 l 726 1007 l 526 797 z "},"ṁ":{"ha":1128,"x_min":128,"x_max":1011,"o":"m 128 0 l 128 667 l 181 667 l 186 564 l 190 564 q 290 649 235 615 q 400 683 344 683 q 524 647 481 683 q 585 547 567 610 q 698 647 643 610 q 811 683 753 683 q 1011 428 1011 683 l 1011 0 l 949 0 l 949 419 q 913 577 949 526 q 800 628 876 628 q 600 503 710 628 l 600 0 l 539 0 l 539 419 q 503 577 539 526 q 389 628 467 628 q 189 503 299 628 l 189 0 l 128 0 m 567 828 q 528 843 543 828 q 514 885 514 858 q 528 924 514 908 q 567 939 543 939 q 605 924 590 939 q 619 885 619 908 q 605 843 619 858 q 567 828 590 828 z "},"ṃ":{"ha":1128,"x_min":128,"x_max":1011,"o":"m 128 0 l 128 667 l 181 667 l 186 564 l 190 564 q 290 649 235 615 q 400 683 344 683 q 524 647 481 683 q 585 547 567 610 q 698 647 643 610 q 811 683 753 683 q 1011 428 1011 683 l 1011 0 l 949 0 l 949 419 q 913 577 949 526 q 800 628 876 628 q 600 503 710 628 l 600 0 l 539 0 l 539 419 q 503 577 539 526 q 389 628 467 628 q 189 503 299 628 l 189 0 l 128 0 m 582 -269 q 544 -254 558 -269 q 529 -212 529 -239 q 544 -174 529 -189 q 582 -158 558 -158 q 620 -174 606 -158 q 635 -212 635 -189 q 620 -254 635 -239 q 582 -269 606 -269 z "},"ń":{"ha":739,"x_min":128,"x_max":621,"o":"m 128 0 l 128 667 l 181 667 l 186 564 l 190 564 q 296 649 242 615 q 419 683 350 683 q 572 621 524 683 q 621 428 621 558 l 621 0 l 560 0 l 560 419 q 524 577 560 526 q 407 628 489 628 q 299 597 347 628 q 189 503 250 565 l 189 0 l 128 0 m 353 797 l 319 829 l 506 1047 l 553 1007 l 353 797 z "},"ǹ":{"ha":739,"x_min":128,"x_max":621,"o":"m 128 0 l 128 667 l 181 667 l 186 564 l 190 564 q 296 649 242 615 q 419 683 350 683 q 572 621 524 683 q 621 428 621 558 l 621 0 l 560 0 l 560 419 q 524 577 560 526 q 407 628 489 628 q 299 597 347 628 q 189 503 250 565 l 189 0 l 128 0 m 432 797 l 232 1007 l 279 1047 l 465 829 l 432 797 z "},"ň":{"ha":739,"x_min":128,"x_max":621,"o":"m 128 0 l 128 667 l 181 667 l 186 564 l 190 564 q 296 649 242 615 q 419 683 350 683 q 572 621 524 683 q 621 428 621 558 l 621 0 l 560 0 l 560 419 q 524 577 560 526 q 407 628 489 628 q 299 597 347 628 q 189 503 250 565 l 189 0 l 128 0 m 364 796 l 201 996 l 232 1024 l 390 850 l 396 850 l 554 1024 l 585 996 l 422 796 l 364 796 z "},"ñ":{"ha":739,"x_min":128,"x_max":621,"o":"m 128 0 l 128 667 l 181 667 l 186 564 l 190 564 q 296 649 242 615 q 419 683 350 683 q 572 621 524 683 q 621 428 621 558 l 621 0 l 560 0 l 560 419 q 524 577 560 526 q 407 628 489 628 q 299 597 347 628 q 189 503 250 565 l 189 0 l 128 0 m 499 804 q 431 825 458 804 q 382 871 404 846 q 338 917 360 896 q 288 938 317 938 q 233 900 250 938 q 213 808 215 863 l 165 811 q 174 876 167 844 q 195 931 181 907 q 233 971 210 956 q 289 986 256 986 q 355 965 328 986 q 404 919 382 944 q 449 874 426 894 q 500 853 471 853 q 553 891 536 853 q 574 982 571 929 l 621 979 q 612 916 618 947 q 591 860 606 885 q 554 819 576 835 q 499 804 532 804 z "},"ņ":{"ha":739,"x_min":128,"x_max":621,"o":"m 128 0 l 128 667 l 181 667 l 186 564 l 190 564 q 296 649 242 615 q 419 683 350 683 q 572 621 524 683 q 621 428 621 558 l 621 0 l 560 0 l 560 419 q 524 577 560 526 q 407 628 489 628 q 299 597 347 628 q 189 503 250 565 l 189 0 l 128 0 m 271 -304 l 261 -262 q 385 -239 351 -257 q 418 -190 418 -221 q 390 -144 418 -158 q 311 -125 361 -129 l 329 -85 q 440 -119 408 -96 q 472 -186 472 -142 q 421 -269 472 -240 q 271 -304 369 -297 z "},"ṅ":{"ha":739,"x_min":128,"x_max":621,"o":"m 128 0 l 128 667 l 181 667 l 186 564 l 190 564 q 296 649 242 615 q 419 683 350 683 q 572 621 524 683 q 621 428 621 558 l 621 0 l 560 0 l 560 419 q 524 577 560 526 q 407 628 489 628 q 299 597 347 628 q 189 503 250 565 l 189 0 l 128 0 m 393 828 q 355 843 369 828 q 340 885 340 858 q 355 924 340 908 q 393 939 369 939 q 431 924 417 939 q 446 885 446 908 q 431 843 446 858 q 393 828 417 828 z "},"ṇ":{"ha":739,"x_min":128,"x_max":621,"o":"m 128 0 l 128 667 l 181 667 l 186 564 l 190 564 q 296 649 242 615 q 419 683 350 683 q 572 621 524 683 q 621 428 621 558 l 621 0 l 560 0 l 560 419 q 524 577 560 526 q 407 628 489 628 q 299 597 347 628 q 189 503 250 565 l 189 0 l 128 0 m 379 -269 q 341 -254 356 -269 q 326 -212 326 -239 q 341 -174 326 -189 q 379 -158 356 -158 q 417 -174 403 -158 q 432 -212 432 -189 q 417 -254 432 -239 q 379 -269 403 -269 z "},"ṉ":{"ha":739,"x_min":128,"x_max":621,"o":"m 128 0 l 128 667 l 181 667 l 186 564 l 190 564 q 296 649 242 615 q 419 683 350 683 q 572 621 524 683 q 621 428 621 558 l 621 0 l 560 0 l 560 419 q 524 577 560 526 q 407 628 489 628 q 299 597 347 628 q 189 503 250 565 l 189 0 l 128 0 m 207 -221 l 207 -171 l 549 -171 l 549 -221 l 207 -221 z "},"ŉ":{"ha":1013,"x_min":81,"x_max":883,"o":"m 390 0 l 390 667 l 443 667 l 449 564 l 453 564 q 558 649 504 615 q 682 683 613 683 q 835 621 786 683 q 883 428 883 558 l 883 0 l 822 0 l 822 419 q 787 577 822 526 q 669 628 751 628 q 561 597 610 628 q 451 503 513 565 l 451 0 l 390 0 m 106 663 l 81 694 q 150 770 126 732 q 174 867 174 808 q 163 865 171 865 q 126 878 143 865 q 108 917 108 890 q 124 958 108 943 q 163 972 139 972 q 208 948 190 972 q 225 879 225 924 q 194 751 225 804 q 106 663 163 699 z "},"ò":{"ha":743,"x_min":72,"x_max":671,"o":"m 371 -17 q 257 7 311 -17 q 162 75 203 31 q 97 184 121 119 q 72 332 72 249 q 97 481 72 415 q 162 592 121 547 q 257 660 203 636 q 371 683 311 683 q 485 660 431 683 q 581 592 540 636 q 647 481 622 547 q 671 332 671 415 q 647 184 671 249 q 581 75 622 119 q 485 7 540 31 q 371 -17 431 -17 m 371 38 q 465 59 421 38 q 540 119 508 81 q 589 213 571 158 q 607 332 607 267 q 589 453 607 399 q 540 547 571 507 q 465 608 508 586 q 371 629 421 629 q 278 608 321 629 q 203 547 235 586 q 154 453 172 507 q 136 332 136 399 q 154 213 136 267 q 203 119 172 158 q 278 59 235 81 q 371 38 321 38 m 411 797 l 211 1007 l 258 1047 l 444 829 l 411 797 z "},"ó":{"ha":743,"x_min":72,"x_max":671,"o":"m 371 -17 q 257 7 311 -17 q 162 75 203 31 q 97 184 121 119 q 72 332 72 249 q 97 481 72 415 q 162 592 121 547 q 257 660 203 636 q 371 683 311 683 q 485 660 431 683 q 581 592 540 636 q 647 481 622 547 q 671 332 671 415 q 647 184 671 249 q 581 75 622 119 q 485 7 540 31 q 371 -17 431 -17 m 371 38 q 465 59 421 38 q 540 119 508 81 q 589 213 571 158 q 607 332 607 267 q 589 453 607 399 q 540 547 571 507 q 465 608 508 586 q 371 629 421 629 q 278 608 321 629 q 203 547 235 586 q 154 453 172 507 q 136 332 136 399 q 154 213 136 267 q 203 119 172 158 q 278 59 235 81 q 371 38 321 38 m 331 797 l 297 829 l 483 1047 l 531 1007 l 331 797 z "},"ô":{"ha":743,"x_min":72,"x_max":671,"o":"m 371 -17 q 257 7 311 -17 q 162 75 203 31 q 97 184 121 119 q 72 332 72 249 q 97 481 72 415 q 162 592 121 547 q 257 660 203 636 q 371 683 311 683 q 485 660 431 683 q 581 592 540 636 q 647 481 622 547 q 671 332 671 415 q 647 184 671 249 q 581 75 622 119 q 485 7 540 31 q 371 -17 431 -17 m 371 38 q 465 59 421 38 q 540 119 508 81 q 589 213 571 158 q 607 332 607 267 q 589 453 607 399 q 540 547 571 507 q 465 608 508 586 q 371 629 421 629 q 278 608 321 629 q 203 547 235 586 q 154 453 172 507 q 136 332 136 399 q 154 213 136 267 q 203 119 172 158 q 278 59 235 81 q 371 38 321 38 m 179 824 l 342 1024 l 400 1024 l 563 824 l 532 794 l 374 969 l 368 969 l 210 794 l 179 824 z "},"õ":{"ha":743,"x_min":72,"x_max":671,"o":"m 371 -17 q 257 7 311 -17 q 162 75 203 31 q 97 184 121 119 q 72 332 72 249 q 97 481 72 415 q 162 592 121 547 q 257 660 203 636 q 371 683 311 683 q 485 660 431 683 q 581 592 540 636 q 647 481 622 547 q 671 332 671 415 q 647 184 671 249 q 581 75 622 119 q 485 7 540 31 q 371 -17 431 -17 m 371 38 q 465 59 421 38 q 540 119 508 81 q 589 213 571 158 q 607 332 607 267 q 589 453 607 399 q 540 547 571 507 q 465 608 508 586 q 371 629 421 629 q 278 608 321 629 q 203 547 235 586 q 154 453 172 507 q 136 332 136 399 q 154 213 136 267 q 203 119 172 158 q 278 59 235 81 q 371 38 321 38 m 476 804 q 409 825 436 804 q 360 871 382 846 q 316 917 338 896 q 265 938 294 938 q 210 900 228 938 q 190 808 193 863 l 143 811 q 151 876 144 844 q 173 931 158 907 q 210 971 188 956 q 267 986 233 986 q 333 965 306 986 q 382 919 360 944 q 426 874 404 894 q 478 853 449 853 q 531 891 514 853 q 551 982 549 929 l 599 979 q 590 916 596 947 q 569 860 583 885 q 532 819 554 835 q 476 804 510 804 z "}}}
